%TF.GenerationSoftware,KiCad,Pcbnew,9.0.1-1.fc42*%
%TF.CreationDate,2025-05-12T11:46:39+02:00*%
%TF.ProjectId,PreAmp,50726541-6d70-42e6-9b69-6361645f7063,1*%
%TF.SameCoordinates,Original*%
%TF.FileFunction,Soldermask,Top*%
%TF.FilePolarity,Negative*%
%FSLAX46Y46*%
G04 Gerber Fmt 4.6, Leading zero omitted, Abs format (unit mm)*
G04 Created by KiCad (PCBNEW 9.0.1-1.fc42) date 2025-05-12 11:46:39*
%MOMM*%
%LPD*%
G01*
G04 APERTURE LIST*
G04 Aperture macros list*
%AMRoundRect*
0 Rectangle with rounded corners*
0 $1 Rounding radius*
0 $2 $3 $4 $5 $6 $7 $8 $9 X,Y pos of 4 corners*
0 Add a 4 corners polygon primitive as box body*
4,1,4,$2,$3,$4,$5,$6,$7,$8,$9,$2,$3,0*
0 Add four circle primitives for the rounded corners*
1,1,$1+$1,$2,$3*
1,1,$1+$1,$4,$5*
1,1,$1+$1,$6,$7*
1,1,$1+$1,$8,$9*
0 Add four rect primitives between the rounded corners*
20,1,$1+$1,$2,$3,$4,$5,0*
20,1,$1+$1,$4,$5,$6,$7,0*
20,1,$1+$1,$6,$7,$8,$9,0*
20,1,$1+$1,$8,$9,$2,$3,0*%
G04 Aperture macros list end*
%ADD10C,3.400000*%
%ADD11C,2.900000*%
%ADD12C,5.600000*%
%ADD13C,3.600000*%
%ADD14C,2.000000*%
%ADD15RoundRect,0.250000X0.457500X0.445000X-0.457500X0.445000X-0.457500X-0.445000X0.457500X-0.445000X0*%
%ADD16RoundRect,0.250000X0.325000X0.650000X-0.325000X0.650000X-0.325000X-0.650000X0.325000X-0.650000X0*%
%ADD17RoundRect,0.250000X0.445000X-0.457500X0.445000X0.457500X-0.445000X0.457500X-0.445000X-0.457500X0*%
%ADD18RoundRect,0.250000X0.475000X-0.250000X0.475000X0.250000X-0.475000X0.250000X-0.475000X-0.250000X0*%
%ADD19O,2.720000X3.240000*%
%ADD20R,1.800000X1.800000*%
%ADD21C,1.800000*%
%ADD22R,1.000000X1.500000*%
%ADD23RoundRect,0.250000X-0.250000X-0.475000X0.250000X-0.475000X0.250000X0.475000X-0.250000X0.475000X0*%
%ADD24R,1.600000X1.600000*%
%ADD25O,1.600000X1.600000*%
%ADD26RoundRect,0.150000X0.150000X-0.512500X0.150000X0.512500X-0.150000X0.512500X-0.150000X-0.512500X0*%
%ADD27R,1.873999X0.558000*%
%ADD28R,1.700000X1.700000*%
%ADD29C,1.700000*%
%ADD30RoundRect,0.250000X-0.475000X0.250000X-0.475000X-0.250000X0.475000X-0.250000X0.475000X0.250000X0*%
G04 APERTURE END LIST*
%TO.C,JP5*%
G36*
X139900000Y-103950000D02*
G01*
X140200000Y-103950000D01*
X140200000Y-105450000D01*
X139900000Y-105450000D01*
X139900000Y-103950000D01*
G37*
%TO.C,JP4*%
G36*
X139900000Y-101400000D02*
G01*
X140200000Y-101400000D01*
X140200000Y-102900000D01*
X139900000Y-102900000D01*
X139900000Y-101400000D01*
G37*
%TO.C,JP2*%
G36*
X139900000Y-96350000D02*
G01*
X140200000Y-96350000D01*
X140200000Y-97850000D01*
X139900000Y-97850000D01*
X139900000Y-96350000D01*
G37*
%TO.C,JP3*%
G36*
X139900000Y-98900000D02*
G01*
X140200000Y-98900000D01*
X140200000Y-100400000D01*
X139900000Y-100400000D01*
X139900000Y-98900000D01*
G37*
%TO.C,JP1*%
G36*
X138250000Y-109750000D02*
G01*
X138550000Y-109750000D01*
X138550000Y-111250000D01*
X138250000Y-111250000D01*
X138250000Y-109750000D01*
G37*
%TD*%
D10*
%TO.C,J1*%
X173300000Y-95330000D03*
X165680000Y-95330000D03*
D11*
X169490000Y-99780000D03*
%TD*%
D12*
%TO.C,H4*%
X179750000Y-78600000D03*
D13*
X179750000Y-78600000D03*
%TD*%
D14*
%TO.C,TP2*%
X162750000Y-115500000D03*
%TD*%
D13*
%TO.C,H1*%
X179750000Y-117200000D03*
D12*
X179750000Y-117200000D03*
%TD*%
D15*
%TO.C,C4*%
X122852500Y-102500000D03*
X120147500Y-102500000D03*
%TD*%
D16*
%TO.C,C1*%
X152525000Y-99800000D03*
X155475000Y-99800000D03*
%TD*%
%TO.C,C2*%
X152525000Y-102100000D03*
X155475000Y-102100000D03*
%TD*%
D17*
%TO.C,C3*%
X137300000Y-97052500D03*
X137300000Y-94347500D03*
%TD*%
D18*
%TO.C,R4*%
X143200000Y-100010000D03*
X143200000Y-98110000D03*
%TD*%
D14*
%TO.C,TP1*%
X124052000Y-93400000D03*
%TD*%
D19*
%TO.C,RV1*%
X134900000Y-115400000D03*
X125300000Y-115400000D03*
D20*
X132600000Y-107900000D03*
D21*
X130100000Y-107900000D03*
X127600000Y-107900000D03*
%TD*%
D18*
%TO.C,R5*%
X122700000Y-106950000D03*
X122700000Y-105050000D03*
%TD*%
D22*
%TO.C,JP5*%
X139400000Y-104700000D03*
X140700000Y-104700000D03*
%TD*%
D23*
%TO.C,R2*%
X128678000Y-86710000D03*
X130578000Y-86710000D03*
%TD*%
D22*
%TO.C,JP4*%
X139400000Y-102150000D03*
X140700000Y-102150000D03*
%TD*%
D24*
%TO.C,D4*%
X146370000Y-102030000D03*
D25*
X146370000Y-109650000D03*
%TD*%
D24*
%TO.C,D2*%
X146380000Y-99730000D03*
D25*
X146380000Y-92110000D03*
%TD*%
D26*
%TO.C,U1*%
X126728000Y-91597500D03*
X127678000Y-91597500D03*
X128628000Y-91597500D03*
X128628000Y-89322500D03*
X126728000Y-89322500D03*
%TD*%
D23*
%TO.C,R1*%
X124478000Y-86710000D03*
X126378000Y-86710000D03*
%TD*%
D27*
%TO.C,U2*%
X134834301Y-105345000D03*
X134834301Y-104075000D03*
X134834301Y-102805000D03*
X134834301Y-101535000D03*
X134834301Y-100265000D03*
X134834301Y-98995000D03*
X134834301Y-97725000D03*
X134834301Y-96455000D03*
X125365699Y-96455000D03*
X125365699Y-97725000D03*
X125365699Y-98995000D03*
X125365699Y-100265000D03*
X125365699Y-101535000D03*
X125365699Y-102805000D03*
X125365699Y-104075000D03*
X125365699Y-105345000D03*
%TD*%
D22*
%TO.C,JP2*%
X139400000Y-97100000D03*
X140700000Y-97100000D03*
%TD*%
D28*
%TO.C,J2*%
X117808000Y-98900000D03*
D29*
X117808000Y-96360000D03*
X117808000Y-93820000D03*
X117808000Y-91280000D03*
X117808000Y-88740000D03*
%TD*%
D24*
%TO.C,D1*%
X149640000Y-92110000D03*
D25*
X149640000Y-99730000D03*
%TD*%
D22*
%TO.C,JP3*%
X139400000Y-99650000D03*
X140700000Y-99650000D03*
%TD*%
D14*
%TO.C,TP3*%
X121700000Y-98900000D03*
%TD*%
D13*
%TO.C,H2*%
X119000000Y-117200000D03*
D12*
X119000000Y-117200000D03*
%TD*%
D13*
%TO.C,H3*%
X119000000Y-78600000D03*
D12*
X119000000Y-78600000D03*
%TD*%
D30*
%TO.C,R3*%
X143200000Y-101760000D03*
X143200000Y-103660000D03*
%TD*%
D24*
%TO.C,D3*%
X149630000Y-109660000D03*
D25*
X149630000Y-102040000D03*
%TD*%
D22*
%TO.C,JP1*%
X137750000Y-110500000D03*
X139050000Y-110500000D03*
%TD*%
M02*
