%TF.GenerationSoftware,KiCad,Pcbnew,9.0.1-1.fc42*%
%TF.CreationDate,2025-05-12T11:46:39+02:00*%
%TF.ProjectId,PreAmp,50726541-6d70-42e6-9b69-6361645f7063,1*%
%TF.SameCoordinates,Original*%
%TF.FileFunction,Copper,L1,Top*%
%TF.FilePolarity,Positive*%
%FSLAX46Y46*%
G04 Gerber Fmt 4.6, Leading zero omitted, Abs format (unit mm)*
G04 Created by KiCad (PCBNEW 9.0.1-1.fc42) date 2025-05-12 11:46:39*
%MOMM*%
%LPD*%
G01*
G04 APERTURE LIST*
G04 Aperture macros list*
%AMRoundRect*
0 Rectangle with rounded corners*
0 $1 Rounding radius*
0 $2 $3 $4 $5 $6 $7 $8 $9 X,Y pos of 4 corners*
0 Add a 4 corners polygon primitive as box body*
4,1,4,$2,$3,$4,$5,$6,$7,$8,$9,$2,$3,0*
0 Add four circle primitives for the rounded corners*
1,1,$1+$1,$2,$3*
1,1,$1+$1,$4,$5*
1,1,$1+$1,$6,$7*
1,1,$1+$1,$8,$9*
0 Add four rect primitives between the rounded corners*
20,1,$1+$1,$2,$3,$4,$5,0*
20,1,$1+$1,$4,$5,$6,$7,0*
20,1,$1+$1,$6,$7,$8,$9,0*
20,1,$1+$1,$8,$9,$2,$3,0*%
G04 Aperture macros list end*
%TA.AperFunction,ComponentPad*%
%ADD10C,3.400000*%
%TD*%
%TA.AperFunction,ComponentPad*%
%ADD11C,2.900000*%
%TD*%
%TA.AperFunction,ConnectorPad*%
%ADD12C,5.600000*%
%TD*%
%TA.AperFunction,ComponentPad*%
%ADD13C,3.600000*%
%TD*%
%TA.AperFunction,SMDPad,CuDef*%
%ADD14C,2.000000*%
%TD*%
%TA.AperFunction,SMDPad,CuDef*%
%ADD15RoundRect,0.250000X0.457500X0.445000X-0.457500X0.445000X-0.457500X-0.445000X0.457500X-0.445000X0*%
%TD*%
%TA.AperFunction,SMDPad,CuDef*%
%ADD16RoundRect,0.250000X0.325000X0.650000X-0.325000X0.650000X-0.325000X-0.650000X0.325000X-0.650000X0*%
%TD*%
%TA.AperFunction,SMDPad,CuDef*%
%ADD17RoundRect,0.250000X0.445000X-0.457500X0.445000X0.457500X-0.445000X0.457500X-0.445000X-0.457500X0*%
%TD*%
%TA.AperFunction,SMDPad,CuDef*%
%ADD18RoundRect,0.250000X0.475000X-0.250000X0.475000X0.250000X-0.475000X0.250000X-0.475000X-0.250000X0*%
%TD*%
%TA.AperFunction,ComponentPad*%
%ADD19O,2.720000X3.240000*%
%TD*%
%TA.AperFunction,ComponentPad*%
%ADD20R,1.800000X1.800000*%
%TD*%
%TA.AperFunction,ComponentPad*%
%ADD21C,1.800000*%
%TD*%
%TA.AperFunction,SMDPad,CuDef*%
%ADD22R,1.000000X1.500000*%
%TD*%
%TA.AperFunction,SMDPad,CuDef*%
%ADD23RoundRect,0.250000X-0.250000X-0.475000X0.250000X-0.475000X0.250000X0.475000X-0.250000X0.475000X0*%
%TD*%
%TA.AperFunction,ComponentPad*%
%ADD24R,1.600000X1.600000*%
%TD*%
%TA.AperFunction,ComponentPad*%
%ADD25O,1.600000X1.600000*%
%TD*%
%TA.AperFunction,SMDPad,CuDef*%
%ADD26RoundRect,0.150000X0.150000X-0.512500X0.150000X0.512500X-0.150000X0.512500X-0.150000X-0.512500X0*%
%TD*%
%TA.AperFunction,SMDPad,CuDef*%
%ADD27R,1.873999X0.558000*%
%TD*%
%TA.AperFunction,ComponentPad*%
%ADD28R,1.700000X1.700000*%
%TD*%
%TA.AperFunction,ComponentPad*%
%ADD29C,1.700000*%
%TD*%
%TA.AperFunction,SMDPad,CuDef*%
%ADD30RoundRect,0.250000X-0.475000X0.250000X-0.475000X-0.250000X0.475000X-0.250000X0.475000X0.250000X0*%
%TD*%
%TA.AperFunction,ViaPad*%
%ADD31C,0.600000*%
%TD*%
%TA.AperFunction,Conductor*%
%ADD32C,0.200000*%
%TD*%
%TA.AperFunction,Conductor*%
%ADD33C,0.500000*%
%TD*%
G04 APERTURE END LIST*
D10*
%TO.P,J1,1*%
%TO.N,GND*%
X173300000Y-95330000D03*
%TO.P,J1,2*%
%TO.N,/XLR+*%
X165680000Y-95330000D03*
D11*
%TO.P,J1,3*%
%TO.N,/XLR-*%
X169490000Y-99780000D03*
%TD*%
D12*
%TO.P,H4,1,1*%
%TO.N,GND*%
X179750000Y-78600000D03*
D13*
X179750000Y-78600000D03*
%TD*%
D14*
%TO.P,TP2,1,1*%
%TO.N,GND*%
X162750000Y-115500000D03*
%TD*%
D13*
%TO.P,H1,1,1*%
%TO.N,GND*%
X179750000Y-117200000D03*
D12*
X179750000Y-117200000D03*
%TD*%
D15*
%TO.P,C4,1*%
%TO.N,6V*%
X122852500Y-102500000D03*
%TO.P,C4,2*%
%TO.N,GND*%
X120147500Y-102500000D03*
%TD*%
D16*
%TO.P,C1,2*%
%TO.N,/Cont+*%
X152525000Y-99800000D03*
%TO.P,C1,1*%
%TO.N,/XLR+*%
X155475000Y-99800000D03*
%TD*%
%TO.P,C2,2*%
%TO.N,/Cont-*%
X152525000Y-102100000D03*
%TO.P,C2,1*%
%TO.N,/XLR-*%
X155475000Y-102100000D03*
%TD*%
D17*
%TO.P,C3,1*%
%TO.N,-6V*%
X137300000Y-97052500D03*
%TO.P,C3,2*%
%TO.N,GND*%
X137300000Y-94347500D03*
%TD*%
D18*
%TO.P,R4,1*%
%TO.N,/Cont+*%
X143200000Y-100010000D03*
%TO.P,R4,2*%
%TO.N,GND*%
X143200000Y-98110000D03*
%TD*%
D14*
%TO.P,TP1,1,1*%
%TO.N,1.6V*%
X124052000Y-93400000D03*
%TD*%
D19*
%TO.P,RV1,*%
%TO.N,*%
X134900000Y-115400000D03*
X125300000Y-115400000D03*
D20*
%TO.P,RV1,1,1*%
%TO.N,Net-(JP1-A)*%
X132600000Y-107900000D03*
D21*
%TO.P,RV1,2,2*%
%TO.N,Net-(U2-RG1)*%
X130100000Y-107900000D03*
%TO.P,RV1,3,3*%
%TO.N,Net-(R5-Pad1)*%
X127600000Y-107900000D03*
%TD*%
D18*
%TO.P,R5,1*%
%TO.N,Net-(R5-Pad1)*%
X122700000Y-106950000D03*
%TO.P,R5,2*%
%TO.N,Net-(U2-RG2)*%
X122700000Y-105050000D03*
%TD*%
D22*
%TO.P,JP5,1,A*%
%TO.N,/In-*%
X139400000Y-104700000D03*
%TO.P,JP5,2,B*%
%TO.N,/Cont-*%
X140700000Y-104700000D03*
%TD*%
D23*
%TO.P,R2,1*%
%TO.N,Net-(U1--)*%
X128678000Y-86710000D03*
%TO.P,R2,2*%
%TO.N,GND*%
X130578000Y-86710000D03*
%TD*%
D22*
%TO.P,JP4,1,A*%
%TO.N,/In-*%
X139400000Y-102150000D03*
%TO.P,JP4,2,B*%
%TO.N,/Cont-*%
X140700000Y-102150000D03*
%TD*%
D24*
%TO.P,D4,1,K*%
%TO.N,/Cont-*%
X146370000Y-102030000D03*
D25*
%TO.P,D4,2,A*%
%TO.N,-6V*%
X146370000Y-109650000D03*
%TD*%
D24*
%TO.P,D2,1,K*%
%TO.N,/Cont+*%
X146380000Y-99730000D03*
D25*
%TO.P,D2,2,A*%
%TO.N,-6V*%
X146380000Y-92110000D03*
%TD*%
D26*
%TO.P,U1,1*%
%TO.N,1.6V*%
X126728000Y-91597500D03*
%TO.P,U1,2,V-*%
%TO.N,GND*%
X127678000Y-91597500D03*
%TO.P,U1,3,+*%
%TO.N,1.6V*%
X128628000Y-91597500D03*
%TO.P,U1,4,-*%
%TO.N,Net-(U1--)*%
X128628000Y-89322500D03*
%TO.P,U1,5,V+*%
%TO.N,6V*%
X126728000Y-89322500D03*
%TD*%
D23*
%TO.P,R1,1*%
%TO.N,6V*%
X124478000Y-86710000D03*
%TO.P,R1,2*%
%TO.N,Net-(U1--)*%
X126378000Y-86710000D03*
%TD*%
D27*
%TO.P,U2,1,NC*%
%TO.N,unconnected-(U2-NC-Pad1)*%
X134834301Y-105345000D03*
%TO.P,U2,2,RG1*%
%TO.N,Net-(U2-RG1)*%
X134834301Y-104075000D03*
%TO.P,U2,3,NC*%
%TO.N,unconnected-(U2-NC-Pad3)*%
X134834301Y-102805000D03*
%TO.P,U2,4,VIN-*%
%TO.N,/In-*%
X134834301Y-101535000D03*
%TO.P,U2,5,VIN+*%
%TO.N,/In+*%
X134834301Y-100265000D03*
%TO.P,U2,6,NC*%
%TO.N,unconnected-(U2-NC-Pad6)*%
X134834301Y-98995000D03*
%TO.P,U2,7,V-*%
%TO.N,-6V*%
X134834301Y-97725000D03*
%TO.P,U2,8,NC*%
%TO.N,unconnected-(U2-NC-Pad8)*%
X134834301Y-96455000D03*
%TO.P,U2,9,NC*%
%TO.N,unconnected-(U2-NC-Pad9)*%
X125365699Y-96455000D03*
%TO.P,U2,10,REF*%
%TO.N,1.6V*%
X125365699Y-97725000D03*
%TO.P,U2,11,VOUT*%
%TO.N,Out*%
X125365699Y-98995000D03*
%TO.P,U2,12,NC*%
%TO.N,unconnected-(U2-NC-Pad12)*%
X125365699Y-100265000D03*
%TO.P,U2,13,V+*%
%TO.N,6V*%
X125365699Y-101535000D03*
%TO.P,U2,14,NC*%
%TO.N,unconnected-(U2-NC-Pad14)*%
X125365699Y-102805000D03*
%TO.P,U2,15,RG2*%
%TO.N,Net-(U2-RG2)*%
X125365699Y-104075000D03*
%TO.P,U2,16,NC*%
%TO.N,unconnected-(U2-NC-Pad16)*%
X125365699Y-105345000D03*
%TD*%
D22*
%TO.P,JP2,1,A*%
%TO.N,/In+*%
X139400000Y-97100000D03*
%TO.P,JP2,2,B*%
%TO.N,/Cont+*%
X140700000Y-97100000D03*
%TD*%
D28*
%TO.P,J2,1,Pin_1*%
%TO.N,Out*%
X117808000Y-98900000D03*
D29*
%TO.P,J2,2,Pin_2*%
%TO.N,GND*%
X117808000Y-96360000D03*
%TO.P,J2,3,Pin_3*%
%TO.N,-6V*%
X117808000Y-93820000D03*
%TO.P,J2,4,Pin_4*%
%TO.N,GND*%
X117808000Y-91280000D03*
%TO.P,J2,5,Pin_5*%
%TO.N,6V*%
X117808000Y-88740000D03*
%TD*%
D24*
%TO.P,D1,1,K*%
%TO.N,6V*%
X149640000Y-92110000D03*
D25*
%TO.P,D1,2,A*%
%TO.N,/Cont+*%
X149640000Y-99730000D03*
%TD*%
D22*
%TO.P,JP3,1,A*%
%TO.N,/In+*%
X139400000Y-99650000D03*
%TO.P,JP3,2,B*%
%TO.N,/Cont+*%
X140700000Y-99650000D03*
%TD*%
D14*
%TO.P,TP3,1,1*%
%TO.N,Out*%
X121700000Y-98900000D03*
%TD*%
D13*
%TO.P,H2,1,1*%
%TO.N,GND*%
X119000000Y-117200000D03*
D12*
X119000000Y-117200000D03*
%TD*%
D13*
%TO.P,H3,1,1*%
%TO.N,GND*%
X119000000Y-78600000D03*
D12*
X119000000Y-78600000D03*
%TD*%
D30*
%TO.P,R3,1*%
%TO.N,/Cont-*%
X143200000Y-101760000D03*
%TO.P,R3,2*%
%TO.N,GND*%
X143200000Y-103660000D03*
%TD*%
D24*
%TO.P,D3,1,K*%
%TO.N,6V*%
X149630000Y-109660000D03*
D25*
%TO.P,D3,2,A*%
%TO.N,/Cont-*%
X149630000Y-102040000D03*
%TD*%
D22*
%TO.P,JP1,1,A*%
%TO.N,Net-(JP1-A)*%
X137750000Y-110500000D03*
%TO.P,JP1,2,B*%
%TO.N,GND*%
X139050000Y-110500000D03*
%TD*%
D31*
%TO.N,GND*%
X127670000Y-90400000D03*
X127320000Y-92620000D03*
%TO.N,-6V*%
X132270000Y-97700000D03*
%TO.N,6V*%
X123400000Y-100400000D03*
X121500000Y-95000000D03*
%TD*%
D32*
%TO.N,/XLR-*%
X155475000Y-102100000D02*
X156825001Y-102100000D01*
X156825001Y-102100000D02*
X157750001Y-101175000D01*
X157750001Y-101175000D02*
X164603199Y-101175000D01*
X164603199Y-101175000D02*
X166453199Y-99325000D01*
X166453199Y-99325000D02*
X169035000Y-99325000D01*
X169035000Y-99325000D02*
X169490000Y-99780000D01*
%TO.N,/XLR+*%
X155475000Y-99800000D02*
X156825001Y-99800000D01*
X156825001Y-99800000D02*
X157750001Y-100725000D01*
X157750001Y-100725000D02*
X164416801Y-100725000D01*
X164416801Y-100725000D02*
X165680000Y-99461801D01*
X165680000Y-99461801D02*
X165680000Y-95330000D01*
%TO.N,/Cont-*%
X152525000Y-102100000D02*
X152525000Y-102075000D01*
X149635000Y-102040000D02*
X149630000Y-102040000D01*
X152525000Y-102075000D02*
X151576000Y-101126000D01*
X151576000Y-101126000D02*
X150549000Y-101126000D01*
X150549000Y-101126000D02*
X149635000Y-102040000D01*
D33*
%TO.N,6V*%
X123400000Y-100400000D02*
X124535000Y-101535000D01*
X124535000Y-101535000D02*
X125365699Y-101535000D01*
X125365699Y-101535000D02*
X123817500Y-101535000D01*
X123817500Y-101535000D02*
X122852500Y-102500000D01*
D32*
%TO.N,/XLR+*%
X164090000Y-95180000D02*
X164000000Y-95270000D01*
%TO.N,/Cont+*%
X152200000Y-99680000D02*
X152050000Y-99680000D01*
%TO.N,GND*%
X127678000Y-91597500D02*
X127678000Y-92262000D01*
X127678000Y-90408000D02*
X127670000Y-90400000D01*
X127678000Y-91597500D02*
X127678000Y-90408000D01*
X127678000Y-92262000D02*
X127320000Y-92620000D01*
D33*
%TO.N,-6V*%
X136225000Y-97725000D02*
X137300000Y-96650000D01*
X132295000Y-97725000D02*
X132270000Y-97700000D01*
X134834301Y-97725000D02*
X136225000Y-97725000D01*
X117808000Y-93820000D02*
X117928000Y-93700000D01*
X134834301Y-97725000D02*
X132295000Y-97725000D01*
%TO.N,6V*%
X124478000Y-86710000D02*
X124478000Y-87072500D01*
X117808000Y-88740000D02*
X118490000Y-88740000D01*
X117808000Y-88740000D02*
X119838000Y-86710000D01*
X123350000Y-100450000D02*
X123400000Y-100400000D01*
X121500000Y-91750000D02*
X121500000Y-95000000D01*
X120750000Y-91000000D02*
X121500000Y-91750000D01*
X119838000Y-86710000D02*
X124478000Y-86710000D01*
D32*
X125350699Y-101550000D02*
X125365699Y-101535000D01*
D33*
X124478000Y-87072500D02*
X126728000Y-89322500D01*
X118490000Y-88740000D02*
X120750000Y-91000000D01*
D32*
%TO.N,Out*%
X121700000Y-98900000D02*
X117808000Y-98900000D01*
X125365699Y-98995000D02*
X121795000Y-98995000D01*
X121795000Y-98995000D02*
X121700000Y-98900000D01*
D33*
%TO.N,Net-(U1--)*%
X128678000Y-89272500D02*
X128628000Y-89322500D01*
X128678000Y-86710000D02*
X128678000Y-89272500D01*
X126378000Y-86710000D02*
X128678000Y-86710000D01*
D32*
%TO.N,Net-(R5-Pad1)*%
X122700000Y-106950000D02*
X123650000Y-107900000D01*
X123650000Y-107900000D02*
X127600000Y-107900000D01*
%TO.N,Net-(U2-RG2)*%
X122700000Y-105600000D02*
X122700000Y-105500000D01*
X125365699Y-104075000D02*
X124555000Y-104075000D01*
X123580000Y-105050000D02*
X122700000Y-105050000D01*
X124555000Y-104075000D02*
X123580000Y-105050000D01*
%TO.N,Net-(U2-RG1)*%
X130100000Y-107900000D02*
X133925000Y-104075000D01*
X133925000Y-104075000D02*
X134834301Y-104075000D01*
D33*
%TO.N,1.6V*%
X124052000Y-93400000D02*
X123500000Y-93952000D01*
X124052000Y-93400000D02*
X127600000Y-93400000D01*
X123500000Y-93952000D02*
X123500000Y-96900000D01*
X124325000Y-97725000D02*
X125365699Y-97725000D01*
X123500000Y-96900000D02*
X124325000Y-97725000D01*
X125854500Y-91597500D02*
X124052000Y-93400000D01*
X126728000Y-91597500D02*
X125854500Y-91597500D01*
X127600000Y-93400000D02*
X128628000Y-92372000D01*
X124052000Y-93400000D02*
X124152000Y-93500000D01*
X128628000Y-92372000D02*
X128628000Y-91597500D01*
D32*
%TO.N,/In+*%
X136239800Y-100265000D02*
X136649800Y-100675000D01*
X134834301Y-100265000D02*
X136239800Y-100265000D01*
X136649800Y-100675000D02*
X138375000Y-100675000D01*
X139400000Y-99650000D02*
X138375000Y-100675000D01*
X139400000Y-99650000D02*
X139400000Y-97100000D01*
%TO.N,/In-*%
X136239800Y-101535000D02*
X134834301Y-101535000D01*
X136649800Y-101125000D02*
X136239800Y-101535000D01*
X138375000Y-101125000D02*
X136649800Y-101125000D01*
X139400000Y-102150000D02*
X139400000Y-104700000D01*
X139400000Y-102150000D02*
X138375000Y-101125000D01*
%TO.N,Net-(JP1-A)*%
X132600000Y-107900000D02*
X135150000Y-107900000D01*
X135150000Y-107900000D02*
X137750000Y-110500000D01*
%TO.N,/Cont+*%
X142975000Y-100010000D02*
X143200000Y-100010000D01*
X140700000Y-99650000D02*
X141725000Y-100675000D01*
X141725000Y-100675000D02*
X142310000Y-100675000D01*
X148449470Y-100664999D02*
X148705001Y-100664999D01*
X144360001Y-100659999D02*
X145450001Y-100659999D01*
X143200000Y-100010000D02*
X143425000Y-100010000D01*
X145450001Y-100659999D02*
X146380000Y-99730000D01*
X147616280Y-100664999D02*
X148449470Y-100664999D01*
X142310000Y-100675000D02*
X142975000Y-100010000D01*
X148705001Y-100664999D02*
X149640000Y-99730000D01*
X146380000Y-99730000D02*
X147314999Y-100664999D01*
X144360000Y-100660000D02*
X144360001Y-100659999D01*
X140700000Y-99650000D02*
X140700000Y-97100000D01*
X143425000Y-100010000D02*
X144075000Y-100660000D01*
X147314999Y-100664999D02*
X147616280Y-100664999D01*
X144075000Y-100660000D02*
X144360000Y-100660000D01*
%TO.N,/Cont-*%
X143200000Y-101760000D02*
X143425000Y-101760000D01*
X148449470Y-101115001D02*
X148705001Y-101115001D01*
X144074999Y-101110001D02*
X145560001Y-101110001D01*
X147616280Y-101115001D02*
X148449470Y-101115001D01*
X148705001Y-101115001D02*
X149630000Y-102040000D01*
X146370000Y-102030000D02*
X147284999Y-101115001D01*
X141740000Y-101110000D02*
X142325000Y-101110000D01*
X142325000Y-101110000D02*
X142975000Y-101760000D01*
X147284999Y-101115001D02*
X147616280Y-101115001D01*
X146370000Y-101920000D02*
X146370000Y-102030000D01*
X145560001Y-101110001D02*
X146370000Y-101920000D01*
X142975000Y-101760000D02*
X143200000Y-101760000D01*
X143425000Y-101760000D02*
X144074999Y-101110001D01*
X140700000Y-102150000D02*
X141740000Y-101110000D01*
X140700000Y-102150000D02*
X140700000Y-104700000D01*
%TO.N,/Cont+*%
X152525000Y-99800000D02*
X151600000Y-100725000D01*
X151600000Y-100725000D02*
X150635000Y-100725000D01*
X150635000Y-100725000D02*
X149640000Y-99730000D01*
%TD*%
%TA.AperFunction,Conductor*%
%TO.N,GND*%
G36*
X117779588Y-118242330D02*
G01*
X117957670Y-118420412D01*
X118059300Y-118494251D01*
X116849443Y-119704107D01*
X116849444Y-119704108D01*
X117031815Y-119853777D01*
X117031829Y-119853787D01*
X117301401Y-120033909D01*
X117301419Y-120033920D01*
X117587359Y-120186759D01*
X117587364Y-120186761D01*
X117766444Y-120260939D01*
X117820847Y-120304780D01*
X117842912Y-120371074D01*
X117825633Y-120438774D01*
X117774495Y-120486384D01*
X117718991Y-120499500D01*
X115874500Y-120499500D01*
X115807461Y-120479815D01*
X115761706Y-120427011D01*
X115750500Y-120375500D01*
X115750500Y-118601719D01*
X115770185Y-118534680D01*
X115822989Y-118488925D01*
X115892147Y-118478981D01*
X115955703Y-118508006D01*
X115989061Y-118554267D01*
X116013235Y-118612628D01*
X116013240Y-118612640D01*
X116166079Y-118898580D01*
X116166090Y-118898598D01*
X116346212Y-119168170D01*
X116346222Y-119168184D01*
X116495890Y-119350554D01*
X116495891Y-119350555D01*
X117705748Y-118140698D01*
X117779588Y-118242330D01*
G37*
%TD.AperFunction*%
%TA.AperFunction,Conductor*%
G36*
X123513981Y-87480185D02*
G01*
X123552479Y-87519401D01*
X123635288Y-87653656D01*
X123759344Y-87777712D01*
X123908666Y-87869814D01*
X124075203Y-87924999D01*
X124177991Y-87935500D01*
X124228268Y-87935499D01*
X124295307Y-87955182D01*
X124315950Y-87971818D01*
X125891181Y-89547048D01*
X125924666Y-89608371D01*
X125927500Y-89634729D01*
X125927500Y-89900701D01*
X125930401Y-89937567D01*
X125930402Y-89937573D01*
X125976254Y-90095393D01*
X125976255Y-90095396D01*
X126059917Y-90236862D01*
X126059923Y-90236870D01*
X126176129Y-90353076D01*
X126176140Y-90353085D01*
X126176455Y-90353271D01*
X126176650Y-90353480D01*
X126182298Y-90357861D01*
X126181591Y-90358772D01*
X126224136Y-90404343D01*
X126236637Y-90473085D01*
X126209988Y-90537673D01*
X126182078Y-90561856D01*
X126182298Y-90562139D01*
X126177092Y-90566176D01*
X126176455Y-90566729D01*
X126176140Y-90566914D01*
X126176129Y-90566923D01*
X126059923Y-90683129D01*
X126059914Y-90683141D01*
X125999014Y-90786120D01*
X125947946Y-90833804D01*
X125892282Y-90847000D01*
X125780580Y-90847000D01*
X125635592Y-90875840D01*
X125635582Y-90875843D01*
X125499011Y-90932412D01*
X125498999Y-90932419D01*
X125469017Y-90952453D01*
X125469016Y-90952453D01*
X125376085Y-91014546D01*
X125376078Y-91014552D01*
X124491911Y-91898719D01*
X124430588Y-91932204D01*
X124384832Y-91933511D01*
X124170097Y-91899500D01*
X124170092Y-91899500D01*
X123933908Y-91899500D01*
X123933903Y-91899500D01*
X123700631Y-91936446D01*
X123476003Y-92009433D01*
X123265566Y-92116657D01*
X123184321Y-92175686D01*
X123074490Y-92255483D01*
X123074488Y-92255485D01*
X123074487Y-92255485D01*
X122907485Y-92422487D01*
X122907485Y-92422488D01*
X122907483Y-92422490D01*
X122849168Y-92502754D01*
X122768657Y-92613566D01*
X122661433Y-92824003D01*
X122588446Y-93048631D01*
X122551500Y-93281902D01*
X122551500Y-93518097D01*
X122588446Y-93751368D01*
X122661433Y-93975996D01*
X122735985Y-94122310D01*
X122749500Y-94178605D01*
X122749500Y-96973918D01*
X122749500Y-96973920D01*
X122749499Y-96973920D01*
X122778340Y-97118907D01*
X122778343Y-97118917D01*
X122834913Y-97255490D01*
X122834914Y-97255491D01*
X122834916Y-97255495D01*
X122854852Y-97285331D01*
X122878560Y-97320814D01*
X122917051Y-97378420D01*
X122917052Y-97378421D01*
X123721451Y-98182819D01*
X123754936Y-98244142D01*
X123749952Y-98313833D01*
X123708080Y-98369767D01*
X123642616Y-98394184D01*
X123633770Y-98394500D01*
X123202473Y-98394500D01*
X123135434Y-98374815D01*
X123091988Y-98326795D01*
X123082387Y-98307952D01*
X122983343Y-98113567D01*
X122844517Y-97922490D01*
X122677510Y-97755483D01*
X122486433Y-97616657D01*
X122465914Y-97606202D01*
X122275996Y-97509433D01*
X122051368Y-97436446D01*
X121818097Y-97399500D01*
X121818092Y-97399500D01*
X121581908Y-97399500D01*
X121581903Y-97399500D01*
X121348631Y-97436446D01*
X121124003Y-97509433D01*
X120913566Y-97616657D01*
X120809244Y-97692452D01*
X120722490Y-97755483D01*
X120722488Y-97755485D01*
X120722487Y-97755485D01*
X120555485Y-97922487D01*
X120555485Y-97922488D01*
X120555483Y-97922490D01*
X120530060Y-97957482D01*
X120416657Y-98113566D01*
X120385100Y-98175500D01*
X120358855Y-98227011D01*
X120356417Y-98231795D01*
X120308442Y-98282591D01*
X120245932Y-98299500D01*
X119282499Y-98299500D01*
X119215460Y-98279815D01*
X119169705Y-98227011D01*
X119158499Y-98175500D01*
X119158499Y-98002129D01*
X119158498Y-98002123D01*
X119158497Y-98002116D01*
X119152091Y-97942517D01*
X119148728Y-97933501D01*
X119101797Y-97807671D01*
X119101793Y-97807664D01*
X119015547Y-97692455D01*
X119015544Y-97692452D01*
X118900335Y-97606206D01*
X118900328Y-97606202D01*
X118765482Y-97555908D01*
X118765483Y-97555908D01*
X118705883Y-97549501D01*
X118705881Y-97549500D01*
X118705873Y-97549500D01*
X118705865Y-97549500D01*
X118695309Y-97549500D01*
X118628270Y-97529815D01*
X118607628Y-97513181D01*
X117937408Y-96842962D01*
X118000993Y-96825925D01*
X118115007Y-96760099D01*
X118208099Y-96667007D01*
X118273925Y-96552993D01*
X118290962Y-96489409D01*
X118923270Y-97121717D01*
X118923270Y-97121716D01*
X118962622Y-97067554D01*
X119059095Y-96878217D01*
X119124757Y-96676130D01*
X119124757Y-96676127D01*
X119158000Y-96466246D01*
X119158000Y-96253753D01*
X119124757Y-96043872D01*
X119124757Y-96043869D01*
X119059095Y-95841782D01*
X118962624Y-95652449D01*
X118923270Y-95598282D01*
X118923269Y-95598282D01*
X118290962Y-96230590D01*
X118273925Y-96167007D01*
X118208099Y-96052993D01*
X118115007Y-95959901D01*
X118000993Y-95894075D01*
X117937409Y-95877037D01*
X118569716Y-95244728D01*
X118515547Y-95205373D01*
X118515547Y-95205372D01*
X118506500Y-95200763D01*
X118455706Y-95152788D01*
X118438912Y-95084966D01*
X118461451Y-95018832D01*
X118506508Y-94979793D01*
X118515816Y-94975051D01*
X118609543Y-94906955D01*
X118687786Y-94850109D01*
X118687788Y-94850106D01*
X118687792Y-94850104D01*
X118838104Y-94699792D01*
X118838106Y-94699788D01*
X118838109Y-94699786D01*
X118963048Y-94527820D01*
X118963047Y-94527820D01*
X118963051Y-94527816D01*
X119059557Y-94338412D01*
X119125246Y-94136243D01*
X119158500Y-93926287D01*
X119158500Y-93713713D01*
X119125246Y-93503757D01*
X119059557Y-93301588D01*
X118963051Y-93112184D01*
X118963049Y-93112181D01*
X118963048Y-93112179D01*
X118838109Y-92940213D01*
X118687786Y-92789890D01*
X118515817Y-92664949D01*
X118506504Y-92660204D01*
X118455707Y-92612230D01*
X118438912Y-92544409D01*
X118461449Y-92478274D01*
X118506507Y-92439232D01*
X118515555Y-92434622D01*
X118569716Y-92395270D01*
X118569717Y-92395270D01*
X117937408Y-91762962D01*
X118000993Y-91745925D01*
X118115007Y-91680099D01*
X118208099Y-91587007D01*
X118273925Y-91472993D01*
X118290962Y-91409408D01*
X118923270Y-92041717D01*
X118923270Y-92041716D01*
X118962622Y-91987554D01*
X119059095Y-91798217D01*
X119124757Y-91596130D01*
X119124757Y-91596127D01*
X119158000Y-91386246D01*
X119158000Y-91173753D01*
X119124757Y-90963872D01*
X119124757Y-90963869D01*
X119059094Y-90761780D01*
X119008007Y-90661517D01*
X118995110Y-90592848D01*
X119021386Y-90528107D01*
X119078492Y-90487850D01*
X119148297Y-90484857D01*
X119206172Y-90517540D01*
X120162707Y-91474074D01*
X120162728Y-91474097D01*
X120713181Y-92024548D01*
X120746666Y-92085871D01*
X120749500Y-92112229D01*
X120749500Y-94695396D01*
X120740062Y-94742844D01*
X120730263Y-94766503D01*
X120730262Y-94766506D01*
X120730260Y-94766511D01*
X120699500Y-94921153D01*
X120699500Y-95078846D01*
X120730261Y-95233489D01*
X120730264Y-95233501D01*
X120790602Y-95379172D01*
X120790609Y-95379185D01*
X120878210Y-95510288D01*
X120878213Y-95510292D01*
X120989707Y-95621786D01*
X120989711Y-95621789D01*
X121120814Y-95709390D01*
X121120827Y-95709397D01*
X121243524Y-95760219D01*
X121266503Y-95769737D01*
X121421153Y-95800499D01*
X121421156Y-95800500D01*
X121421158Y-95800500D01*
X121578844Y-95800500D01*
X121578845Y-95800499D01*
X121733497Y-95769737D01*
X121879179Y-95709394D01*
X122010289Y-95621789D01*
X122121789Y-95510289D01*
X122209394Y-95379179D01*
X122269737Y-95233497D01*
X122300500Y-95078842D01*
X122300500Y-94921158D01*
X122300500Y-94921155D01*
X122300499Y-94921153D01*
X122269739Y-94766511D01*
X122269738Y-94766508D01*
X122269737Y-94766503D01*
X122259937Y-94742844D01*
X122250500Y-94695396D01*
X122250500Y-91676079D01*
X122221659Y-91531092D01*
X122221658Y-91531091D01*
X122221658Y-91531087D01*
X122215072Y-91515187D01*
X122165087Y-91394511D01*
X122165080Y-91394498D01*
X122082952Y-91271585D01*
X122073483Y-91262116D01*
X121978416Y-91167049D01*
X121793793Y-90982426D01*
X121224097Y-90412728D01*
X121224074Y-90412707D01*
X119298048Y-88486680D01*
X119264563Y-88425357D01*
X119269547Y-88355665D01*
X119298048Y-88311318D01*
X119684368Y-87924999D01*
X120112548Y-87496819D01*
X120173871Y-87463334D01*
X120200229Y-87460500D01*
X123446942Y-87460500D01*
X123513981Y-87480185D01*
G37*
%TD.AperFunction*%
%TA.AperFunction,Conductor*%
G36*
X127713981Y-87480185D02*
G01*
X127752479Y-87519401D01*
X127835288Y-87653656D01*
X127835289Y-87653657D01*
X127891181Y-87709549D01*
X127924666Y-87770872D01*
X127927500Y-87797230D01*
X127927500Y-88429030D01*
X127910232Y-88492150D01*
X127876257Y-88549599D01*
X127876254Y-88549606D01*
X127830402Y-88707426D01*
X127830401Y-88707432D01*
X127827500Y-88744298D01*
X127827500Y-89900701D01*
X127830401Y-89937567D01*
X127830402Y-89937573D01*
X127876254Y-90095393D01*
X127876255Y-90095396D01*
X127959917Y-90236862D01*
X127964702Y-90243031D01*
X127963018Y-90244336D01*
X127991246Y-90296031D01*
X127986262Y-90365723D01*
X127954234Y-90413461D01*
X127928000Y-90437702D01*
X127928000Y-90703184D01*
X127910733Y-90766304D01*
X127876254Y-90824605D01*
X127876254Y-90824606D01*
X127830402Y-90982426D01*
X127830401Y-90982432D01*
X127827500Y-91019298D01*
X127827500Y-91473500D01*
X127824949Y-91482185D01*
X127826238Y-91491147D01*
X127815259Y-91515187D01*
X127807815Y-91540539D01*
X127800974Y-91546466D01*
X127797213Y-91554703D01*
X127774978Y-91568992D01*
X127755011Y-91586294D01*
X127744496Y-91588581D01*
X127738435Y-91592477D01*
X127703500Y-91597500D01*
X127652500Y-91597500D01*
X127585461Y-91577815D01*
X127539706Y-91525011D01*
X127528500Y-91473500D01*
X127528500Y-91019313D01*
X127528499Y-91019298D01*
X127528125Y-91014548D01*
X127525598Y-90982431D01*
X127520205Y-90963869D01*
X127479745Y-90824606D01*
X127479745Y-90824605D01*
X127479744Y-90824603D01*
X127479744Y-90824602D01*
X127445267Y-90766304D01*
X127428000Y-90703184D01*
X127428000Y-90437702D01*
X127401765Y-90413461D01*
X127365887Y-90353507D01*
X127368118Y-90283673D01*
X127392533Y-90243988D01*
X127391298Y-90243031D01*
X127396075Y-90236870D01*
X127396081Y-90236865D01*
X127479744Y-90095398D01*
X127513505Y-89979191D01*
X127525597Y-89937573D01*
X127525598Y-89937567D01*
X127528499Y-89900701D01*
X127528500Y-89900694D01*
X127528500Y-88744306D01*
X127525598Y-88707431D01*
X127479744Y-88549602D01*
X127396081Y-88408135D01*
X127396079Y-88408133D01*
X127396076Y-88408129D01*
X127279870Y-88291923D01*
X127279862Y-88291917D01*
X127138396Y-88208255D01*
X127138393Y-88208254D01*
X126980573Y-88162402D01*
X126980567Y-88162401D01*
X126943701Y-88159500D01*
X126943694Y-88159500D01*
X126841545Y-88159500D01*
X126774506Y-88139815D01*
X126728751Y-88087011D01*
X126718807Y-88017853D01*
X126747832Y-87954297D01*
X126802541Y-87917794D01*
X126832698Y-87907800D01*
X126947334Y-87869814D01*
X127096656Y-87777712D01*
X127220712Y-87653656D01*
X127303519Y-87519402D01*
X127311106Y-87512578D01*
X127315345Y-87503297D01*
X127336644Y-87489608D01*
X127355467Y-87472679D01*
X127367102Y-87470034D01*
X127374123Y-87465523D01*
X127409058Y-87460500D01*
X127646942Y-87460500D01*
X127713981Y-87480185D01*
G37*
%TD.AperFunction*%
%TA.AperFunction,Conductor*%
G36*
X178415320Y-75370185D02*
G01*
X178461075Y-75422989D01*
X178471019Y-75492147D01*
X178441994Y-75555703D01*
X178395733Y-75589061D01*
X178337371Y-75613235D01*
X178337359Y-75613240D01*
X178051419Y-75766079D01*
X178051401Y-75766090D01*
X177781829Y-75946212D01*
X177781815Y-75946222D01*
X177599444Y-76095890D01*
X177599443Y-76095891D01*
X178809301Y-77305748D01*
X178707670Y-77379588D01*
X178529588Y-77557670D01*
X178455748Y-77659301D01*
X177245891Y-76449443D01*
X177245890Y-76449444D01*
X177096222Y-76631815D01*
X177096212Y-76631829D01*
X176916090Y-76901401D01*
X176916079Y-76901419D01*
X176763240Y-77187359D01*
X176763238Y-77187364D01*
X176639157Y-77486921D01*
X176545033Y-77797207D01*
X176545030Y-77797218D01*
X176481782Y-78115198D01*
X176481779Y-78115215D01*
X176450000Y-78437884D01*
X176450000Y-78762115D01*
X176481779Y-79084784D01*
X176481782Y-79084801D01*
X176545030Y-79402781D01*
X176545033Y-79402792D01*
X176639157Y-79713078D01*
X176763238Y-80012635D01*
X176763240Y-80012640D01*
X176916079Y-80298580D01*
X176916090Y-80298598D01*
X177096212Y-80568170D01*
X177096222Y-80568184D01*
X177245890Y-80750554D01*
X177245891Y-80750555D01*
X178455748Y-79540698D01*
X178529588Y-79642330D01*
X178707670Y-79820412D01*
X178809300Y-79894251D01*
X177599443Y-81104107D01*
X177599444Y-81104108D01*
X177781815Y-81253777D01*
X177781829Y-81253787D01*
X178051401Y-81433909D01*
X178051419Y-81433920D01*
X178337359Y-81586759D01*
X178337364Y-81586761D01*
X178636921Y-81710842D01*
X178947207Y-81804966D01*
X178947218Y-81804969D01*
X179265198Y-81868217D01*
X179265215Y-81868220D01*
X179587884Y-81900000D01*
X179912116Y-81900000D01*
X180234784Y-81868220D01*
X180234801Y-81868217D01*
X180552781Y-81804969D01*
X180552792Y-81804966D01*
X180863078Y-81710842D01*
X181162635Y-81586761D01*
X181162640Y-81586759D01*
X181448580Y-81433920D01*
X181448598Y-81433909D01*
X181718170Y-81253787D01*
X181718183Y-81253777D01*
X181900554Y-81104108D01*
X181900554Y-81104107D01*
X180690698Y-79894251D01*
X180792330Y-79820412D01*
X180970412Y-79642330D01*
X181044251Y-79540698D01*
X182254107Y-80750554D01*
X182254108Y-80750554D01*
X182403777Y-80568183D01*
X182403787Y-80568170D01*
X182583909Y-80298598D01*
X182583920Y-80298580D01*
X182736759Y-80012640D01*
X182736761Y-80012635D01*
X182770939Y-79930124D01*
X182814780Y-79875721D01*
X182881074Y-79853656D01*
X182948773Y-79870935D01*
X182996384Y-79922072D01*
X183009500Y-79977577D01*
X183009500Y-115822422D01*
X182989815Y-115889461D01*
X182937011Y-115935216D01*
X182867853Y-115945160D01*
X182804297Y-115916135D01*
X182770939Y-115869875D01*
X182736761Y-115787364D01*
X182736759Y-115787359D01*
X182583920Y-115501419D01*
X182583909Y-115501401D01*
X182403787Y-115231829D01*
X182403777Y-115231815D01*
X182254108Y-115049444D01*
X182254107Y-115049443D01*
X181044250Y-116259299D01*
X180970412Y-116157670D01*
X180792330Y-115979588D01*
X180690697Y-115905747D01*
X181900555Y-114695891D01*
X181900554Y-114695890D01*
X181718184Y-114546222D01*
X181718170Y-114546212D01*
X181448598Y-114366090D01*
X181448580Y-114366079D01*
X181162640Y-114213240D01*
X181162635Y-114213238D01*
X180863078Y-114089157D01*
X180552792Y-113995033D01*
X180552781Y-113995030D01*
X180234801Y-113931782D01*
X180234784Y-113931779D01*
X179912116Y-113900000D01*
X179587884Y-113900000D01*
X179265215Y-113931779D01*
X179265198Y-113931782D01*
X178947218Y-113995030D01*
X178947207Y-113995033D01*
X178636921Y-114089157D01*
X178337364Y-114213238D01*
X178337359Y-114213240D01*
X178051419Y-114366079D01*
X178051401Y-114366090D01*
X177781829Y-114546212D01*
X177781815Y-114546222D01*
X177599444Y-114695890D01*
X177599443Y-114695891D01*
X178809301Y-115905748D01*
X178707670Y-115979588D01*
X178529588Y-116157670D01*
X178455748Y-116259301D01*
X177245891Y-115049443D01*
X177245890Y-115049444D01*
X177096222Y-115231815D01*
X177096212Y-115231829D01*
X176916090Y-115501401D01*
X176916079Y-115501419D01*
X176763240Y-115787359D01*
X176763238Y-115787364D01*
X176639157Y-116086921D01*
X176545033Y-116397207D01*
X176545030Y-116397218D01*
X176481782Y-116715198D01*
X176481779Y-116715215D01*
X176450000Y-117037884D01*
X176450000Y-117362115D01*
X176481779Y-117684784D01*
X176481782Y-117684801D01*
X176545030Y-118002781D01*
X176545033Y-118002792D01*
X176639157Y-118313078D01*
X176763238Y-118612635D01*
X176763240Y-118612640D01*
X176916079Y-118898580D01*
X176916090Y-118898598D01*
X177096212Y-119168170D01*
X177096222Y-119168184D01*
X177245890Y-119350554D01*
X177245891Y-119350555D01*
X178455748Y-118140698D01*
X178529588Y-118242330D01*
X178707670Y-118420412D01*
X178809300Y-118494251D01*
X177599443Y-119704107D01*
X177599444Y-119704108D01*
X177781815Y-119853777D01*
X177781829Y-119853787D01*
X178051401Y-120033909D01*
X178051419Y-120033920D01*
X178337359Y-120186759D01*
X178337364Y-120186761D01*
X178516444Y-120260939D01*
X178570847Y-120304780D01*
X178592912Y-120371074D01*
X178575633Y-120438774D01*
X178524495Y-120486384D01*
X178468991Y-120499500D01*
X120281009Y-120499500D01*
X120213970Y-120479815D01*
X120168215Y-120427011D01*
X120158271Y-120357853D01*
X120187296Y-120294297D01*
X120233556Y-120260939D01*
X120412635Y-120186761D01*
X120412640Y-120186759D01*
X120698580Y-120033920D01*
X120698598Y-120033909D01*
X120968170Y-119853787D01*
X120968183Y-119853777D01*
X121150554Y-119704108D01*
X121150554Y-119704107D01*
X119940698Y-118494251D01*
X120042330Y-118420412D01*
X120220412Y-118242330D01*
X120294251Y-118140698D01*
X121504107Y-119350554D01*
X121504108Y-119350554D01*
X121653777Y-119168183D01*
X121653787Y-119168170D01*
X121833909Y-118898598D01*
X121833920Y-118898580D01*
X121986759Y-118612640D01*
X121986761Y-118612635D01*
X122110842Y-118313078D01*
X122204966Y-118002792D01*
X122204969Y-118002781D01*
X122268217Y-117684801D01*
X122268220Y-117684784D01*
X122300000Y-117362115D01*
X122300000Y-117037884D01*
X122268220Y-116715215D01*
X122268217Y-116715198D01*
X122204969Y-116397218D01*
X122204966Y-116397207D01*
X122110842Y-116086921D01*
X121986761Y-115787364D01*
X121986759Y-115787359D01*
X121833920Y-115501419D01*
X121833909Y-115501401D01*
X121653787Y-115231829D01*
X121653777Y-115231816D01*
X121539576Y-115092662D01*
X121504107Y-115049443D01*
X120294250Y-116259300D01*
X120220412Y-116157670D01*
X120042330Y-115979588D01*
X119940697Y-115905747D01*
X120828397Y-115018048D01*
X123439500Y-115018048D01*
X123439500Y-115781951D01*
X123457167Y-115916135D01*
X123471334Y-116023744D01*
X123471335Y-116023746D01*
X123534456Y-116259320D01*
X123534459Y-116259330D01*
X123627786Y-116484640D01*
X123627791Y-116484651D01*
X123749727Y-116695848D01*
X123749738Y-116695864D01*
X123898199Y-116889343D01*
X123898205Y-116889350D01*
X124070649Y-117061794D01*
X124070655Y-117061799D01*
X124264144Y-117210268D01*
X124264151Y-117210272D01*
X124475348Y-117332208D01*
X124475353Y-117332210D01*
X124475356Y-117332212D01*
X124700679Y-117425544D01*
X124936256Y-117488666D01*
X125178056Y-117520500D01*
X125178063Y-117520500D01*
X125421937Y-117520500D01*
X125421944Y-117520500D01*
X125663744Y-117488666D01*
X125899321Y-117425544D01*
X126124644Y-117332212D01*
X126335856Y-117210268D01*
X126529345Y-117061799D01*
X126701799Y-116889345D01*
X126850268Y-116695856D01*
X126972212Y-116484644D01*
X127065544Y-116259321D01*
X127128666Y-116023744D01*
X127160500Y-115781944D01*
X127160500Y-115018056D01*
X127160499Y-115018048D01*
X133039500Y-115018048D01*
X133039500Y-115781951D01*
X133057167Y-115916135D01*
X133071334Y-116023744D01*
X133071335Y-116023746D01*
X133134456Y-116259320D01*
X133134459Y-116259330D01*
X133227786Y-116484640D01*
X133227791Y-116484651D01*
X133349727Y-116695848D01*
X133349738Y-116695864D01*
X133498199Y-116889343D01*
X133498205Y-116889350D01*
X133670649Y-117061794D01*
X133670655Y-117061799D01*
X133864144Y-117210268D01*
X133864151Y-117210272D01*
X134075348Y-117332208D01*
X134075353Y-117332210D01*
X134075356Y-117332212D01*
X134300679Y-117425544D01*
X134536256Y-117488666D01*
X134778056Y-117520500D01*
X134778063Y-117520500D01*
X135021937Y-117520500D01*
X135021944Y-117520500D01*
X135263744Y-117488666D01*
X135499321Y-117425544D01*
X135724644Y-117332212D01*
X135935856Y-117210268D01*
X136129345Y-117061799D01*
X136301799Y-116889345D01*
X136429702Y-116722658D01*
X161880893Y-116722658D01*
X161963828Y-116782914D01*
X162174197Y-116890102D01*
X162398752Y-116963065D01*
X162398751Y-116963065D01*
X162631948Y-117000000D01*
X162868052Y-117000000D01*
X163101247Y-116963065D01*
X163243310Y-116916906D01*
X163243311Y-116916906D01*
X163325804Y-116890101D01*
X163536163Y-116782918D01*
X163536169Y-116782914D01*
X163619104Y-116722658D01*
X163619105Y-116722658D01*
X162750000Y-115853554D01*
X161880893Y-116722658D01*
X136429702Y-116722658D01*
X136450268Y-116695856D01*
X136572212Y-116484644D01*
X136665544Y-116259321D01*
X136728666Y-116023744D01*
X136760500Y-115781944D01*
X136760500Y-115381947D01*
X161250000Y-115381947D01*
X161250000Y-115618052D01*
X161286934Y-115851247D01*
X161359897Y-116075802D01*
X161467087Y-116286174D01*
X161527338Y-116369104D01*
X161527340Y-116369105D01*
X162396446Y-115500000D01*
X162396445Y-115499999D01*
X163103554Y-115499999D01*
X163103554Y-115500000D01*
X163972658Y-116369105D01*
X163972658Y-116369104D01*
X164032914Y-116286169D01*
X164032918Y-116286163D01*
X164140102Y-116075802D01*
X164213065Y-115851247D01*
X164250000Y-115618052D01*
X164250000Y-115381947D01*
X164213065Y-115148752D01*
X164140102Y-114924197D01*
X164077331Y-114801001D01*
X164032914Y-114713828D01*
X163972658Y-114630894D01*
X163972658Y-114630893D01*
X163103554Y-115499999D01*
X162396445Y-115499999D01*
X161527340Y-114630894D01*
X161467084Y-114713830D01*
X161359897Y-114924197D01*
X161286934Y-115148752D01*
X161250000Y-115381947D01*
X136760500Y-115381947D01*
X136760500Y-115018056D01*
X136728666Y-114776256D01*
X136665544Y-114540679D01*
X136665540Y-114540669D01*
X136595697Y-114372052D01*
X136572214Y-114315360D01*
X136572208Y-114315348D01*
X136550264Y-114277340D01*
X161880894Y-114277340D01*
X162750000Y-115146446D01*
X162750001Y-115146446D01*
X163619105Y-114277340D01*
X163619104Y-114277338D01*
X163536174Y-114217087D01*
X163325802Y-114109897D01*
X163101247Y-114036934D01*
X163101248Y-114036934D01*
X162868052Y-114000000D01*
X162631948Y-114000000D01*
X162398752Y-114036934D01*
X162174197Y-114109897D01*
X161963830Y-114217084D01*
X161880894Y-114277340D01*
X136550264Y-114277340D01*
X136457931Y-114117416D01*
X136450268Y-114104144D01*
X136301799Y-113910655D01*
X136301794Y-113910649D01*
X136129350Y-113738205D01*
X136129343Y-113738199D01*
X135935864Y-113589738D01*
X135935862Y-113589736D01*
X135935856Y-113589732D01*
X135935851Y-113589729D01*
X135935848Y-113589727D01*
X135724651Y-113467791D01*
X135724640Y-113467786D01*
X135499330Y-113374459D01*
X135499323Y-113374457D01*
X135499321Y-113374456D01*
X135263744Y-113311334D01*
X135223333Y-113306013D01*
X135021951Y-113279500D01*
X135021944Y-113279500D01*
X134778056Y-113279500D01*
X134778048Y-113279500D01*
X134547896Y-113309801D01*
X134536256Y-113311334D01*
X134300679Y-113374456D01*
X134300669Y-113374459D01*
X134075359Y-113467786D01*
X134075348Y-113467791D01*
X133864151Y-113589727D01*
X133864135Y-113589738D01*
X133670656Y-113738199D01*
X133670649Y-113738205D01*
X133498205Y-113910649D01*
X133498199Y-113910656D01*
X133349738Y-114104135D01*
X133349727Y-114104151D01*
X133227791Y-114315348D01*
X133227786Y-114315359D01*
X133134459Y-114540669D01*
X133134456Y-114540679D01*
X133110284Y-114630893D01*
X133071335Y-114776253D01*
X133071333Y-114776264D01*
X133039500Y-115018048D01*
X127160499Y-115018048D01*
X127128666Y-114776256D01*
X127065544Y-114540679D01*
X126972212Y-114315356D01*
X126972210Y-114315353D01*
X126972208Y-114315348D01*
X126857931Y-114117416D01*
X126850268Y-114104144D01*
X126701799Y-113910655D01*
X126701794Y-113910649D01*
X126529350Y-113738205D01*
X126529343Y-113738199D01*
X126335864Y-113589738D01*
X126335862Y-113589736D01*
X126335856Y-113589732D01*
X126335851Y-113589729D01*
X126335848Y-113589727D01*
X126124651Y-113467791D01*
X126124640Y-113467786D01*
X125899330Y-113374459D01*
X125899323Y-113374457D01*
X125899321Y-113374456D01*
X125663744Y-113311334D01*
X125623333Y-113306013D01*
X125421951Y-113279500D01*
X125421944Y-113279500D01*
X125178056Y-113279500D01*
X125178048Y-113279500D01*
X124947896Y-113309801D01*
X124936256Y-113311334D01*
X124700679Y-113374456D01*
X124700669Y-113374459D01*
X124475359Y-113467786D01*
X124475348Y-113467791D01*
X124264151Y-113589727D01*
X124264135Y-113589738D01*
X124070656Y-113738199D01*
X124070649Y-113738205D01*
X123898205Y-113910649D01*
X123898199Y-113910656D01*
X123749738Y-114104135D01*
X123749727Y-114104151D01*
X123627791Y-114315348D01*
X123627786Y-114315359D01*
X123534459Y-114540669D01*
X123534456Y-114540679D01*
X123510284Y-114630893D01*
X123471335Y-114776253D01*
X123471333Y-114776264D01*
X123439500Y-115018048D01*
X120828397Y-115018048D01*
X121150555Y-114695891D01*
X121150554Y-114695890D01*
X120968184Y-114546222D01*
X120968170Y-114546212D01*
X120698598Y-114366090D01*
X120698580Y-114366079D01*
X120412640Y-114213240D01*
X120412635Y-114213238D01*
X120113078Y-114089157D01*
X119802792Y-113995033D01*
X119802781Y-113995030D01*
X119484801Y-113931782D01*
X119484784Y-113931779D01*
X119162116Y-113900000D01*
X118837884Y-113900000D01*
X118515215Y-113931779D01*
X118515198Y-113931782D01*
X118197218Y-113995030D01*
X118197207Y-113995033D01*
X117886921Y-114089157D01*
X117587364Y-114213238D01*
X117587359Y-114213240D01*
X117301419Y-114366079D01*
X117301401Y-114366090D01*
X117031829Y-114546212D01*
X117031815Y-114546222D01*
X116849444Y-114695890D01*
X116849443Y-114695891D01*
X118059301Y-115905748D01*
X117957670Y-115979588D01*
X117779588Y-116157670D01*
X117705748Y-116259301D01*
X116495891Y-115049443D01*
X116495890Y-115049444D01*
X116346222Y-115231815D01*
X116346212Y-115231829D01*
X116166090Y-115501401D01*
X116166079Y-115501419D01*
X116013240Y-115787359D01*
X116013238Y-115787364D01*
X115989061Y-115845733D01*
X115945220Y-115900136D01*
X115878925Y-115922201D01*
X115811226Y-115904922D01*
X115763616Y-115853784D01*
X115750500Y-115798280D01*
X115750500Y-102994986D01*
X118940001Y-102994986D01*
X118950494Y-103097697D01*
X119005641Y-103264119D01*
X119005643Y-103264124D01*
X119097684Y-103413345D01*
X119221654Y-103537315D01*
X119370875Y-103629356D01*
X119370880Y-103629358D01*
X119537302Y-103684505D01*
X119537309Y-103684506D01*
X119640019Y-103694999D01*
X119897499Y-103694999D01*
X120397500Y-103694999D01*
X120654972Y-103694999D01*
X120654986Y-103694998D01*
X120757697Y-103684505D01*
X120924119Y-103629358D01*
X120924124Y-103629356D01*
X121073345Y-103537315D01*
X121197315Y-103413345D01*
X121289356Y-103264124D01*
X121289358Y-103264119D01*
X121344505Y-103097697D01*
X121344506Y-103097690D01*
X121354999Y-102994986D01*
X121355000Y-102994973D01*
X121355000Y-102750000D01*
X120397500Y-102750000D01*
X120397500Y-103694999D01*
X119897499Y-103694999D01*
X119897500Y-103694998D01*
X119897500Y-102750000D01*
X118940001Y-102750000D01*
X118940001Y-102994986D01*
X115750500Y-102994986D01*
X115750500Y-102005013D01*
X118940000Y-102005013D01*
X118940000Y-102250000D01*
X119897500Y-102250000D01*
X120397500Y-102250000D01*
X121354999Y-102250000D01*
X121354999Y-102005028D01*
X121354998Y-102005013D01*
X121344505Y-101902302D01*
X121289358Y-101735880D01*
X121289356Y-101735875D01*
X121197315Y-101586654D01*
X121073345Y-101462684D01*
X120924124Y-101370643D01*
X120924119Y-101370641D01*
X120757697Y-101315494D01*
X120757690Y-101315493D01*
X120654986Y-101305000D01*
X120397500Y-101305000D01*
X120397500Y-102250000D01*
X119897500Y-102250000D01*
X119897500Y-101305000D01*
X119640029Y-101305000D01*
X119640012Y-101305001D01*
X119537302Y-101315494D01*
X119370880Y-101370641D01*
X119370875Y-101370643D01*
X119221654Y-101462684D01*
X119097684Y-101586654D01*
X119005643Y-101735875D01*
X119005641Y-101735880D01*
X118950494Y-101902302D01*
X118950493Y-101902309D01*
X118940000Y-102005013D01*
X115750500Y-102005013D01*
X115750500Y-88633713D01*
X116457500Y-88633713D01*
X116457500Y-88846286D01*
X116490753Y-89056239D01*
X116556444Y-89258414D01*
X116652951Y-89447820D01*
X116777890Y-89619786D01*
X116928213Y-89770109D01*
X117100179Y-89895048D01*
X117100181Y-89895049D01*
X117100184Y-89895051D01*
X117109493Y-89899794D01*
X117160290Y-89947766D01*
X117177087Y-90015587D01*
X117154552Y-90081722D01*
X117109505Y-90120760D01*
X117100446Y-90125376D01*
X117100440Y-90125380D01*
X117046282Y-90164727D01*
X117046282Y-90164728D01*
X117678591Y-90797037D01*
X117615007Y-90814075D01*
X117500993Y-90879901D01*
X117407901Y-90972993D01*
X117342075Y-91087007D01*
X117325037Y-91150591D01*
X116692728Y-90518282D01*
X116692727Y-90518282D01*
X116653380Y-90572439D01*
X116556904Y-90761782D01*
X116491242Y-90963869D01*
X116491242Y-90963872D01*
X116458000Y-91173753D01*
X116458000Y-91386246D01*
X116491242Y-91596127D01*
X116491242Y-91596130D01*
X116556904Y-91798217D01*
X116653375Y-91987550D01*
X116692728Y-92041716D01*
X117325037Y-91409408D01*
X117342075Y-91472993D01*
X117407901Y-91587007D01*
X117500993Y-91680099D01*
X117615007Y-91745925D01*
X117678590Y-91762962D01*
X117046282Y-92395269D01*
X117046282Y-92395270D01*
X117100452Y-92434626D01*
X117100451Y-92434626D01*
X117109495Y-92439234D01*
X117160292Y-92487208D01*
X117177087Y-92555029D01*
X117154550Y-92621164D01*
X117109499Y-92660202D01*
X117100182Y-92664949D01*
X116928213Y-92789890D01*
X116928212Y-92789892D01*
X116777894Y-92940209D01*
X116777890Y-92940213D01*
X116652951Y-93112179D01*
X116556444Y-93301585D01*
X116490753Y-93503760D01*
X116457500Y-93713713D01*
X116457500Y-93926286D01*
X116488443Y-94121656D01*
X116490754Y-94136243D01*
X116511994Y-94201614D01*
X116556444Y-94338414D01*
X116652951Y-94527820D01*
X116777890Y-94699786D01*
X116928213Y-94850109D01*
X117100179Y-94975048D01*
X117100181Y-94975049D01*
X117100184Y-94975051D01*
X117109493Y-94979794D01*
X117160290Y-95027766D01*
X117177087Y-95095587D01*
X117154552Y-95161722D01*
X117109505Y-95200760D01*
X117100446Y-95205376D01*
X117100440Y-95205380D01*
X117046282Y-95244727D01*
X117046282Y-95244728D01*
X117678591Y-95877037D01*
X117615007Y-95894075D01*
X117500993Y-95959901D01*
X117407901Y-96052993D01*
X117342075Y-96167007D01*
X117325037Y-96230591D01*
X116692728Y-95598282D01*
X116692727Y-95598282D01*
X116653380Y-95652439D01*
X116556904Y-95841782D01*
X116491242Y-96043869D01*
X116491242Y-96043872D01*
X116458000Y-96253753D01*
X116458000Y-96466246D01*
X116491242Y-96676127D01*
X116491242Y-96676130D01*
X116556904Y-96878217D01*
X116653375Y-97067550D01*
X116692728Y-97121716D01*
X117325037Y-96489408D01*
X117342075Y-96552993D01*
X117407901Y-96667007D01*
X117500993Y-96760099D01*
X117615007Y-96825925D01*
X117678590Y-96842962D01*
X117008370Y-97513181D01*
X116947047Y-97546666D01*
X116920698Y-97549500D01*
X116910134Y-97549500D01*
X116910123Y-97549501D01*
X116850516Y-97555908D01*
X116715671Y-97606202D01*
X116715664Y-97606206D01*
X116600455Y-97692452D01*
X116600452Y-97692455D01*
X116514206Y-97807664D01*
X116514202Y-97807671D01*
X116463908Y-97942517D01*
X116460023Y-97978656D01*
X116457501Y-98002123D01*
X116457500Y-98002135D01*
X116457500Y-99797870D01*
X116457501Y-99797876D01*
X116463908Y-99857483D01*
X116514202Y-99992328D01*
X116514206Y-99992335D01*
X116600452Y-100107544D01*
X116600455Y-100107547D01*
X116715664Y-100193793D01*
X116715671Y-100193797D01*
X116850517Y-100244091D01*
X116850516Y-100244091D01*
X116857444Y-100244835D01*
X116910127Y-100250500D01*
X118705872Y-100250499D01*
X118765483Y-100244091D01*
X118900331Y-100193796D01*
X119015546Y-100107546D01*
X119101796Y-99992331D01*
X119152091Y-99857483D01*
X119158500Y-99797873D01*
X119158500Y-99624500D01*
X119178185Y-99557461D01*
X119230989Y-99511706D01*
X119282500Y-99500500D01*
X120245932Y-99500500D01*
X120312971Y-99520185D01*
X120356416Y-99568203D01*
X120416657Y-99686433D01*
X120555483Y-99877510D01*
X120722490Y-100044517D01*
X120913567Y-100183343D01*
X121007054Y-100230977D01*
X121124003Y-100290566D01*
X121124005Y-100290566D01*
X121124008Y-100290568D01*
X121218154Y-100321158D01*
X121348631Y-100363553D01*
X121581903Y-100400500D01*
X121581908Y-100400500D01*
X121818097Y-100400500D01*
X122051368Y-100363553D01*
X122275992Y-100290568D01*
X122419206Y-100217596D01*
X122487874Y-100204701D01*
X122552615Y-100230977D01*
X122592872Y-100288084D01*
X122599500Y-100328082D01*
X122599500Y-100376083D01*
X122599500Y-100523917D01*
X122599500Y-100523919D01*
X122599499Y-100523919D01*
X122628340Y-100668906D01*
X122628342Y-100668912D01*
X122676979Y-100786334D01*
X122684916Y-100805494D01*
X122767048Y-100928416D01*
X122767052Y-100928420D01*
X122767052Y-100928421D01*
X122871578Y-101032947D01*
X122871581Y-101032949D01*
X122871584Y-101032952D01*
X122938104Y-101077398D01*
X122982908Y-101131009D01*
X122991616Y-101200334D01*
X122961462Y-101263362D01*
X122902020Y-101300081D01*
X122869213Y-101304500D01*
X122344998Y-101304500D01*
X122344980Y-101304501D01*
X122242203Y-101315000D01*
X122242200Y-101315001D01*
X122075668Y-101370185D01*
X122075663Y-101370187D01*
X121926342Y-101462289D01*
X121802289Y-101586342D01*
X121710187Y-101735663D01*
X121710185Y-101735668D01*
X121683094Y-101817425D01*
X121655001Y-101902203D01*
X121655001Y-101902204D01*
X121655000Y-101902204D01*
X121644500Y-102004983D01*
X121644500Y-102995001D01*
X121644501Y-102995019D01*
X121655000Y-103097796D01*
X121655001Y-103097799D01*
X121703852Y-103245220D01*
X121710186Y-103264334D01*
X121802288Y-103413656D01*
X121926344Y-103537712D01*
X122075666Y-103629814D01*
X122242203Y-103684999D01*
X122344991Y-103695500D01*
X123360008Y-103695499D01*
X123360016Y-103695498D01*
X123360019Y-103695498D01*
X123428358Y-103688517D01*
X123462797Y-103684999D01*
X123629334Y-103629814D01*
X123748381Y-103556385D01*
X123815771Y-103537945D01*
X123882435Y-103558867D01*
X123927204Y-103612509D01*
X123937202Y-103670165D01*
X123936277Y-103684039D01*
X123934608Y-103688517D01*
X123928199Y-103748127D01*
X123928199Y-103805330D01*
X123927925Y-103809444D01*
X123917240Y-103838523D01*
X123908514Y-103868242D01*
X123904483Y-103873244D01*
X123903828Y-103875027D01*
X123901827Y-103876540D01*
X123891880Y-103888884D01*
X123669578Y-104111185D01*
X123608255Y-104144670D01*
X123538563Y-104139686D01*
X123516802Y-104129044D01*
X123507229Y-104123139D01*
X123494334Y-104115186D01*
X123327797Y-104060001D01*
X123327795Y-104060000D01*
X123225010Y-104049500D01*
X122174998Y-104049500D01*
X122174980Y-104049501D01*
X122072203Y-104060000D01*
X122072200Y-104060001D01*
X121905668Y-104115185D01*
X121905663Y-104115187D01*
X121756342Y-104207289D01*
X121632289Y-104331342D01*
X121540187Y-104480663D01*
X121540186Y-104480666D01*
X121485001Y-104647203D01*
X121485001Y-104647204D01*
X121485000Y-104647204D01*
X121474500Y-104749983D01*
X121474500Y-105350001D01*
X121474501Y-105350019D01*
X121485000Y-105452796D01*
X121485001Y-105452799D01*
X121540185Y-105619331D01*
X121540187Y-105619336D01*
X121572592Y-105671873D01*
X121631014Y-105766591D01*
X121632289Y-105768657D01*
X121756346Y-105892714D01*
X121759182Y-105894463D01*
X121760717Y-105896170D01*
X121762011Y-105897193D01*
X121761836Y-105897414D01*
X121805905Y-105946411D01*
X121817126Y-106015374D01*
X121789282Y-106079456D01*
X121759182Y-106105537D01*
X121756346Y-106107285D01*
X121632289Y-106231342D01*
X121540187Y-106380663D01*
X121540186Y-106380666D01*
X121485001Y-106547203D01*
X121485001Y-106547204D01*
X121485000Y-106547204D01*
X121474500Y-106649983D01*
X121474500Y-107250001D01*
X121474501Y-107250019D01*
X121485000Y-107352796D01*
X121485001Y-107352797D01*
X121540186Y-107519334D01*
X121632288Y-107668656D01*
X121756344Y-107792712D01*
X121905666Y-107884814D01*
X122072203Y-107939999D01*
X122174991Y-107950500D01*
X122799902Y-107950499D01*
X122866941Y-107970183D01*
X122887583Y-107986818D01*
X123165139Y-108264374D01*
X123165149Y-108264385D01*
X123169479Y-108268715D01*
X123169480Y-108268716D01*
X123281284Y-108380520D01*
X123343089Y-108416202D01*
X123368095Y-108430639D01*
X123368097Y-108430641D01*
X123406151Y-108452611D01*
X123418215Y-108459577D01*
X123570943Y-108500501D01*
X123570946Y-108500501D01*
X123736653Y-108500501D01*
X123736669Y-108500500D01*
X126258164Y-108500500D01*
X126325203Y-108520185D01*
X126368648Y-108568204D01*
X126402185Y-108634023D01*
X126531752Y-108812358D01*
X126531756Y-108812363D01*
X126687636Y-108968243D01*
X126687641Y-108968247D01*
X126789610Y-109042331D01*
X126865978Y-109097815D01*
X126994375Y-109163237D01*
X127062393Y-109197895D01*
X127062396Y-109197896D01*
X127109440Y-109213181D01*
X127272049Y-109266015D01*
X127489778Y-109300500D01*
X127489779Y-109300500D01*
X127710221Y-109300500D01*
X127710222Y-109300500D01*
X127927951Y-109266015D01*
X128137606Y-109197895D01*
X128334022Y-109097815D01*
X128512365Y-108968242D01*
X128668242Y-108812365D01*
X128749682Y-108700270D01*
X128805011Y-108657606D01*
X128874624Y-108651627D01*
X128936420Y-108684232D01*
X128950313Y-108700265D01*
X129024799Y-108802787D01*
X129031758Y-108812365D01*
X129187636Y-108968243D01*
X129187641Y-108968247D01*
X129289610Y-109042331D01*
X129365978Y-109097815D01*
X129494375Y-109163237D01*
X129562393Y-109197895D01*
X129562396Y-109197896D01*
X129609440Y-109213181D01*
X129772049Y-109266015D01*
X129989778Y-109300500D01*
X129989779Y-109300500D01*
X130210221Y-109300500D01*
X130210222Y-109300500D01*
X130427951Y-109266015D01*
X130637606Y-109197895D01*
X130834022Y-109097815D01*
X131012365Y-108968242D01*
X131033401Y-108947205D01*
X131094721Y-108913720D01*
X131164413Y-108918703D01*
X131220348Y-108960574D01*
X131237264Y-108991552D01*
X131256203Y-109042329D01*
X131256206Y-109042335D01*
X131342452Y-109157544D01*
X131342455Y-109157547D01*
X131457664Y-109243793D01*
X131457671Y-109243797D01*
X131592517Y-109294091D01*
X131592516Y-109294091D01*
X131599444Y-109294835D01*
X131652127Y-109300500D01*
X133547872Y-109300499D01*
X133607483Y-109294091D01*
X133742331Y-109243796D01*
X133857546Y-109157546D01*
X133943796Y-109042331D01*
X133994091Y-108907483D01*
X134000500Y-108847873D01*
X134000500Y-108624500D01*
X134020185Y-108557461D01*
X134072989Y-108511706D01*
X134124500Y-108500500D01*
X134849903Y-108500500D01*
X134916942Y-108520185D01*
X134937584Y-108536819D01*
X136713181Y-110312416D01*
X136746666Y-110373739D01*
X136749500Y-110400097D01*
X136749500Y-111297870D01*
X136749501Y-111297876D01*
X136755908Y-111357483D01*
X136806202Y-111492328D01*
X136806206Y-111492335D01*
X136892452Y-111607544D01*
X136892455Y-111607547D01*
X137007664Y-111693793D01*
X137007671Y-111693797D01*
X137142517Y-111744091D01*
X137142516Y-111744091D01*
X137149444Y-111744835D01*
X137202127Y-111750500D01*
X138297872Y-111750499D01*
X138357483Y-111744091D01*
X138357489Y-111744088D01*
X138365025Y-111742308D01*
X138365321Y-111743561D01*
X138427063Y-111739142D01*
X138440655Y-111743132D01*
X138442627Y-111743598D01*
X138502155Y-111749999D01*
X138502172Y-111750000D01*
X138800000Y-111750000D01*
X139300000Y-111750000D01*
X139597828Y-111750000D01*
X139597844Y-111749999D01*
X139657372Y-111743598D01*
X139657379Y-111743596D01*
X139792086Y-111693354D01*
X139792093Y-111693350D01*
X139907187Y-111607190D01*
X139907190Y-111607187D01*
X139993350Y-111492093D01*
X139993354Y-111492086D01*
X140043596Y-111357379D01*
X140043598Y-111357372D01*
X140049999Y-111297844D01*
X140050000Y-111297827D01*
X140050000Y-110750000D01*
X139300000Y-110750000D01*
X139300000Y-111750000D01*
X138800000Y-111750000D01*
X138800000Y-110250000D01*
X139300000Y-110250000D01*
X140050000Y-110250000D01*
X140050000Y-109702172D01*
X140049999Y-109702155D01*
X140043598Y-109642627D01*
X140043597Y-109642623D01*
X140022519Y-109586110D01*
X140022518Y-109586108D01*
X140008174Y-109547648D01*
X145069500Y-109547648D01*
X145069500Y-109752351D01*
X145101522Y-109954534D01*
X145164781Y-110149223D01*
X145257715Y-110331613D01*
X145378028Y-110497213D01*
X145522786Y-110641971D01*
X145605872Y-110702335D01*
X145688390Y-110762287D01*
X145796838Y-110817544D01*
X145870776Y-110855218D01*
X145870778Y-110855218D01*
X145870781Y-110855220D01*
X145975137Y-110889127D01*
X146065465Y-110918477D01*
X146166557Y-110934488D01*
X146267648Y-110950500D01*
X146267649Y-110950500D01*
X146472351Y-110950500D01*
X146472352Y-110950500D01*
X146674534Y-110918477D01*
X146869219Y-110855220D01*
X147051610Y-110762287D01*
X147144590Y-110694732D01*
X147217213Y-110641971D01*
X147217215Y-110641968D01*
X147217219Y-110641966D01*
X147361966Y-110497219D01*
X147361968Y-110497215D01*
X147361971Y-110497213D01*
X147414732Y-110424590D01*
X147482287Y-110331610D01*
X147575220Y-110149219D01*
X147638477Y-109954534D01*
X147670500Y-109752352D01*
X147670500Y-109547648D01*
X147638477Y-109345465D01*
X147595495Y-109213181D01*
X147575220Y-109150781D01*
X147575218Y-109150778D01*
X147575218Y-109150776D01*
X147482287Y-108968390D01*
X147419297Y-108881691D01*
X147419296Y-108881688D01*
X147368763Y-108812135D01*
X148329500Y-108812135D01*
X148329500Y-110507870D01*
X148329501Y-110507876D01*
X148335908Y-110567483D01*
X148386202Y-110702328D01*
X148386206Y-110702335D01*
X148472452Y-110817544D01*
X148472455Y-110817547D01*
X148587664Y-110903793D01*
X148587671Y-110903797D01*
X148722517Y-110954091D01*
X148722516Y-110954091D01*
X148729444Y-110954835D01*
X148782127Y-110960500D01*
X150477872Y-110960499D01*
X150537483Y-110954091D01*
X150672331Y-110903796D01*
X150787546Y-110817546D01*
X150873796Y-110702331D01*
X150924091Y-110567483D01*
X150930500Y-110507873D01*
X150930499Y-108812128D01*
X150924091Y-108752517D01*
X150898622Y-108684232D01*
X150873797Y-108617671D01*
X150873793Y-108617664D01*
X150787547Y-108502455D01*
X150787544Y-108502452D01*
X150672335Y-108416206D01*
X150672328Y-108416202D01*
X150537482Y-108365908D01*
X150537483Y-108365908D01*
X150477883Y-108359501D01*
X150477881Y-108359500D01*
X150477873Y-108359500D01*
X150477864Y-108359500D01*
X148782129Y-108359500D01*
X148782123Y-108359501D01*
X148722516Y-108365908D01*
X148587671Y-108416202D01*
X148587664Y-108416206D01*
X148472455Y-108502452D01*
X148472452Y-108502455D01*
X148386206Y-108617664D01*
X148386202Y-108617671D01*
X148335908Y-108752517D01*
X148330504Y-108802786D01*
X148329501Y-108812123D01*
X148329500Y-108812135D01*
X147368763Y-108812135D01*
X147361971Y-108802787D01*
X147361967Y-108802782D01*
X147217213Y-108658028D01*
X147051613Y-108537715D01*
X147051612Y-108537714D01*
X147051610Y-108537713D01*
X146994653Y-108508691D01*
X146869223Y-108444781D01*
X146674534Y-108381522D01*
X146499995Y-108353878D01*
X146472352Y-108349500D01*
X146267648Y-108349500D01*
X146243329Y-108353351D01*
X146065465Y-108381522D01*
X145870776Y-108444781D01*
X145688386Y-108537715D01*
X145522786Y-108658028D01*
X145378028Y-108802786D01*
X145257715Y-108968386D01*
X145164781Y-109150776D01*
X145101522Y-109345465D01*
X145069500Y-109547648D01*
X140008174Y-109547648D01*
X139993354Y-109507913D01*
X139993350Y-109507906D01*
X139907190Y-109392812D01*
X139907187Y-109392809D01*
X139792093Y-109306649D01*
X139792086Y-109306645D01*
X139657379Y-109256403D01*
X139657372Y-109256401D01*
X139597844Y-109250000D01*
X139300000Y-109250000D01*
X139300000Y-110250000D01*
X138800000Y-110250000D01*
X138800000Y-109250000D01*
X138502155Y-109250000D01*
X138442624Y-109256401D01*
X138435073Y-109258186D01*
X138434684Y-109256542D01*
X138374348Y-109260853D01*
X138357614Y-109255939D01*
X138357483Y-109255908D01*
X138297883Y-109249501D01*
X138297881Y-109249500D01*
X138297873Y-109249500D01*
X138297865Y-109249500D01*
X137400097Y-109249500D01*
X137333058Y-109229815D01*
X137312416Y-109213181D01*
X135637590Y-107538355D01*
X135637588Y-107538352D01*
X135518717Y-107419481D01*
X135518709Y-107419475D01*
X135403218Y-107352797D01*
X135403217Y-107352796D01*
X135388152Y-107344099D01*
X135381785Y-107340423D01*
X135229057Y-107299499D01*
X135070943Y-107299499D01*
X135063347Y-107299499D01*
X135063331Y-107299500D01*
X134124499Y-107299500D01*
X134057460Y-107279815D01*
X134011705Y-107227011D01*
X134000499Y-107175500D01*
X134000499Y-106952129D01*
X134000498Y-106952123D01*
X133994091Y-106892516D01*
X133943797Y-106757671D01*
X133943793Y-106757664D01*
X133857547Y-106642455D01*
X133857544Y-106642452D01*
X133742335Y-106556206D01*
X133742328Y-106556202D01*
X133607482Y-106505908D01*
X133607483Y-106505908D01*
X133547883Y-106499501D01*
X133547881Y-106499500D01*
X133547873Y-106499500D01*
X133547865Y-106499500D01*
X132649096Y-106499500D01*
X132582057Y-106479815D01*
X132536302Y-106427011D01*
X132526358Y-106357853D01*
X132555383Y-106294297D01*
X132561415Y-106287819D01*
X132867690Y-105981544D01*
X133192235Y-105656998D01*
X133253556Y-105623515D01*
X133323247Y-105628499D01*
X133379181Y-105670370D01*
X133400354Y-105724185D01*
X133401425Y-105723932D01*
X133403184Y-105731379D01*
X133403204Y-105731428D01*
X133403209Y-105731483D01*
X133453503Y-105866328D01*
X133453507Y-105866335D01*
X133539753Y-105981544D01*
X133539756Y-105981547D01*
X133654965Y-106067793D01*
X133654972Y-106067797D01*
X133789818Y-106118091D01*
X133789817Y-106118091D01*
X133796745Y-106118835D01*
X133849428Y-106124500D01*
X135819173Y-106124499D01*
X135878784Y-106118091D01*
X136013632Y-106067796D01*
X136128847Y-105981546D01*
X136215097Y-105866331D01*
X136265392Y-105731483D01*
X136271801Y-105671873D01*
X136271800Y-105018128D01*
X136265392Y-104958517D01*
X136215097Y-104823669D01*
X136185633Y-104784311D01*
X136161216Y-104718848D01*
X136176067Y-104650575D01*
X136185634Y-104635688D01*
X136215097Y-104596331D01*
X136265392Y-104461483D01*
X136271801Y-104401873D01*
X136271800Y-103748128D01*
X136265392Y-103688517D01*
X136264079Y-103684998D01*
X136215098Y-103553671D01*
X136215096Y-103553668D01*
X136203151Y-103537712D01*
X136185633Y-103514310D01*
X136161216Y-103448848D01*
X136176067Y-103380575D01*
X136185634Y-103365688D01*
X136189871Y-103360028D01*
X136215097Y-103326331D01*
X136265392Y-103191483D01*
X136271801Y-103131873D01*
X136271800Y-102478128D01*
X136265392Y-102418517D01*
X136221708Y-102301396D01*
X136216725Y-102231706D01*
X136250210Y-102170383D01*
X136311533Y-102136898D01*
X136317561Y-102135847D01*
X136318852Y-102135501D01*
X136318857Y-102135501D01*
X136471585Y-102094577D01*
X136531460Y-102060008D01*
X136608516Y-102015520D01*
X136720320Y-101903716D01*
X136720321Y-101903714D01*
X136862218Y-101761817D01*
X136923541Y-101728334D01*
X136949898Y-101725500D01*
X138074903Y-101725500D01*
X138141942Y-101745185D01*
X138162584Y-101761819D01*
X138363181Y-101962416D01*
X138396666Y-102023739D01*
X138399500Y-102050097D01*
X138399500Y-102947870D01*
X138399501Y-102947876D01*
X138405908Y-103007483D01*
X138456202Y-103142328D01*
X138456206Y-103142335D01*
X138542452Y-103257544D01*
X138542455Y-103257547D01*
X138633540Y-103325734D01*
X138675411Y-103381668D01*
X138680395Y-103451359D01*
X138646909Y-103512682D01*
X138633540Y-103524266D01*
X138542455Y-103592452D01*
X138542452Y-103592455D01*
X138456206Y-103707664D01*
X138456202Y-103707671D01*
X138405908Y-103842517D01*
X138399501Y-103902116D01*
X138399500Y-103902135D01*
X138399500Y-105497870D01*
X138399501Y-105497876D01*
X138405908Y-105557483D01*
X138456202Y-105692328D01*
X138456206Y-105692335D01*
X138542452Y-105807544D01*
X138542455Y-105807547D01*
X138657664Y-105893793D01*
X138657671Y-105893797D01*
X138792517Y-105944091D01*
X138792516Y-105944091D01*
X138799444Y-105944835D01*
X138852127Y-105950500D01*
X139947872Y-105950499D01*
X140007483Y-105944091D01*
X140007485Y-105944090D01*
X140007487Y-105944090D01*
X140015031Y-105942308D01*
X140015377Y-105943775D01*
X140076342Y-105939408D01*
X140091378Y-105943822D01*
X140092513Y-105944089D01*
X140092517Y-105944091D01*
X140152127Y-105950500D01*
X141247872Y-105950499D01*
X141307483Y-105944091D01*
X141442331Y-105893796D01*
X141557546Y-105807546D01*
X141643796Y-105692331D01*
X141694091Y-105557483D01*
X141700500Y-105497873D01*
X141700499Y-103959986D01*
X141975001Y-103959986D01*
X141985494Y-104062697D01*
X142040641Y-104229119D01*
X142040643Y-104229124D01*
X142132684Y-104378345D01*
X142256654Y-104502315D01*
X142405875Y-104594356D01*
X142405880Y-104594358D01*
X142572302Y-104649505D01*
X142572309Y-104649506D01*
X142675019Y-104659999D01*
X142949999Y-104659999D01*
X143450000Y-104659999D01*
X143724972Y-104659999D01*
X143724986Y-104659998D01*
X143827697Y-104649505D01*
X143994119Y-104594358D01*
X143994124Y-104594356D01*
X144143345Y-104502315D01*
X144267315Y-104378345D01*
X144359356Y-104229124D01*
X144359358Y-104229119D01*
X144414505Y-104062697D01*
X144414506Y-104062690D01*
X144424999Y-103959986D01*
X144425000Y-103959973D01*
X144425000Y-103910000D01*
X143450000Y-103910000D01*
X143450000Y-104659999D01*
X142949999Y-104659999D01*
X142950000Y-104659998D01*
X142950000Y-103910000D01*
X141975001Y-103910000D01*
X141975001Y-103959986D01*
X141700499Y-103959986D01*
X141700499Y-103902128D01*
X141699075Y-103888884D01*
X141697249Y-103871890D01*
X141694091Y-103842516D01*
X141643797Y-103707671D01*
X141643793Y-103707664D01*
X141557547Y-103592456D01*
X141557548Y-103592456D01*
X141557546Y-103592454D01*
X141466457Y-103524265D01*
X141424588Y-103468333D01*
X141419604Y-103398641D01*
X141453089Y-103337318D01*
X141466452Y-103325738D01*
X141557546Y-103257546D01*
X141643796Y-103142331D01*
X141694091Y-103007483D01*
X141700500Y-102947873D01*
X141700499Y-102050095D01*
X141709145Y-102020649D01*
X141715667Y-101990669D01*
X141719419Y-101985655D01*
X141720183Y-101983057D01*
X141736813Y-101962420D01*
X141762821Y-101936412D01*
X141824142Y-101902929D01*
X141893834Y-101907913D01*
X141949767Y-101949785D01*
X141974184Y-102015249D01*
X141974500Y-102024092D01*
X141974500Y-102059999D01*
X141974501Y-102060007D01*
X141985000Y-102162796D01*
X141985001Y-102162799D01*
X142040185Y-102329331D01*
X142040186Y-102329334D01*
X142132288Y-102478656D01*
X142256344Y-102602712D01*
X142259628Y-102604737D01*
X142259653Y-102604753D01*
X142261445Y-102606746D01*
X142262011Y-102607193D01*
X142261934Y-102607289D01*
X142306379Y-102656699D01*
X142317603Y-102725661D01*
X142289761Y-102789744D01*
X142259665Y-102815826D01*
X142256660Y-102817679D01*
X142256655Y-102817683D01*
X142132684Y-102941654D01*
X142040643Y-103090875D01*
X142040641Y-103090880D01*
X141985494Y-103257302D01*
X141985493Y-103257309D01*
X141975000Y-103360013D01*
X141975000Y-103410000D01*
X144424999Y-103410000D01*
X144424999Y-103360028D01*
X144424998Y-103360013D01*
X144414505Y-103257302D01*
X144359358Y-103090880D01*
X144359356Y-103090875D01*
X144267315Y-102941654D01*
X144143344Y-102817683D01*
X144143341Y-102817681D01*
X144140339Y-102815829D01*
X144138713Y-102814021D01*
X144137677Y-102813202D01*
X144137817Y-102813024D01*
X144093617Y-102763880D01*
X144082397Y-102694917D01*
X144110243Y-102630836D01*
X144140344Y-102604754D01*
X144143656Y-102602712D01*
X144267712Y-102478656D01*
X144359814Y-102329334D01*
X144414999Y-102162797D01*
X144425500Y-102060009D01*
X144425499Y-101834500D01*
X144445183Y-101767462D01*
X144497987Y-101721707D01*
X144549499Y-101710501D01*
X144945500Y-101710501D01*
X145012539Y-101730186D01*
X145058294Y-101782990D01*
X145069500Y-101834501D01*
X145069500Y-102877870D01*
X145069501Y-102877876D01*
X145075908Y-102937483D01*
X145126202Y-103072328D01*
X145126206Y-103072335D01*
X145212452Y-103187544D01*
X145212455Y-103187547D01*
X145327664Y-103273793D01*
X145327671Y-103273797D01*
X145462517Y-103324091D01*
X145462516Y-103324091D01*
X145469444Y-103324835D01*
X145522127Y-103330500D01*
X147217872Y-103330499D01*
X147277483Y-103324091D01*
X147412331Y-103273796D01*
X147527546Y-103187546D01*
X147613796Y-103072331D01*
X147664091Y-102937483D01*
X147670500Y-102877873D01*
X147670499Y-101839500D01*
X147690183Y-101772462D01*
X147742987Y-101726707D01*
X147794499Y-101715501D01*
X148219500Y-101715501D01*
X148286539Y-101735186D01*
X148332294Y-101787990D01*
X148342238Y-101857148D01*
X148341976Y-101858873D01*
X148329500Y-101937648D01*
X148329500Y-101937649D01*
X148329500Y-102142351D01*
X148361522Y-102344534D01*
X148424781Y-102539223D01*
X148459463Y-102607289D01*
X148510296Y-102707054D01*
X148517715Y-102721613D01*
X148638028Y-102887213D01*
X148782786Y-103031971D01*
X148934687Y-103142331D01*
X148948390Y-103152287D01*
X149064607Y-103211503D01*
X149130776Y-103245218D01*
X149130778Y-103245218D01*
X149130781Y-103245220D01*
X149188962Y-103264124D01*
X149325465Y-103308477D01*
X149424047Y-103324091D01*
X149527648Y-103340500D01*
X149527649Y-103340500D01*
X149732351Y-103340500D01*
X149732352Y-103340500D01*
X149934534Y-103308477D01*
X150129219Y-103245220D01*
X150311610Y-103152287D01*
X150404590Y-103084732D01*
X150477213Y-103031971D01*
X150477215Y-103031968D01*
X150477219Y-103031966D01*
X150621966Y-102887219D01*
X150621968Y-102887215D01*
X150621971Y-102887213D01*
X150692785Y-102789744D01*
X150742287Y-102721610D01*
X150835220Y-102539219D01*
X150898477Y-102344534D01*
X150930500Y-102142352D01*
X150930500Y-101937648D01*
X150919769Y-101869897D01*
X150922164Y-101851357D01*
X150919504Y-101832853D01*
X150926549Y-101817425D01*
X150928723Y-101800605D01*
X150940762Y-101786302D01*
X150948529Y-101769297D01*
X150962796Y-101760127D01*
X150973719Y-101747153D01*
X150991579Y-101741630D01*
X151007307Y-101731523D01*
X151039010Y-101726964D01*
X151040471Y-101726513D01*
X151042242Y-101726500D01*
X151275903Y-101726500D01*
X151342942Y-101746185D01*
X151363584Y-101762819D01*
X151413181Y-101812416D01*
X151446666Y-101873739D01*
X151449500Y-101900097D01*
X151449500Y-102800001D01*
X151449501Y-102800019D01*
X151460000Y-102902796D01*
X151460001Y-102902799D01*
X151515185Y-103069331D01*
X151515187Y-103069336D01*
X151532676Y-103097690D01*
X151607288Y-103218656D01*
X151731344Y-103342712D01*
X151880666Y-103434814D01*
X152047203Y-103489999D01*
X152149991Y-103500500D01*
X152900008Y-103500499D01*
X152900016Y-103500498D01*
X152900019Y-103500498D01*
X152956302Y-103494748D01*
X153002797Y-103489999D01*
X153169334Y-103434814D01*
X153318656Y-103342712D01*
X153442712Y-103218656D01*
X153534814Y-103069334D01*
X153589999Y-102902797D01*
X153600500Y-102800009D01*
X153600499Y-101399992D01*
X153596693Y-101362738D01*
X153589999Y-101297203D01*
X153589998Y-101297200D01*
X153578785Y-101263362D01*
X153534814Y-101130666D01*
X153463529Y-101015094D01*
X153445090Y-100947704D01*
X153463530Y-100884904D01*
X153534814Y-100769334D01*
X153589999Y-100602797D01*
X153600500Y-100500009D01*
X153600499Y-99099992D01*
X153600498Y-99099983D01*
X154399500Y-99099983D01*
X154399500Y-100500001D01*
X154399501Y-100500018D01*
X154410000Y-100602796D01*
X154410001Y-100602799D01*
X154465185Y-100769331D01*
X154465189Y-100769340D01*
X154536469Y-100884904D01*
X154554909Y-100952296D01*
X154536469Y-101015096D01*
X154465189Y-101130659D01*
X154465185Y-101130668D01*
X154456476Y-101156951D01*
X154410001Y-101297203D01*
X154410001Y-101297204D01*
X154410000Y-101297204D01*
X154399500Y-101399983D01*
X154399500Y-102800001D01*
X154399501Y-102800018D01*
X154410000Y-102902796D01*
X154410001Y-102902799D01*
X154465185Y-103069331D01*
X154465187Y-103069336D01*
X154482676Y-103097690D01*
X154557288Y-103218656D01*
X154681344Y-103342712D01*
X154830666Y-103434814D01*
X154997203Y-103489999D01*
X155099991Y-103500500D01*
X155850008Y-103500499D01*
X155850016Y-103500498D01*
X155850019Y-103500498D01*
X155906302Y-103494748D01*
X155952797Y-103489999D01*
X156119334Y-103434814D01*
X156268656Y-103342712D01*
X156392712Y-103218656D01*
X156484814Y-103069334D01*
X156539999Y-102902797D01*
X156543534Y-102868193D01*
X156549286Y-102811897D01*
X156550280Y-102809459D01*
X156549906Y-102806853D01*
X156563408Y-102777287D01*
X156575683Y-102747205D01*
X156577837Y-102745692D01*
X156578931Y-102743297D01*
X156606272Y-102725725D01*
X156632864Y-102707054D01*
X156636175Y-102706508D01*
X156637709Y-102705523D01*
X156672644Y-102700500D01*
X156738332Y-102700500D01*
X156738348Y-102700501D01*
X156745944Y-102700501D01*
X156904055Y-102700501D01*
X156904058Y-102700501D01*
X157056786Y-102659577D01*
X157107148Y-102630500D01*
X157193717Y-102580520D01*
X157305521Y-102468716D01*
X157305521Y-102468714D01*
X157315725Y-102458511D01*
X157315728Y-102458506D01*
X157962418Y-101811819D01*
X158023741Y-101778334D01*
X158050099Y-101775500D01*
X164516530Y-101775500D01*
X164516546Y-101775501D01*
X164524142Y-101775501D01*
X164682253Y-101775501D01*
X164682256Y-101775501D01*
X164834984Y-101734577D01*
X164885103Y-101705639D01*
X164971915Y-101655520D01*
X165083719Y-101543716D01*
X165083719Y-101543714D01*
X165093927Y-101533507D01*
X165093928Y-101533504D01*
X166665615Y-99961819D01*
X166726938Y-99928334D01*
X166753296Y-99925500D01*
X167433080Y-99925500D01*
X167500119Y-99945185D01*
X167545874Y-99997989D01*
X167556019Y-100033314D01*
X167572874Y-100161340D01*
X167627057Y-100363553D01*
X167639050Y-100408312D01*
X167639053Y-100408322D01*
X167736894Y-100644531D01*
X167736899Y-100644542D01*
X167864734Y-100865957D01*
X167864745Y-100865973D01*
X168020388Y-101068811D01*
X168020394Y-101068818D01*
X168201181Y-101249605D01*
X168201188Y-101249611D01*
X168294049Y-101320866D01*
X168404035Y-101405261D01*
X168404042Y-101405265D01*
X168625457Y-101533100D01*
X168625462Y-101533102D01*
X168625465Y-101533104D01*
X168861687Y-101630950D01*
X169108660Y-101697126D01*
X169362157Y-101730500D01*
X169362164Y-101730500D01*
X169617836Y-101730500D01*
X169617843Y-101730500D01*
X169871340Y-101697126D01*
X170118313Y-101630950D01*
X170354535Y-101533104D01*
X170575965Y-101405261D01*
X170778813Y-101249610D01*
X170959610Y-101068813D01*
X171115261Y-100865965D01*
X171243104Y-100644535D01*
X171340950Y-100408313D01*
X171407126Y-100161340D01*
X171440500Y-99907843D01*
X171440500Y-99652157D01*
X171407126Y-99398660D01*
X171340950Y-99151687D01*
X171243104Y-98915465D01*
X171243102Y-98915462D01*
X171243100Y-98915457D01*
X171115265Y-98694042D01*
X171115261Y-98694035D01*
X171021969Y-98572455D01*
X170959611Y-98491188D01*
X170959605Y-98491181D01*
X170778818Y-98310394D01*
X170778811Y-98310388D01*
X170575973Y-98154745D01*
X170575971Y-98154743D01*
X170575965Y-98154739D01*
X170575960Y-98154736D01*
X170575957Y-98154734D01*
X170354542Y-98026899D01*
X170354531Y-98026894D01*
X170118322Y-97929053D01*
X170118315Y-97929051D01*
X170118313Y-97929050D01*
X169871340Y-97862874D01*
X169815007Y-97855457D01*
X169617850Y-97829500D01*
X169617843Y-97829500D01*
X169362157Y-97829500D01*
X169362149Y-97829500D01*
X169136826Y-97859165D01*
X169108660Y-97862874D01*
X168886181Y-97922487D01*
X168861687Y-97929050D01*
X168861677Y-97929053D01*
X168625468Y-98026894D01*
X168625457Y-98026899D01*
X168404042Y-98154734D01*
X168404026Y-98154745D01*
X168201188Y-98310388D01*
X168201181Y-98310394D01*
X168020394Y-98491181D01*
X168020388Y-98491188D01*
X167878588Y-98675986D01*
X167822160Y-98717189D01*
X167780212Y-98724500D01*
X166404500Y-98724500D01*
X166337461Y-98704815D01*
X166291706Y-98652011D01*
X166280500Y-98600500D01*
X166280500Y-97542370D01*
X166300185Y-97475331D01*
X166352989Y-97429576D01*
X166372402Y-97422596D01*
X166388845Y-97418191D01*
X166388857Y-97418185D01*
X166388860Y-97418185D01*
X166655336Y-97307808D01*
X166655339Y-97307806D01*
X166655345Y-97307804D01*
X166905156Y-97163575D01*
X167134004Y-96987974D01*
X167164836Y-96957142D01*
X167205052Y-96916927D01*
X167337969Y-96784009D01*
X167337974Y-96784004D01*
X167513575Y-96555156D01*
X167657804Y-96305345D01*
X167683829Y-96242516D01*
X167768185Y-96038860D01*
X167768185Y-96038857D01*
X167768191Y-96038845D01*
X167842849Y-95760217D01*
X167880500Y-95474228D01*
X167880500Y-95185796D01*
X171100000Y-95185796D01*
X171100000Y-95474203D01*
X171137643Y-95760118D01*
X171212283Y-96038682D01*
X171322644Y-96305116D01*
X171322648Y-96305126D01*
X171466838Y-96554872D01*
X171577438Y-96699007D01*
X172584152Y-95692293D01*
X172591049Y-95708942D01*
X172678599Y-95839970D01*
X172790030Y-95951401D01*
X172921058Y-96038951D01*
X172937705Y-96045846D01*
X171930991Y-97052560D01*
X172075128Y-97163161D01*
X172324873Y-97307351D01*
X172324883Y-97307355D01*
X172591317Y-97417716D01*
X172869881Y-97492356D01*
X173155796Y-97529999D01*
X173155811Y-97530000D01*
X173444189Y-97530000D01*
X173444203Y-97529999D01*
X173730118Y-97492356D01*
X174008682Y-97417716D01*
X174275116Y-97307355D01*
X174275126Y-97307351D01*
X174524870Y-97163161D01*
X174524887Y-97163150D01*
X174669007Y-97052561D01*
X174669007Y-97052559D01*
X173662294Y-96045846D01*
X173678942Y-96038951D01*
X173809970Y-95951401D01*
X173921401Y-95839970D01*
X174008951Y-95708942D01*
X174015846Y-95692294D01*
X175022559Y-96699007D01*
X175022561Y-96699007D01*
X175133150Y-96554887D01*
X175133161Y-96554870D01*
X175277351Y-96305126D01*
X175277355Y-96305116D01*
X175387716Y-96038682D01*
X175462356Y-95760118D01*
X175499999Y-95474203D01*
X175500000Y-95474189D01*
X175500000Y-95185810D01*
X175499999Y-95185796D01*
X175462356Y-94899881D01*
X175387716Y-94621317D01*
X175277355Y-94354883D01*
X175277351Y-94354873D01*
X175133161Y-94105128D01*
X175022560Y-93960991D01*
X174015846Y-94967705D01*
X174008951Y-94951058D01*
X173921401Y-94820030D01*
X173809970Y-94708599D01*
X173678942Y-94621049D01*
X173662292Y-94614152D01*
X174669007Y-93607438D01*
X174524872Y-93496838D01*
X174275126Y-93352648D01*
X174275116Y-93352644D01*
X174008682Y-93242283D01*
X173730118Y-93167643D01*
X173444203Y-93130000D01*
X173155796Y-93130000D01*
X172869881Y-93167643D01*
X172591317Y-93242283D01*
X172324883Y-93352644D01*
X172324873Y-93352648D01*
X172075123Y-93496841D01*
X171930991Y-93607436D01*
X171930991Y-93607438D01*
X172937706Y-94614153D01*
X172921058Y-94621049D01*
X172790030Y-94708599D01*
X172678599Y-94820030D01*
X172591049Y-94951058D01*
X172584153Y-94967706D01*
X171577438Y-93960991D01*
X171577436Y-93960991D01*
X171466841Y-94105123D01*
X171322648Y-94354873D01*
X171322644Y-94354883D01*
X171212283Y-94621317D01*
X171137643Y-94899881D01*
X171100000Y-95185796D01*
X167880500Y-95185796D01*
X167880500Y-95185772D01*
X167842849Y-94899783D01*
X167768191Y-94621155D01*
X167768186Y-94621145D01*
X167768185Y-94621139D01*
X167657808Y-94354663D01*
X167657800Y-94354647D01*
X167513579Y-94104851D01*
X167513575Y-94104844D01*
X167337974Y-93875996D01*
X167337969Y-93875990D01*
X167134009Y-93672030D01*
X167134002Y-93672024D01*
X166905164Y-93496431D01*
X166905162Y-93496429D01*
X166905156Y-93496425D01*
X166905151Y-93496422D01*
X166905148Y-93496420D01*
X166655352Y-93352199D01*
X166655336Y-93352191D01*
X166388860Y-93241814D01*
X166388848Y-93241810D01*
X166388845Y-93241809D01*
X166110217Y-93167151D01*
X166110211Y-93167150D01*
X166110206Y-93167149D01*
X165824238Y-93129501D01*
X165824233Y-93129500D01*
X165824228Y-93129500D01*
X165535772Y-93129500D01*
X165535766Y-93129500D01*
X165535761Y-93129501D01*
X165249793Y-93167149D01*
X165249786Y-93167150D01*
X165249783Y-93167151D01*
X165044012Y-93222287D01*
X164971155Y-93241809D01*
X164971139Y-93241814D01*
X164704663Y-93352191D01*
X164704647Y-93352199D01*
X164454851Y-93496420D01*
X164454835Y-93496431D01*
X164225997Y-93672024D01*
X164225990Y-93672030D01*
X164022030Y-93875990D01*
X164022024Y-93875997D01*
X163846431Y-94104835D01*
X163846420Y-94104851D01*
X163702199Y-94354647D01*
X163702191Y-94354663D01*
X163591814Y-94621139D01*
X163591810Y-94621152D01*
X163518607Y-94894345D01*
X163506219Y-94924251D01*
X163440424Y-95038211D01*
X163440423Y-95038215D01*
X163399499Y-95190943D01*
X163399499Y-95190945D01*
X163399499Y-95349054D01*
X163399498Y-95349054D01*
X163440423Y-95501787D01*
X163440424Y-95501788D01*
X163483409Y-95576240D01*
X163498961Y-95622054D01*
X163510460Y-95709394D01*
X163517151Y-95760217D01*
X163591809Y-96038844D01*
X163591814Y-96038860D01*
X163702191Y-96305336D01*
X163702199Y-96305352D01*
X163846420Y-96555148D01*
X163846431Y-96555164D01*
X164022024Y-96784002D01*
X164022030Y-96784009D01*
X164225990Y-96987969D01*
X164225997Y-96987975D01*
X164329707Y-97067554D01*
X164454844Y-97163575D01*
X164454851Y-97163579D01*
X164704647Y-97307800D01*
X164704663Y-97307808D01*
X164971139Y-97418185D01*
X164971145Y-97418186D01*
X164971155Y-97418191D01*
X164987594Y-97422595D01*
X165047253Y-97458959D01*
X165077783Y-97521806D01*
X165079500Y-97542370D01*
X165079500Y-99161704D01*
X165059815Y-99228743D01*
X165043181Y-99249385D01*
X164204385Y-100088181D01*
X164143062Y-100121666D01*
X164116704Y-100124500D01*
X158050099Y-100124500D01*
X157983060Y-100104815D01*
X157962418Y-100088181D01*
X157312591Y-99438355D01*
X157312589Y-99438352D01*
X157193718Y-99319481D01*
X157193710Y-99319475D01*
X157105790Y-99268715D01*
X157105789Y-99268715D01*
X157072308Y-99249385D01*
X157056786Y-99240423D01*
X156904058Y-99199499D01*
X156745944Y-99199499D01*
X156738348Y-99199499D01*
X156738332Y-99199500D01*
X156672643Y-99199500D01*
X156605604Y-99179815D01*
X156559849Y-99127011D01*
X156549285Y-99088102D01*
X156544813Y-99044334D01*
X156539999Y-98997203D01*
X156484814Y-98830666D01*
X156392712Y-98681344D01*
X156268656Y-98557288D01*
X156134055Y-98474266D01*
X156119336Y-98465187D01*
X156119331Y-98465185D01*
X156063414Y-98446656D01*
X155952797Y-98410001D01*
X155952795Y-98410000D01*
X155850010Y-98399500D01*
X155099998Y-98399500D01*
X155099980Y-98399501D01*
X154997203Y-98410000D01*
X154997200Y-98410001D01*
X154830668Y-98465185D01*
X154830663Y-98465187D01*
X154681342Y-98557289D01*
X154557289Y-98681342D01*
X154465187Y-98830663D01*
X154465185Y-98830668D01*
X154458074Y-98852128D01*
X154410001Y-98997203D01*
X154410001Y-98997204D01*
X154410000Y-98997204D01*
X154399500Y-99099983D01*
X153600498Y-99099983D01*
X153599284Y-99088102D01*
X153589999Y-98997203D01*
X153589998Y-98997200D01*
X153576336Y-98955972D01*
X153534814Y-98830666D01*
X153442712Y-98681344D01*
X153318656Y-98557288D01*
X153184055Y-98474266D01*
X153169336Y-98465187D01*
X153169331Y-98465185D01*
X153113414Y-98446656D01*
X153002797Y-98410001D01*
X153002795Y-98410000D01*
X152900010Y-98399500D01*
X152149998Y-98399500D01*
X152149980Y-98399501D01*
X152047203Y-98410000D01*
X152047200Y-98410001D01*
X151880668Y-98465185D01*
X151880663Y-98465187D01*
X151731342Y-98557289D01*
X151607289Y-98681342D01*
X151515187Y-98830663D01*
X151515185Y-98830668D01*
X151508074Y-98852128D01*
X151460001Y-98997203D01*
X151460001Y-98997204D01*
X151460000Y-98997204D01*
X151449500Y-99099983D01*
X151449500Y-99974901D01*
X151440855Y-100004340D01*
X151434333Y-100034326D01*
X151430577Y-100039343D01*
X151429815Y-100041940D01*
X151413183Y-100062581D01*
X151387585Y-100088180D01*
X151326262Y-100121666D01*
X151299902Y-100124500D01*
X151039413Y-100124500D01*
X150972374Y-100104815D01*
X150926619Y-100052011D01*
X150916675Y-99982853D01*
X150916940Y-99981102D01*
X150933347Y-99877511D01*
X150940500Y-99832352D01*
X150940500Y-99627648D01*
X150929103Y-99555690D01*
X150908477Y-99425465D01*
X150857546Y-99268716D01*
X150845220Y-99230781D01*
X150845218Y-99230778D01*
X150845218Y-99230776D01*
X150810023Y-99161704D01*
X150752287Y-99048390D01*
X150744556Y-99037749D01*
X150631971Y-98882786D01*
X150487213Y-98738028D01*
X150321613Y-98617715D01*
X150321612Y-98617714D01*
X150321610Y-98617713D01*
X150264653Y-98588691D01*
X150139223Y-98524781D01*
X149944534Y-98461522D01*
X149769995Y-98433878D01*
X149742352Y-98429500D01*
X149537648Y-98429500D01*
X149513329Y-98433351D01*
X149335465Y-98461522D01*
X149140776Y-98524781D01*
X148958386Y-98617715D01*
X148792786Y-98738028D01*
X148648028Y-98882786D01*
X148527715Y-99048386D01*
X148434781Y-99230776D01*
X148371522Y-99425465D01*
X148344592Y-99595500D01*
X148339500Y-99627648D01*
X148339500Y-99832352D01*
X148350149Y-99899587D01*
X148353557Y-99921101D01*
X148344603Y-99990394D01*
X148299607Y-100043846D01*
X148232855Y-100064486D01*
X148231084Y-100064499D01*
X147804500Y-100064499D01*
X147737461Y-100044814D01*
X147691706Y-99992010D01*
X147680500Y-99940499D01*
X147680499Y-98882129D01*
X147680498Y-98882123D01*
X147680497Y-98882116D01*
X147674967Y-98830663D01*
X147674091Y-98822516D01*
X147623797Y-98687671D01*
X147623793Y-98687664D01*
X147537547Y-98572455D01*
X147537544Y-98572452D01*
X147422335Y-98486206D01*
X147422328Y-98486202D01*
X147287482Y-98435908D01*
X147287483Y-98435908D01*
X147227883Y-98429501D01*
X147227881Y-98429500D01*
X147227873Y-98429500D01*
X147227864Y-98429500D01*
X145532129Y-98429500D01*
X145532123Y-98429501D01*
X145472516Y-98435908D01*
X145337671Y-98486202D01*
X145337664Y-98486206D01*
X145222455Y-98572452D01*
X145222452Y-98572455D01*
X145136206Y-98687664D01*
X145136202Y-98687671D01*
X145085908Y-98822517D01*
X145079501Y-98882116D01*
X145079500Y-98882127D01*
X145079500Y-99440668D01*
X145079501Y-99935499D01*
X145059817Y-100002538D01*
X145007013Y-100048293D01*
X144955501Y-100059499D01*
X144549500Y-100059499D01*
X144482461Y-100039814D01*
X144436706Y-99987010D01*
X144425500Y-99935500D01*
X144425499Y-99709999D01*
X144425498Y-99709980D01*
X144414999Y-99607203D01*
X144414998Y-99607200D01*
X144397929Y-99555690D01*
X144359814Y-99440666D01*
X144267712Y-99291344D01*
X144143656Y-99167288D01*
X144140342Y-99165243D01*
X144138546Y-99163248D01*
X144137989Y-99162807D01*
X144138064Y-99162711D01*
X144093618Y-99113297D01*
X144082397Y-99044334D01*
X144110240Y-98980252D01*
X144140348Y-98954165D01*
X144143342Y-98952318D01*
X144267315Y-98828345D01*
X144359356Y-98679124D01*
X144359358Y-98679119D01*
X144414505Y-98512697D01*
X144414506Y-98512690D01*
X144424999Y-98409986D01*
X144425000Y-98409973D01*
X144425000Y-98360000D01*
X141975001Y-98360000D01*
X141975001Y-98409986D01*
X141985494Y-98512697D01*
X142040641Y-98679119D01*
X142040643Y-98679124D01*
X142132684Y-98828345D01*
X142256655Y-98952316D01*
X142256659Y-98952319D01*
X142259656Y-98954168D01*
X142261279Y-98955972D01*
X142262323Y-98956798D01*
X142262181Y-98956976D01*
X142306381Y-99006116D01*
X142317602Y-99075079D01*
X142289759Y-99139161D01*
X142259661Y-99165241D01*
X142256349Y-99167283D01*
X142256343Y-99167288D01*
X142132289Y-99291342D01*
X142040187Y-99440663D01*
X142040186Y-99440666D01*
X141985001Y-99607203D01*
X141985001Y-99607204D01*
X141985000Y-99607204D01*
X141974500Y-99709984D01*
X141974500Y-99775903D01*
X141968261Y-99797148D01*
X141966682Y-99819237D01*
X141958609Y-99830020D01*
X141954815Y-99842942D01*
X141938081Y-99857441D01*
X141924810Y-99875170D01*
X141912189Y-99879877D01*
X141902011Y-99888697D01*
X141880093Y-99891848D01*
X141859346Y-99899587D01*
X141846185Y-99896724D01*
X141832853Y-99898641D01*
X141812709Y-99889441D01*
X141791073Y-99884735D01*
X141773347Y-99871466D01*
X141769297Y-99869616D01*
X141762819Y-99863584D01*
X141736818Y-99837583D01*
X141703333Y-99776260D01*
X141700499Y-99749902D01*
X141700499Y-98852129D01*
X141700498Y-98852123D01*
X141700497Y-98852116D01*
X141694091Y-98792517D01*
X141673770Y-98738034D01*
X141643797Y-98657671D01*
X141643793Y-98657664D01*
X141580004Y-98572454D01*
X141557546Y-98542454D01*
X141466457Y-98474265D01*
X141424588Y-98418333D01*
X141419604Y-98348641D01*
X141453089Y-98287318D01*
X141466452Y-98275738D01*
X141557546Y-98207546D01*
X141643796Y-98092331D01*
X141694091Y-97957483D01*
X141700500Y-97897873D01*
X141700500Y-97810013D01*
X141975000Y-97810013D01*
X141975000Y-97860000D01*
X142950000Y-97860000D01*
X143450000Y-97860000D01*
X144424999Y-97860000D01*
X144424999Y-97810028D01*
X144424998Y-97810013D01*
X144414505Y-97707302D01*
X144359358Y-97540880D01*
X144359356Y-97540875D01*
X144267315Y-97391654D01*
X144143345Y-97267684D01*
X143994124Y-97175643D01*
X143994119Y-97175641D01*
X143827697Y-97120494D01*
X143827690Y-97120493D01*
X143724986Y-97110000D01*
X143450000Y-97110000D01*
X143450000Y-97860000D01*
X142950000Y-97860000D01*
X142950000Y-97110000D01*
X142675029Y-97110000D01*
X142675012Y-97110001D01*
X142572302Y-97120494D01*
X142405880Y-97175641D01*
X142405875Y-97175643D01*
X142256654Y-97267684D01*
X142132684Y-97391654D01*
X142040643Y-97540875D01*
X142040641Y-97540880D01*
X141985494Y-97707302D01*
X141985493Y-97707309D01*
X141975000Y-97810013D01*
X141700500Y-97810013D01*
X141700499Y-97098848D01*
X141700499Y-96302129D01*
X141700498Y-96302123D01*
X141694091Y-96242516D01*
X141643797Y-96107671D01*
X141643793Y-96107664D01*
X141557547Y-95992455D01*
X141557544Y-95992452D01*
X141442335Y-95906206D01*
X141442328Y-95906202D01*
X141307482Y-95855908D01*
X141307483Y-95855908D01*
X141247883Y-95849501D01*
X141247881Y-95849500D01*
X141247873Y-95849500D01*
X141247864Y-95849500D01*
X140152129Y-95849500D01*
X140152123Y-95849501D01*
X140092520Y-95855908D01*
X140084974Y-95857692D01*
X140084628Y-95856230D01*
X140023622Y-95860584D01*
X140008600Y-95856172D01*
X140007482Y-95855908D01*
X139947883Y-95849501D01*
X139947881Y-95849500D01*
X139947873Y-95849500D01*
X139947864Y-95849500D01*
X138852129Y-95849500D01*
X138852123Y-95849501D01*
X138792516Y-95855908D01*
X138657671Y-95906202D01*
X138657664Y-95906206D01*
X138542455Y-95992452D01*
X138542454Y-95992453D01*
X138483237Y-96071555D01*
X138427303Y-96113425D01*
X138357611Y-96118408D01*
X138296291Y-96084923D01*
X138213657Y-96002289D01*
X138213656Y-96002288D01*
X138102690Y-95933844D01*
X138064336Y-95910187D01*
X138064331Y-95910185D01*
X138015714Y-95894075D01*
X137897797Y-95855001D01*
X137897795Y-95855000D01*
X137795010Y-95844500D01*
X136804998Y-95844500D01*
X136804980Y-95844501D01*
X136702203Y-95855000D01*
X136702200Y-95855001D01*
X136535668Y-95910185D01*
X136535659Y-95910189D01*
X136396443Y-95996058D01*
X136329051Y-96014498D01*
X136262387Y-95993575D01*
X136217618Y-95939933D01*
X136215162Y-95933844D01*
X136215097Y-95933671D01*
X136215097Y-95933669D01*
X136215096Y-95933667D01*
X136215094Y-95933664D01*
X136128848Y-95818455D01*
X136128845Y-95818452D01*
X136013636Y-95732206D01*
X136013629Y-95732202D01*
X135878783Y-95681908D01*
X135878784Y-95681908D01*
X135819184Y-95675501D01*
X135819182Y-95675500D01*
X135819174Y-95675500D01*
X135819165Y-95675500D01*
X133849430Y-95675500D01*
X133849424Y-95675501D01*
X133789817Y-95681908D01*
X133654972Y-95732202D01*
X133654965Y-95732206D01*
X133539756Y-95818452D01*
X133539753Y-95818455D01*
X133453507Y-95933664D01*
X133453503Y-95933671D01*
X133403211Y-96068513D01*
X133403210Y-96068517D01*
X133396801Y-96128127D01*
X133396801Y-96128134D01*
X133396801Y-96128135D01*
X133396801Y-96781870D01*
X133396802Y-96781874D01*
X133402755Y-96837246D01*
X133390349Y-96906005D01*
X133342738Y-96957142D01*
X133279465Y-96974500D01*
X132634960Y-96974500D01*
X132587508Y-96965061D01*
X132503501Y-96930264D01*
X132503489Y-96930261D01*
X132348845Y-96899500D01*
X132348842Y-96899500D01*
X132191158Y-96899500D01*
X132191155Y-96899500D01*
X132036510Y-96930261D01*
X132036498Y-96930264D01*
X131890827Y-96990602D01*
X131890814Y-96990609D01*
X131759711Y-97078210D01*
X131759707Y-97078213D01*
X131648213Y-97189707D01*
X131648210Y-97189711D01*
X131560609Y-97320814D01*
X131560602Y-97320827D01*
X131500264Y-97466498D01*
X131500261Y-97466510D01*
X131469500Y-97621153D01*
X131469500Y-97778846D01*
X131500261Y-97933489D01*
X131500264Y-97933501D01*
X131560602Y-98079172D01*
X131560609Y-98079185D01*
X131648210Y-98210288D01*
X131648213Y-98210292D01*
X131759707Y-98321786D01*
X131759711Y-98321789D01*
X131890814Y-98409390D01*
X131890827Y-98409397D01*
X132019683Y-98462770D01*
X132036503Y-98469737D01*
X132144309Y-98491181D01*
X132191153Y-98500499D01*
X132191156Y-98500500D01*
X132191158Y-98500500D01*
X132348844Y-98500500D01*
X132427354Y-98484882D01*
X132462545Y-98477882D01*
X132486736Y-98475500D01*
X133279465Y-98475500D01*
X133346504Y-98495185D01*
X133392259Y-98547989D01*
X133402754Y-98612752D01*
X133396801Y-98668127D01*
X133396801Y-98668134D01*
X133396801Y-98668135D01*
X133396801Y-99321870D01*
X133396802Y-99321876D01*
X133403209Y-99381483D01*
X133453503Y-99516328D01*
X133453507Y-99516334D01*
X133482968Y-99555690D01*
X133507385Y-99621154D01*
X133492533Y-99689427D01*
X133482968Y-99704310D01*
X133453507Y-99743665D01*
X133453503Y-99743671D01*
X133403211Y-99878513D01*
X133403210Y-99878517D01*
X133396801Y-99938127D01*
X133396801Y-99938134D01*
X133396801Y-99938135D01*
X133396801Y-100591870D01*
X133396802Y-100591876D01*
X133403209Y-100651483D01*
X133453503Y-100786328D01*
X133453507Y-100786334D01*
X133482968Y-100825690D01*
X133507385Y-100891154D01*
X133492533Y-100959427D01*
X133482968Y-100974310D01*
X133453507Y-101013665D01*
X133453503Y-101013671D01*
X133403211Y-101148513D01*
X133403210Y-101148517D01*
X133396801Y-101208127D01*
X133396801Y-101208134D01*
X133396801Y-101208135D01*
X133396801Y-101861870D01*
X133396802Y-101861876D01*
X133403209Y-101921483D01*
X133453503Y-102056328D01*
X133453507Y-102056334D01*
X133482968Y-102095690D01*
X133507385Y-102161154D01*
X133492533Y-102229427D01*
X133482968Y-102244310D01*
X133453507Y-102283665D01*
X133453503Y-102283671D01*
X133403211Y-102418513D01*
X133403210Y-102418517D01*
X133396801Y-102478127D01*
X133396801Y-102478134D01*
X133396801Y-102478135D01*
X133396801Y-103131870D01*
X133396802Y-103131876D01*
X133403209Y-103191483D01*
X133453503Y-103326328D01*
X133453507Y-103326334D01*
X133482968Y-103365690D01*
X133507385Y-103431154D01*
X133492533Y-103499427D01*
X133482968Y-103514310D01*
X133453507Y-103553665D01*
X133453503Y-103553671D01*
X133403209Y-103688516D01*
X133400774Y-103711172D01*
X133374036Y-103775723D01*
X133365166Y-103785597D01*
X130624202Y-106526561D01*
X130562879Y-106560046D01*
X130498203Y-106556811D01*
X130468623Y-106547200D01*
X130427952Y-106533985D01*
X130319086Y-106516742D01*
X130210222Y-106499500D01*
X129989778Y-106499500D01*
X129917201Y-106510995D01*
X129772047Y-106533985D01*
X129562396Y-106602103D01*
X129562393Y-106602104D01*
X129365974Y-106702187D01*
X129187641Y-106831752D01*
X129187636Y-106831756D01*
X129031756Y-106987636D01*
X129031752Y-106987641D01*
X128950318Y-107099727D01*
X128894989Y-107142393D01*
X128825375Y-107148372D01*
X128763580Y-107115767D01*
X128749682Y-107099727D01*
X128668247Y-106987641D01*
X128668243Y-106987636D01*
X128512363Y-106831756D01*
X128512358Y-106831752D01*
X128334025Y-106702187D01*
X128334024Y-106702186D01*
X128334022Y-106702185D01*
X128271096Y-106670122D01*
X128137606Y-106602104D01*
X128137603Y-106602103D01*
X127927952Y-106533985D01*
X127819086Y-106516742D01*
X127710222Y-106499500D01*
X127489778Y-106499500D01*
X127417201Y-106510995D01*
X127272047Y-106533985D01*
X127062396Y-106602103D01*
X127062393Y-106602104D01*
X126865974Y-106702187D01*
X126687641Y-106831752D01*
X126687636Y-106831756D01*
X126531756Y-106987636D01*
X126531752Y-106987641D01*
X126402185Y-107165976D01*
X126368648Y-107231796D01*
X126320674Y-107282591D01*
X126258164Y-107299500D01*
X124049500Y-107299500D01*
X123982461Y-107279815D01*
X123936706Y-107227011D01*
X123925500Y-107175500D01*
X123925499Y-106649998D01*
X123925498Y-106649980D01*
X123914999Y-106547203D01*
X123914998Y-106547200D01*
X123875171Y-106427011D01*
X123859814Y-106380666D01*
X123767712Y-106231344D01*
X123643656Y-106107288D01*
X123640819Y-106105538D01*
X123639283Y-106103830D01*
X123637989Y-106102807D01*
X123638163Y-106102585D01*
X123594096Y-106053594D01*
X123582872Y-105984632D01*
X123610713Y-105920549D01*
X123620050Y-105910540D01*
X123629576Y-105901396D01*
X123643656Y-105892712D01*
X123763875Y-105772492D01*
X123764747Y-105771656D01*
X123794657Y-105756110D01*
X123824254Y-105739950D01*
X123825571Y-105740044D01*
X123826744Y-105739435D01*
X123860315Y-105742528D01*
X123893946Y-105744934D01*
X123895003Y-105745725D01*
X123896319Y-105745847D01*
X123922877Y-105766591D01*
X123949880Y-105786805D01*
X123950715Y-105788335D01*
X123951382Y-105788856D01*
X123952063Y-105790802D01*
X123966795Y-105817782D01*
X123984902Y-105866330D01*
X123984905Y-105866335D01*
X124071151Y-105981544D01*
X124071154Y-105981547D01*
X124186363Y-106067793D01*
X124186370Y-106067797D01*
X124321216Y-106118091D01*
X124321215Y-106118091D01*
X124328143Y-106118835D01*
X124380826Y-106124500D01*
X126350571Y-106124499D01*
X126410182Y-106118091D01*
X126545030Y-106067796D01*
X126660245Y-105981546D01*
X126746495Y-105866331D01*
X126796790Y-105731483D01*
X126803199Y-105671873D01*
X126803198Y-105018128D01*
X126796790Y-104958517D01*
X126746495Y-104823669D01*
X126717031Y-104784311D01*
X126692614Y-104718848D01*
X126707465Y-104650575D01*
X126717032Y-104635688D01*
X126746495Y-104596331D01*
X126796790Y-104461483D01*
X126803199Y-104401873D01*
X126803198Y-103748128D01*
X126796790Y-103688517D01*
X126795477Y-103684998D01*
X126746496Y-103553671D01*
X126746494Y-103553668D01*
X126734549Y-103537712D01*
X126717031Y-103514310D01*
X126692614Y-103448848D01*
X126707465Y-103380575D01*
X126717032Y-103365688D01*
X126721269Y-103360028D01*
X126746495Y-103326331D01*
X126796790Y-103191483D01*
X126803199Y-103131873D01*
X126803198Y-102478128D01*
X126796790Y-102418517D01*
X126746495Y-102283669D01*
X126717031Y-102244310D01*
X126692614Y-102178848D01*
X126707465Y-102110575D01*
X126717032Y-102095688D01*
X126717865Y-102094575D01*
X126746495Y-102056331D01*
X126796790Y-101921483D01*
X126803199Y-101861873D01*
X126803198Y-101208128D01*
X126796790Y-101148517D01*
X126790129Y-101130659D01*
X126746496Y-101013671D01*
X126746494Y-101013668D01*
X126717032Y-100974312D01*
X126692614Y-100908848D01*
X126707465Y-100840575D01*
X126717032Y-100825688D01*
X126732147Y-100805497D01*
X126746495Y-100786331D01*
X126796790Y-100651483D01*
X126803199Y-100591873D01*
X126803198Y-99938128D01*
X126796790Y-99878517D01*
X126796415Y-99877512D01*
X126746496Y-99743671D01*
X126746494Y-99743668D01*
X126721289Y-99709999D01*
X126717031Y-99704310D01*
X126692614Y-99638848D01*
X126707465Y-99570575D01*
X126717032Y-99555688D01*
X126734064Y-99532936D01*
X126746495Y-99516331D01*
X126796790Y-99381483D01*
X126803199Y-99321873D01*
X126803198Y-98668128D01*
X126796790Y-98608517D01*
X126793913Y-98600804D01*
X126746496Y-98473671D01*
X126746494Y-98473668D01*
X126740144Y-98465186D01*
X126717031Y-98434311D01*
X126692614Y-98368848D01*
X126707465Y-98300575D01*
X126717032Y-98285688D01*
X126746495Y-98246331D01*
X126796790Y-98111483D01*
X126803199Y-98051873D01*
X126803198Y-97398128D01*
X126796790Y-97338517D01*
X126790187Y-97320814D01*
X126746496Y-97203671D01*
X126746494Y-97203668D01*
X126725514Y-97175643D01*
X126717031Y-97164311D01*
X126692614Y-97098848D01*
X126707465Y-97030575D01*
X126717032Y-97015688D01*
X126735806Y-96990609D01*
X126746495Y-96976331D01*
X126796790Y-96841483D01*
X126803199Y-96781873D01*
X126803198Y-96128128D01*
X126796790Y-96068517D01*
X126785662Y-96038682D01*
X126746496Y-95933671D01*
X126746492Y-95933664D01*
X126660246Y-95818455D01*
X126660243Y-95818452D01*
X126545034Y-95732206D01*
X126545027Y-95732202D01*
X126410181Y-95681908D01*
X126410182Y-95681908D01*
X126350582Y-95675501D01*
X126350580Y-95675500D01*
X126350572Y-95675500D01*
X126350563Y-95675500D01*
X124377507Y-95675501D01*
X124377507Y-95674638D01*
X124313098Y-95659391D01*
X124264602Y-95609093D01*
X124250500Y-95551661D01*
X124250500Y-94993670D01*
X124270185Y-94926631D01*
X124322989Y-94880876D01*
X124355095Y-94871198D01*
X124403368Y-94863553D01*
X124429734Y-94854986D01*
X136105001Y-94854986D01*
X136115494Y-94957697D01*
X136170641Y-95124119D01*
X136170643Y-95124124D01*
X136262684Y-95273345D01*
X136386654Y-95397315D01*
X136535875Y-95489356D01*
X136535880Y-95489358D01*
X136702302Y-95544505D01*
X136702309Y-95544506D01*
X136805019Y-95554999D01*
X137049999Y-95554999D01*
X137550000Y-95554999D01*
X137794972Y-95554999D01*
X137794986Y-95554998D01*
X137897697Y-95544505D01*
X138064119Y-95489358D01*
X138064124Y-95489356D01*
X138213345Y-95397315D01*
X138337315Y-95273345D01*
X138429356Y-95124124D01*
X138429358Y-95124119D01*
X138484505Y-94957697D01*
X138484506Y-94957690D01*
X138494999Y-94854986D01*
X138495000Y-94854973D01*
X138495000Y-94597500D01*
X137550000Y-94597500D01*
X137550000Y-95554999D01*
X137049999Y-95554999D01*
X137050000Y-95554998D01*
X137050000Y-94597500D01*
X136105001Y-94597500D01*
X136105001Y-94854986D01*
X124429734Y-94854986D01*
X124627992Y-94790568D01*
X124838433Y-94683343D01*
X125029510Y-94544517D01*
X125196517Y-94377510D01*
X125324313Y-94201613D01*
X125379643Y-94158949D01*
X125424631Y-94150500D01*
X127673920Y-94150500D01*
X127771462Y-94131096D01*
X127818913Y-94121658D01*
X127955495Y-94065084D01*
X128014113Y-94025917D01*
X128014113Y-94025916D01*
X128014115Y-94025916D01*
X128046264Y-94004434D01*
X128078416Y-93982952D01*
X128185378Y-93875990D01*
X128221355Y-93840013D01*
X136105000Y-93840013D01*
X136105000Y-94097500D01*
X137050000Y-94097500D01*
X137550000Y-94097500D01*
X138494999Y-94097500D01*
X138494999Y-93840028D01*
X138494998Y-93840013D01*
X138484505Y-93737302D01*
X138429358Y-93570880D01*
X138429356Y-93570875D01*
X138337315Y-93421654D01*
X138213345Y-93297684D01*
X138064124Y-93205643D01*
X138064119Y-93205641D01*
X137897697Y-93150494D01*
X137897690Y-93150493D01*
X137794986Y-93140000D01*
X137550000Y-93140000D01*
X137550000Y-94097500D01*
X137050000Y-94097500D01*
X137050000Y-93140000D01*
X136805029Y-93140000D01*
X136805012Y-93140001D01*
X136702302Y-93150494D01*
X136535880Y-93205641D01*
X136535875Y-93205643D01*
X136386654Y-93297684D01*
X136262684Y-93421654D01*
X136170643Y-93570875D01*
X136170641Y-93570880D01*
X136115494Y-93737302D01*
X136115493Y-93737309D01*
X136105000Y-93840013D01*
X128221355Y-93840013D01*
X128312186Y-93749183D01*
X129210947Y-92850420D01*
X129210950Y-92850417D01*
X129210949Y-92850417D01*
X129210952Y-92850415D01*
X129251389Y-92789896D01*
X129293084Y-92727495D01*
X129334263Y-92628081D01*
X129349659Y-92590912D01*
X129378500Y-92445917D01*
X129378500Y-92392328D01*
X129383424Y-92357733D01*
X129425597Y-92212573D01*
X129425598Y-92212567D01*
X129428499Y-92175701D01*
X129428500Y-92175694D01*
X129428500Y-92007648D01*
X145079500Y-92007648D01*
X145079500Y-92212352D01*
X145079535Y-92212573D01*
X145111522Y-92414534D01*
X145174781Y-92609223D01*
X145267715Y-92791613D01*
X145388028Y-92957213D01*
X145532786Y-93101971D01*
X145675481Y-93205643D01*
X145698390Y-93222287D01*
X145787212Y-93267544D01*
X145880776Y-93315218D01*
X145880778Y-93315218D01*
X145880781Y-93315220D01*
X145985137Y-93349127D01*
X146075465Y-93378477D01*
X146176557Y-93394488D01*
X146277648Y-93410500D01*
X146277649Y-93410500D01*
X146482351Y-93410500D01*
X146482352Y-93410500D01*
X146684534Y-93378477D01*
X146879219Y-93315220D01*
X147061610Y-93222287D01*
X147174868Y-93140001D01*
X147227213Y-93101971D01*
X147227215Y-93101968D01*
X147227219Y-93101966D01*
X147371966Y-92957219D01*
X147371968Y-92957215D01*
X147371971Y-92957213D01*
X147449559Y-92850420D01*
X147492287Y-92791610D01*
X147585220Y-92609219D01*
X147648477Y-92414534D01*
X147680500Y-92212352D01*
X147680500Y-92007648D01*
X147648477Y-91805466D01*
X147585220Y-91610781D01*
X147585218Y-91610778D01*
X147585218Y-91610776D01*
X147492287Y-91428390D01*
X147422032Y-91331691D01*
X147422031Y-91331688D01*
X147371971Y-91262787D01*
X147371967Y-91262782D01*
X147371320Y-91262135D01*
X148339500Y-91262135D01*
X148339500Y-92957870D01*
X148339501Y-92957876D01*
X148345908Y-93017483D01*
X148396202Y-93152328D01*
X148396206Y-93152335D01*
X148482452Y-93267544D01*
X148482455Y-93267547D01*
X148597664Y-93353793D01*
X148597671Y-93353797D01*
X148732517Y-93404091D01*
X148732516Y-93404091D01*
X148739444Y-93404835D01*
X148792127Y-93410500D01*
X150487872Y-93410499D01*
X150547483Y-93404091D01*
X150682331Y-93353796D01*
X150797546Y-93267546D01*
X150883796Y-93152331D01*
X150934091Y-93017483D01*
X150940500Y-92957873D01*
X150940499Y-91262128D01*
X150934091Y-91202517D01*
X150920862Y-91167049D01*
X150883797Y-91067671D01*
X150883793Y-91067664D01*
X150797547Y-90952455D01*
X150797544Y-90952452D01*
X150682335Y-90866206D01*
X150682328Y-90866202D01*
X150547482Y-90815908D01*
X150547483Y-90815908D01*
X150487883Y-90809501D01*
X150487881Y-90809500D01*
X150487873Y-90809500D01*
X150487864Y-90809500D01*
X148792129Y-90809500D01*
X148792123Y-90809501D01*
X148732516Y-90815908D01*
X148597671Y-90866202D01*
X148597664Y-90866206D01*
X148482455Y-90952452D01*
X148482452Y-90952455D01*
X148396206Y-91067664D01*
X148396202Y-91067671D01*
X148345908Y-91202517D01*
X148339501Y-91262116D01*
X148339501Y-91262123D01*
X148339500Y-91262135D01*
X147371320Y-91262135D01*
X147227213Y-91118028D01*
X147061613Y-90997715D01*
X147061612Y-90997714D01*
X147061610Y-90997713D01*
X147004653Y-90968691D01*
X146879223Y-90904781D01*
X146684534Y-90841522D01*
X146509995Y-90813878D01*
X146482352Y-90809500D01*
X146277648Y-90809500D01*
X146253329Y-90813351D01*
X146075465Y-90841522D01*
X145880776Y-90904781D01*
X145698386Y-90997715D01*
X145532786Y-91118028D01*
X145388028Y-91262786D01*
X145267715Y-91428386D01*
X145174781Y-91610776D01*
X145111522Y-91805465D01*
X145096629Y-91899500D01*
X145079500Y-92007648D01*
X129428500Y-92007648D01*
X129428500Y-91019306D01*
X129425598Y-90982431D01*
X129420205Y-90963869D01*
X129379745Y-90824606D01*
X129379744Y-90824603D01*
X129379744Y-90824602D01*
X129296081Y-90683135D01*
X129296079Y-90683133D01*
X129296076Y-90683129D01*
X129179870Y-90566923D01*
X129179867Y-90566921D01*
X129179865Y-90566919D01*
X129179549Y-90566732D01*
X129179353Y-90566522D01*
X129173702Y-90562139D01*
X129174409Y-90561227D01*
X129131866Y-90515664D01*
X129119362Y-90446923D01*
X129146006Y-90382333D01*
X129173921Y-90358144D01*
X129173702Y-90357861D01*
X129178911Y-90353820D01*
X129179550Y-90353267D01*
X129179865Y-90353081D01*
X129296081Y-90236865D01*
X129379744Y-90095398D01*
X129413505Y-89979191D01*
X129425597Y-89937573D01*
X129425598Y-89937567D01*
X129428499Y-89900701D01*
X129428500Y-89900694D01*
X129428500Y-88744306D01*
X129428500Y-87797230D01*
X129436506Y-87769962D01*
X129441487Y-87741985D01*
X129446953Y-87734385D01*
X129448185Y-87730191D01*
X129461548Y-87712947D01*
X129463153Y-87711214D01*
X129520712Y-87653656D01*
X129529112Y-87640036D01*
X129537341Y-87631157D01*
X129557361Y-87619214D01*
X129574694Y-87603623D01*
X129586806Y-87601650D01*
X129597346Y-87595364D01*
X129620645Y-87596141D01*
X129643656Y-87592395D01*
X129654911Y-87597284D01*
X129667177Y-87597694D01*
X129686357Y-87610945D01*
X129707740Y-87620234D01*
X129719581Y-87633897D01*
X129724662Y-87637408D01*
X129726552Y-87641942D01*
X129733829Y-87650339D01*
X129735681Y-87653341D01*
X129735683Y-87653344D01*
X129859654Y-87777315D01*
X130008875Y-87869356D01*
X130008880Y-87869358D01*
X130175302Y-87924505D01*
X130175309Y-87924506D01*
X130278019Y-87934999D01*
X130828000Y-87934999D01*
X130877972Y-87934999D01*
X130877986Y-87934998D01*
X130980697Y-87924505D01*
X131147119Y-87869358D01*
X131147124Y-87869356D01*
X131296345Y-87777315D01*
X131420315Y-87653345D01*
X131512356Y-87504124D01*
X131512358Y-87504119D01*
X131567505Y-87337697D01*
X131567506Y-87337690D01*
X131577999Y-87234986D01*
X131578000Y-87234973D01*
X131578000Y-86960000D01*
X130828000Y-86960000D01*
X130828000Y-87934999D01*
X130278019Y-87934999D01*
X130327999Y-87934998D01*
X130328000Y-87934998D01*
X130328000Y-86460000D01*
X130828000Y-86460000D01*
X131577999Y-86460000D01*
X131577999Y-86185028D01*
X131577998Y-86185013D01*
X131567505Y-86082302D01*
X131512358Y-85915880D01*
X131512356Y-85915875D01*
X131420315Y-85766654D01*
X131296345Y-85642684D01*
X131147124Y-85550643D01*
X131147119Y-85550641D01*
X130980697Y-85495494D01*
X130980690Y-85495493D01*
X130877986Y-85485000D01*
X130828000Y-85485000D01*
X130828000Y-86460000D01*
X130328000Y-86460000D01*
X130328000Y-85485000D01*
X130327999Y-85484999D01*
X130278029Y-85485000D01*
X130278011Y-85485001D01*
X130175302Y-85495494D01*
X130008880Y-85550641D01*
X130008875Y-85550643D01*
X129859654Y-85642684D01*
X129735683Y-85766655D01*
X129735679Y-85766660D01*
X129733826Y-85769665D01*
X129732018Y-85771290D01*
X129731202Y-85772323D01*
X129731025Y-85772183D01*
X129681874Y-85816385D01*
X129612911Y-85827601D01*
X129548831Y-85799752D01*
X129522753Y-85769653D01*
X129522462Y-85769182D01*
X129520712Y-85766344D01*
X129396656Y-85642288D01*
X129247334Y-85550186D01*
X129080797Y-85495001D01*
X129080795Y-85495000D01*
X128978010Y-85484500D01*
X128377998Y-85484500D01*
X128377980Y-85484501D01*
X128275203Y-85495000D01*
X128275200Y-85495001D01*
X128108668Y-85550185D01*
X128108663Y-85550187D01*
X127959342Y-85642289D01*
X127835289Y-85766342D01*
X127752481Y-85900597D01*
X127744893Y-85907421D01*
X127740655Y-85916703D01*
X127719355Y-85930391D01*
X127700533Y-85947321D01*
X127688897Y-85949965D01*
X127681877Y-85954477D01*
X127646942Y-85959500D01*
X127409058Y-85959500D01*
X127342019Y-85939815D01*
X127303519Y-85900597D01*
X127251281Y-85815905D01*
X127220712Y-85766344D01*
X127096656Y-85642288D01*
X126947334Y-85550186D01*
X126780797Y-85495001D01*
X126780795Y-85495000D01*
X126678010Y-85484500D01*
X126077998Y-85484500D01*
X126077980Y-85484501D01*
X125975203Y-85495000D01*
X125975200Y-85495001D01*
X125808668Y-85550185D01*
X125808663Y-85550187D01*
X125659342Y-85642289D01*
X125535285Y-85766346D01*
X125533537Y-85769182D01*
X125531829Y-85770717D01*
X125530807Y-85772011D01*
X125530585Y-85771836D01*
X125481589Y-85815905D01*
X125412626Y-85827126D01*
X125348544Y-85799282D01*
X125322463Y-85769182D01*
X125320714Y-85766346D01*
X125196657Y-85642289D01*
X125196656Y-85642288D01*
X125047334Y-85550186D01*
X124880797Y-85495001D01*
X124880795Y-85495000D01*
X124778010Y-85484500D01*
X124177998Y-85484500D01*
X124177980Y-85484501D01*
X124075203Y-85495000D01*
X124075200Y-85495001D01*
X123908668Y-85550185D01*
X123908663Y-85550187D01*
X123759342Y-85642289D01*
X123635289Y-85766342D01*
X123552481Y-85900597D01*
X123500533Y-85947321D01*
X123446942Y-85959500D01*
X119764076Y-85959500D01*
X119735242Y-85965234D01*
X119735243Y-85965235D01*
X119619093Y-85988339D01*
X119619083Y-85988342D01*
X119539081Y-86021479D01*
X119539082Y-86021480D01*
X119482506Y-86044915D01*
X119426701Y-86082203D01*
X119359582Y-86127049D01*
X118116807Y-87369824D01*
X118055484Y-87403309D01*
X118009728Y-87404616D01*
X117914292Y-87389500D01*
X117914287Y-87389500D01*
X117701713Y-87389500D01*
X117653042Y-87397208D01*
X117491760Y-87422753D01*
X117289585Y-87488444D01*
X117100179Y-87584951D01*
X116928213Y-87709890D01*
X116777890Y-87860213D01*
X116652951Y-88032179D01*
X116556444Y-88221585D01*
X116490753Y-88423760D01*
X116457500Y-88633713D01*
X115750500Y-88633713D01*
X115750500Y-80001719D01*
X115770185Y-79934680D01*
X115822989Y-79888925D01*
X115892147Y-79878981D01*
X115955703Y-79908006D01*
X115989061Y-79954267D01*
X116013235Y-80012628D01*
X116013240Y-80012640D01*
X116166079Y-80298580D01*
X116166090Y-80298598D01*
X116346212Y-80568170D01*
X116346222Y-80568184D01*
X116495890Y-80750554D01*
X116495891Y-80750555D01*
X117705748Y-79540698D01*
X117779588Y-79642330D01*
X117957670Y-79820412D01*
X118059300Y-79894251D01*
X116849443Y-81104107D01*
X116849444Y-81104108D01*
X117031815Y-81253777D01*
X117031829Y-81253787D01*
X117301401Y-81433909D01*
X117301419Y-81433920D01*
X117587359Y-81586759D01*
X117587364Y-81586761D01*
X117886921Y-81710842D01*
X118197207Y-81804966D01*
X118197218Y-81804969D01*
X118515198Y-81868217D01*
X118515215Y-81868220D01*
X118837884Y-81900000D01*
X119162116Y-81900000D01*
X119484784Y-81868220D01*
X119484801Y-81868217D01*
X119802781Y-81804969D01*
X119802792Y-81804966D01*
X120113078Y-81710842D01*
X120412635Y-81586761D01*
X120412640Y-81586759D01*
X120698580Y-81433920D01*
X120698598Y-81433909D01*
X120968170Y-81253787D01*
X120968183Y-81253777D01*
X121150554Y-81104108D01*
X121150554Y-81104107D01*
X119940698Y-79894251D01*
X120042330Y-79820412D01*
X120220412Y-79642330D01*
X120294251Y-79540698D01*
X121504107Y-80750554D01*
X121504108Y-80750554D01*
X121653777Y-80568183D01*
X121653787Y-80568170D01*
X121833909Y-80298598D01*
X121833920Y-80298580D01*
X121986759Y-80012640D01*
X121986761Y-80012635D01*
X122110842Y-79713078D01*
X122204966Y-79402792D01*
X122204969Y-79402781D01*
X122268217Y-79084801D01*
X122268220Y-79084784D01*
X122300000Y-78762115D01*
X122300000Y-78437884D01*
X122268220Y-78115215D01*
X122268217Y-78115198D01*
X122204969Y-77797218D01*
X122204966Y-77797207D01*
X122110842Y-77486921D01*
X121986761Y-77187364D01*
X121986759Y-77187359D01*
X121833920Y-76901419D01*
X121833909Y-76901401D01*
X121653787Y-76631829D01*
X121653777Y-76631815D01*
X121504108Y-76449444D01*
X121504107Y-76449443D01*
X120294250Y-77659300D01*
X120220412Y-77557670D01*
X120042330Y-77379588D01*
X119940697Y-77305747D01*
X121150555Y-76095891D01*
X121150554Y-76095890D01*
X120968184Y-75946222D01*
X120968170Y-75946212D01*
X120698598Y-75766090D01*
X120698580Y-75766079D01*
X120412640Y-75613240D01*
X120412628Y-75613235D01*
X120354267Y-75589061D01*
X120299863Y-75545220D01*
X120277798Y-75478926D01*
X120295077Y-75411227D01*
X120346214Y-75363616D01*
X120401719Y-75350500D01*
X178348281Y-75350500D01*
X178415320Y-75370185D01*
G37*
%TD.AperFunction*%
%TA.AperFunction,Conductor*%
G36*
X182254107Y-119350554D02*
G01*
X182254108Y-119350554D01*
X182403777Y-119168183D01*
X182403787Y-119168170D01*
X182583909Y-118898598D01*
X182583920Y-118898580D01*
X182736759Y-118612640D01*
X182736761Y-118612635D01*
X182770939Y-118530124D01*
X182814780Y-118475721D01*
X182881074Y-118453656D01*
X182948773Y-118470935D01*
X182996384Y-118522072D01*
X183009500Y-118577577D01*
X183009500Y-120375500D01*
X182989815Y-120442539D01*
X182937011Y-120488294D01*
X182885500Y-120499500D01*
X181031009Y-120499500D01*
X180963970Y-120479815D01*
X180918215Y-120427011D01*
X180908271Y-120357853D01*
X180937296Y-120294297D01*
X180983556Y-120260939D01*
X181162635Y-120186761D01*
X181162640Y-120186759D01*
X181448580Y-120033920D01*
X181448598Y-120033909D01*
X181718170Y-119853787D01*
X181718183Y-119853777D01*
X181900554Y-119704108D01*
X181900554Y-119704107D01*
X180690698Y-118494251D01*
X180792330Y-118420412D01*
X180970412Y-118242330D01*
X181044251Y-118140698D01*
X182254107Y-119350554D01*
G37*
%TD.AperFunction*%
%TA.AperFunction,Conductor*%
G36*
X117665320Y-75370185D02*
G01*
X117711075Y-75422989D01*
X117721019Y-75492147D01*
X117691994Y-75555703D01*
X117645733Y-75589061D01*
X117587371Y-75613235D01*
X117587359Y-75613240D01*
X117301419Y-75766079D01*
X117301401Y-75766090D01*
X117031829Y-75946212D01*
X117031815Y-75946222D01*
X116849444Y-76095890D01*
X116849443Y-76095891D01*
X118059301Y-77305748D01*
X117957670Y-77379588D01*
X117779588Y-77557670D01*
X117705748Y-77659301D01*
X116495891Y-76449443D01*
X116495890Y-76449444D01*
X116346222Y-76631815D01*
X116346212Y-76631829D01*
X116166090Y-76901401D01*
X116166079Y-76901419D01*
X116013240Y-77187359D01*
X116013238Y-77187364D01*
X115989061Y-77245733D01*
X115945220Y-77300136D01*
X115878925Y-77322201D01*
X115811226Y-77304922D01*
X115763616Y-77253784D01*
X115750500Y-77198280D01*
X115750500Y-75474500D01*
X115770185Y-75407461D01*
X115822989Y-75361706D01*
X115874500Y-75350500D01*
X117598281Y-75350500D01*
X117665320Y-75370185D01*
G37*
%TD.AperFunction*%
%TA.AperFunction,Conductor*%
G36*
X182952539Y-75370185D02*
G01*
X182998294Y-75422989D01*
X183009500Y-75474500D01*
X183009500Y-77222422D01*
X182989815Y-77289461D01*
X182937011Y-77335216D01*
X182867853Y-77345160D01*
X182804297Y-77316135D01*
X182770939Y-77269875D01*
X182736761Y-77187364D01*
X182736759Y-77187359D01*
X182583920Y-76901419D01*
X182583909Y-76901401D01*
X182403787Y-76631829D01*
X182403777Y-76631815D01*
X182254108Y-76449444D01*
X182254107Y-76449443D01*
X181044250Y-77659299D01*
X180970412Y-77557670D01*
X180792330Y-77379588D01*
X180690697Y-77305747D01*
X181900555Y-76095891D01*
X181900554Y-76095890D01*
X181718184Y-75946222D01*
X181718170Y-75946212D01*
X181448598Y-75766090D01*
X181448580Y-75766079D01*
X181162640Y-75613240D01*
X181162628Y-75613235D01*
X181104267Y-75589061D01*
X181049863Y-75545220D01*
X181027798Y-75478926D01*
X181045077Y-75411227D01*
X181096214Y-75363616D01*
X181151719Y-75350500D01*
X182885500Y-75350500D01*
X182952539Y-75370185D01*
G37*
%TD.AperFunction*%
%TD*%
M02*
