%TF.GenerationSoftware,KiCad,Pcbnew,9.0.1-1.fc42*%
%TF.CreationDate,2025-05-12T11:46:39+02:00*%
%TF.ProjectId,PreAmp,50726541-6d70-42e6-9b69-6361645f7063,1*%
%TF.SameCoordinates,Original*%
%TF.FileFunction,Copper,L2,Bot*%
%TF.FilePolarity,Positive*%
%FSLAX46Y46*%
G04 Gerber Fmt 4.6, Leading zero omitted, Abs format (unit mm)*
G04 Created by KiCad (PCBNEW 9.0.1-1.fc42) date 2025-05-12 11:46:39*
%MOMM*%
%LPD*%
G01*
G04 APERTURE LIST*
%TA.AperFunction,ComponentPad*%
%ADD10C,3.400000*%
%TD*%
%TA.AperFunction,ComponentPad*%
%ADD11C,2.900000*%
%TD*%
%TA.AperFunction,ConnectorPad*%
%ADD12C,5.600000*%
%TD*%
%TA.AperFunction,ComponentPad*%
%ADD13C,3.600000*%
%TD*%
%TA.AperFunction,ComponentPad*%
%ADD14O,2.720000X3.240000*%
%TD*%
%TA.AperFunction,ComponentPad*%
%ADD15R,1.800000X1.800000*%
%TD*%
%TA.AperFunction,ComponentPad*%
%ADD16C,1.800000*%
%TD*%
%TA.AperFunction,ComponentPad*%
%ADD17R,1.600000X1.600000*%
%TD*%
%TA.AperFunction,ComponentPad*%
%ADD18O,1.600000X1.600000*%
%TD*%
%TA.AperFunction,ComponentPad*%
%ADD19R,1.700000X1.700000*%
%TD*%
%TA.AperFunction,ComponentPad*%
%ADD20C,1.700000*%
%TD*%
%TA.AperFunction,ViaPad*%
%ADD21C,0.600000*%
%TD*%
%TA.AperFunction,Conductor*%
%ADD22C,0.500000*%
%TD*%
%TA.AperFunction,Conductor*%
%ADD23C,0.200000*%
%TD*%
G04 APERTURE END LIST*
D10*
%TO.P,J1,1*%
%TO.N,GND*%
X173300000Y-95330000D03*
%TO.P,J1,2*%
%TO.N,/XLR+*%
X165680000Y-95330000D03*
D11*
%TO.P,J1,3*%
%TO.N,/XLR-*%
X169490000Y-99780000D03*
%TD*%
D12*
%TO.P,H4,1,1*%
%TO.N,GND*%
X179750000Y-78600000D03*
D13*
X179750000Y-78600000D03*
%TD*%
%TO.P,H1,1,1*%
%TO.N,GND*%
X179750000Y-117200000D03*
D12*
X179750000Y-117200000D03*
%TD*%
D14*
%TO.P,RV1,*%
%TO.N,*%
X134900000Y-115400000D03*
X125300000Y-115400000D03*
D15*
%TO.P,RV1,1,1*%
%TO.N,Net-(JP1-A)*%
X132600000Y-107900000D03*
D16*
%TO.P,RV1,2,2*%
%TO.N,Net-(U2-RG1)*%
X130100000Y-107900000D03*
%TO.P,RV1,3,3*%
%TO.N,Net-(R5-Pad1)*%
X127600000Y-107900000D03*
%TD*%
D17*
%TO.P,D4,1,K*%
%TO.N,/Cont-*%
X146370000Y-102030000D03*
D18*
%TO.P,D4,2,A*%
%TO.N,-6V*%
X146370000Y-109650000D03*
%TD*%
D17*
%TO.P,D2,1,K*%
%TO.N,/Cont+*%
X146380000Y-99730000D03*
D18*
%TO.P,D2,2,A*%
%TO.N,-6V*%
X146380000Y-92110000D03*
%TD*%
D19*
%TO.P,J2,1,Pin_1*%
%TO.N,Out*%
X117808000Y-98900000D03*
D20*
%TO.P,J2,2,Pin_2*%
%TO.N,GND*%
X117808000Y-96360000D03*
%TO.P,J2,3,Pin_3*%
%TO.N,-6V*%
X117808000Y-93820000D03*
%TO.P,J2,4,Pin_4*%
%TO.N,GND*%
X117808000Y-91280000D03*
%TO.P,J2,5,Pin_5*%
%TO.N,6V*%
X117808000Y-88740000D03*
%TD*%
D17*
%TO.P,D1,1,K*%
%TO.N,6V*%
X149640000Y-92110000D03*
D18*
%TO.P,D1,2,A*%
%TO.N,/Cont+*%
X149640000Y-99730000D03*
%TD*%
D13*
%TO.P,H2,1,1*%
%TO.N,GND*%
X119000000Y-117200000D03*
D12*
X119000000Y-117200000D03*
%TD*%
D13*
%TO.P,H3,1,1*%
%TO.N,GND*%
X119000000Y-78600000D03*
D12*
X119000000Y-78600000D03*
%TD*%
D17*
%TO.P,D3,1,K*%
%TO.N,6V*%
X149630000Y-109660000D03*
D18*
%TO.P,D3,2,A*%
%TO.N,/Cont-*%
X149630000Y-102040000D03*
%TD*%
D21*
%TO.N,GND*%
X127670000Y-90400000D03*
X127320000Y-92620000D03*
%TO.N,-6V*%
X132270000Y-97700000D03*
%TO.N,6V*%
X123400000Y-100400000D03*
X121500000Y-95000000D03*
%TD*%
D22*
%TO.N,6V*%
X151600000Y-107600000D02*
X149600000Y-109600000D01*
X149800000Y-91980000D02*
X151600000Y-93780000D01*
X151600000Y-93780000D02*
X151600000Y-107600000D01*
%TO.N,-6V*%
X146220000Y-91960000D02*
X144200000Y-93980000D01*
X144200000Y-107400000D02*
X146400000Y-109600000D01*
X117808000Y-93820000D02*
X128400000Y-93820000D01*
X132280000Y-93580000D02*
X137000000Y-93580000D01*
X128400000Y-93830000D02*
X128400000Y-93820000D01*
X138620000Y-91960000D02*
X146220000Y-91960000D01*
X128400000Y-93820000D02*
X132040000Y-93820000D01*
X132040000Y-93820000D02*
X132280000Y-93580000D01*
X132270000Y-97700000D02*
X128400000Y-93830000D01*
X137000000Y-93580000D02*
X138620000Y-91960000D01*
X144200000Y-93980000D02*
X144200000Y-107400000D01*
%TO.N,6V*%
X121500000Y-98500000D02*
X121500000Y-95000000D01*
X123400000Y-100400000D02*
X121500000Y-98500000D01*
X149600000Y-91980000D02*
X149800000Y-91980000D01*
X146445000Y-88805000D02*
X149600000Y-91960000D01*
D23*
X149600000Y-91960000D02*
X149600000Y-91980000D01*
D22*
X146380000Y-88740000D02*
X146445000Y-88805000D01*
X117808000Y-88740000D02*
X146380000Y-88740000D01*
%TD*%
%TA.AperFunction,Conductor*%
%TO.N,GND*%
G36*
X117779588Y-118242330D02*
G01*
X117957670Y-118420412D01*
X118059300Y-118494251D01*
X116849443Y-119704107D01*
X116849444Y-119704108D01*
X117031815Y-119853777D01*
X117031829Y-119853787D01*
X117301401Y-120033909D01*
X117301419Y-120033920D01*
X117587359Y-120186759D01*
X117587364Y-120186761D01*
X117766444Y-120260939D01*
X117820847Y-120304780D01*
X117842912Y-120371074D01*
X117825633Y-120438774D01*
X117774495Y-120486384D01*
X117718991Y-120499500D01*
X115874500Y-120499500D01*
X115807461Y-120479815D01*
X115761706Y-120427011D01*
X115750500Y-120375500D01*
X115750500Y-118601719D01*
X115770185Y-118534680D01*
X115822989Y-118488925D01*
X115892147Y-118478981D01*
X115955703Y-118508006D01*
X115989061Y-118554267D01*
X116013235Y-118612628D01*
X116013240Y-118612640D01*
X116166079Y-118898580D01*
X116166090Y-118898598D01*
X116346212Y-119168170D01*
X116346222Y-119168184D01*
X116495890Y-119350554D01*
X116495891Y-119350555D01*
X117705748Y-118140698D01*
X117779588Y-118242330D01*
G37*
%TD.AperFunction*%
%TA.AperFunction,Conductor*%
G36*
X178415320Y-75370185D02*
G01*
X178461075Y-75422989D01*
X178471019Y-75492147D01*
X178441994Y-75555703D01*
X178395733Y-75589061D01*
X178337371Y-75613235D01*
X178337359Y-75613240D01*
X178051419Y-75766079D01*
X178051401Y-75766090D01*
X177781829Y-75946212D01*
X177781815Y-75946222D01*
X177599444Y-76095890D01*
X177599443Y-76095891D01*
X178809301Y-77305748D01*
X178707670Y-77379588D01*
X178529588Y-77557670D01*
X178455748Y-77659301D01*
X177245891Y-76449443D01*
X177245890Y-76449444D01*
X177096222Y-76631815D01*
X177096212Y-76631829D01*
X176916090Y-76901401D01*
X176916079Y-76901419D01*
X176763240Y-77187359D01*
X176763238Y-77187364D01*
X176639157Y-77486921D01*
X176545033Y-77797207D01*
X176545030Y-77797218D01*
X176481782Y-78115198D01*
X176481779Y-78115215D01*
X176450000Y-78437884D01*
X176450000Y-78762115D01*
X176481779Y-79084784D01*
X176481782Y-79084801D01*
X176545030Y-79402781D01*
X176545033Y-79402792D01*
X176639157Y-79713078D01*
X176763238Y-80012635D01*
X176763240Y-80012640D01*
X176916079Y-80298580D01*
X176916090Y-80298598D01*
X177096212Y-80568170D01*
X177096222Y-80568184D01*
X177245890Y-80750554D01*
X177245891Y-80750555D01*
X178455748Y-79540698D01*
X178529588Y-79642330D01*
X178707670Y-79820412D01*
X178809300Y-79894251D01*
X177599443Y-81104107D01*
X177599444Y-81104108D01*
X177781815Y-81253777D01*
X177781829Y-81253787D01*
X178051401Y-81433909D01*
X178051419Y-81433920D01*
X178337359Y-81586759D01*
X178337364Y-81586761D01*
X178636921Y-81710842D01*
X178947207Y-81804966D01*
X178947218Y-81804969D01*
X179265198Y-81868217D01*
X179265215Y-81868220D01*
X179587884Y-81900000D01*
X179912116Y-81900000D01*
X180234784Y-81868220D01*
X180234801Y-81868217D01*
X180552781Y-81804969D01*
X180552792Y-81804966D01*
X180863078Y-81710842D01*
X181162635Y-81586761D01*
X181162640Y-81586759D01*
X181448580Y-81433920D01*
X181448598Y-81433909D01*
X181718170Y-81253787D01*
X181718183Y-81253777D01*
X181900554Y-81104108D01*
X181900554Y-81104107D01*
X180690698Y-79894251D01*
X180792330Y-79820412D01*
X180970412Y-79642330D01*
X181044251Y-79540698D01*
X182254107Y-80750554D01*
X182254108Y-80750554D01*
X182403777Y-80568183D01*
X182403787Y-80568170D01*
X182583909Y-80298598D01*
X182583920Y-80298580D01*
X182736759Y-80012640D01*
X182736761Y-80012635D01*
X182770939Y-79930124D01*
X182814780Y-79875721D01*
X182881074Y-79853656D01*
X182948773Y-79870935D01*
X182996384Y-79922072D01*
X183009500Y-79977577D01*
X183009500Y-115822422D01*
X182989815Y-115889461D01*
X182937011Y-115935216D01*
X182867853Y-115945160D01*
X182804297Y-115916135D01*
X182770939Y-115869875D01*
X182736761Y-115787364D01*
X182736759Y-115787359D01*
X182583920Y-115501419D01*
X182583909Y-115501401D01*
X182403787Y-115231829D01*
X182403777Y-115231815D01*
X182254108Y-115049444D01*
X182254107Y-115049443D01*
X181044250Y-116259299D01*
X180970412Y-116157670D01*
X180792330Y-115979588D01*
X180690697Y-115905747D01*
X181900555Y-114695891D01*
X181900554Y-114695890D01*
X181718184Y-114546222D01*
X181718170Y-114546212D01*
X181448598Y-114366090D01*
X181448580Y-114366079D01*
X181162640Y-114213240D01*
X181162635Y-114213238D01*
X180863078Y-114089157D01*
X180552792Y-113995033D01*
X180552781Y-113995030D01*
X180234801Y-113931782D01*
X180234784Y-113931779D01*
X179912116Y-113900000D01*
X179587884Y-113900000D01*
X179265215Y-113931779D01*
X179265198Y-113931782D01*
X178947218Y-113995030D01*
X178947207Y-113995033D01*
X178636921Y-114089157D01*
X178337364Y-114213238D01*
X178337359Y-114213240D01*
X178051419Y-114366079D01*
X178051401Y-114366090D01*
X177781829Y-114546212D01*
X177781815Y-114546222D01*
X177599444Y-114695890D01*
X177599443Y-114695891D01*
X178809301Y-115905748D01*
X178707670Y-115979588D01*
X178529588Y-116157670D01*
X178455748Y-116259301D01*
X177245891Y-115049443D01*
X177245890Y-115049444D01*
X177096222Y-115231815D01*
X177096212Y-115231829D01*
X176916090Y-115501401D01*
X176916079Y-115501419D01*
X176763240Y-115787359D01*
X176763238Y-115787364D01*
X176639157Y-116086921D01*
X176545033Y-116397207D01*
X176545030Y-116397218D01*
X176481782Y-116715198D01*
X176481779Y-116715215D01*
X176450000Y-117037884D01*
X176450000Y-117362115D01*
X176481779Y-117684784D01*
X176481782Y-117684801D01*
X176545030Y-118002781D01*
X176545033Y-118002792D01*
X176639157Y-118313078D01*
X176763238Y-118612635D01*
X176763240Y-118612640D01*
X176916079Y-118898580D01*
X176916090Y-118898598D01*
X177096212Y-119168170D01*
X177096222Y-119168184D01*
X177245890Y-119350554D01*
X177245891Y-119350555D01*
X178455748Y-118140698D01*
X178529588Y-118242330D01*
X178707670Y-118420412D01*
X178809300Y-118494251D01*
X177599443Y-119704107D01*
X177599444Y-119704108D01*
X177781815Y-119853777D01*
X177781829Y-119853787D01*
X178051401Y-120033909D01*
X178051419Y-120033920D01*
X178337359Y-120186759D01*
X178337364Y-120186761D01*
X178516444Y-120260939D01*
X178570847Y-120304780D01*
X178592912Y-120371074D01*
X178575633Y-120438774D01*
X178524495Y-120486384D01*
X178468991Y-120499500D01*
X120281009Y-120499500D01*
X120213970Y-120479815D01*
X120168215Y-120427011D01*
X120158271Y-120357853D01*
X120187296Y-120294297D01*
X120233556Y-120260939D01*
X120412635Y-120186761D01*
X120412640Y-120186759D01*
X120698580Y-120033920D01*
X120698598Y-120033909D01*
X120968170Y-119853787D01*
X120968183Y-119853777D01*
X121150554Y-119704108D01*
X121150554Y-119704107D01*
X119940698Y-118494251D01*
X120042330Y-118420412D01*
X120220412Y-118242330D01*
X120294251Y-118140698D01*
X121504107Y-119350554D01*
X121504108Y-119350554D01*
X121653777Y-119168183D01*
X121653787Y-119168170D01*
X121833909Y-118898598D01*
X121833920Y-118898580D01*
X121986759Y-118612640D01*
X121986761Y-118612635D01*
X122110842Y-118313078D01*
X122204966Y-118002792D01*
X122204969Y-118002781D01*
X122268217Y-117684801D01*
X122268220Y-117684784D01*
X122300000Y-117362115D01*
X122300000Y-117037884D01*
X122268220Y-116715215D01*
X122268217Y-116715198D01*
X122204969Y-116397218D01*
X122204966Y-116397207D01*
X122110842Y-116086921D01*
X121986761Y-115787364D01*
X121986759Y-115787359D01*
X121833920Y-115501419D01*
X121833909Y-115501401D01*
X121653787Y-115231829D01*
X121653777Y-115231816D01*
X121539576Y-115092662D01*
X121504107Y-115049443D01*
X120294250Y-116259300D01*
X120220412Y-116157670D01*
X120042330Y-115979588D01*
X119940697Y-115905747D01*
X120828397Y-115018048D01*
X123439500Y-115018048D01*
X123439500Y-115781951D01*
X123457167Y-115916135D01*
X123471334Y-116023744D01*
X123471335Y-116023746D01*
X123534456Y-116259320D01*
X123534459Y-116259330D01*
X123627786Y-116484640D01*
X123627791Y-116484651D01*
X123749727Y-116695848D01*
X123749738Y-116695864D01*
X123898199Y-116889343D01*
X123898205Y-116889350D01*
X124070649Y-117061794D01*
X124070655Y-117061799D01*
X124264144Y-117210268D01*
X124264151Y-117210272D01*
X124475348Y-117332208D01*
X124475353Y-117332210D01*
X124475356Y-117332212D01*
X124700679Y-117425544D01*
X124936256Y-117488666D01*
X125178056Y-117520500D01*
X125178063Y-117520500D01*
X125421937Y-117520500D01*
X125421944Y-117520500D01*
X125663744Y-117488666D01*
X125899321Y-117425544D01*
X126124644Y-117332212D01*
X126335856Y-117210268D01*
X126529345Y-117061799D01*
X126701799Y-116889345D01*
X126850268Y-116695856D01*
X126972212Y-116484644D01*
X127065544Y-116259321D01*
X127128666Y-116023744D01*
X127160500Y-115781944D01*
X127160500Y-115018056D01*
X127160499Y-115018048D01*
X133039500Y-115018048D01*
X133039500Y-115781951D01*
X133057167Y-115916135D01*
X133071334Y-116023744D01*
X133071335Y-116023746D01*
X133134456Y-116259320D01*
X133134459Y-116259330D01*
X133227786Y-116484640D01*
X133227791Y-116484651D01*
X133349727Y-116695848D01*
X133349738Y-116695864D01*
X133498199Y-116889343D01*
X133498205Y-116889350D01*
X133670649Y-117061794D01*
X133670655Y-117061799D01*
X133864144Y-117210268D01*
X133864151Y-117210272D01*
X134075348Y-117332208D01*
X134075353Y-117332210D01*
X134075356Y-117332212D01*
X134300679Y-117425544D01*
X134536256Y-117488666D01*
X134778056Y-117520500D01*
X134778063Y-117520500D01*
X135021937Y-117520500D01*
X135021944Y-117520500D01*
X135263744Y-117488666D01*
X135499321Y-117425544D01*
X135724644Y-117332212D01*
X135935856Y-117210268D01*
X136129345Y-117061799D01*
X136153260Y-117037884D01*
X136243989Y-116947156D01*
X136301794Y-116889350D01*
X136301799Y-116889345D01*
X136450268Y-116695856D01*
X136572212Y-116484644D01*
X136665544Y-116259321D01*
X136728666Y-116023744D01*
X136760500Y-115781944D01*
X136760500Y-115018056D01*
X136728666Y-114776256D01*
X136665544Y-114540679D01*
X136572212Y-114315356D01*
X136572210Y-114315353D01*
X136572208Y-114315348D01*
X136450272Y-114104151D01*
X136450268Y-114104144D01*
X136301799Y-113910655D01*
X136301794Y-113910649D01*
X136129350Y-113738205D01*
X136129343Y-113738199D01*
X135935864Y-113589738D01*
X135935862Y-113589736D01*
X135935856Y-113589732D01*
X135935851Y-113589729D01*
X135935848Y-113589727D01*
X135724651Y-113467791D01*
X135724640Y-113467786D01*
X135499330Y-113374459D01*
X135499323Y-113374457D01*
X135499321Y-113374456D01*
X135263744Y-113311334D01*
X135223333Y-113306013D01*
X135021951Y-113279500D01*
X135021944Y-113279500D01*
X134778056Y-113279500D01*
X134778048Y-113279500D01*
X134547896Y-113309801D01*
X134536256Y-113311334D01*
X134300679Y-113374456D01*
X134300669Y-113374459D01*
X134075359Y-113467786D01*
X134075348Y-113467791D01*
X133864151Y-113589727D01*
X133864135Y-113589738D01*
X133670656Y-113738199D01*
X133670649Y-113738205D01*
X133498205Y-113910649D01*
X133498199Y-113910656D01*
X133349738Y-114104135D01*
X133349727Y-114104151D01*
X133227791Y-114315348D01*
X133227786Y-114315359D01*
X133134459Y-114540669D01*
X133134456Y-114540679D01*
X133071336Y-114776251D01*
X133071335Y-114776253D01*
X133071333Y-114776264D01*
X133039500Y-115018048D01*
X127160499Y-115018048D01*
X127128666Y-114776256D01*
X127065544Y-114540679D01*
X126972212Y-114315356D01*
X126972210Y-114315353D01*
X126972208Y-114315348D01*
X126850272Y-114104151D01*
X126850268Y-114104144D01*
X126701799Y-113910655D01*
X126701794Y-113910649D01*
X126529350Y-113738205D01*
X126529343Y-113738199D01*
X126335864Y-113589738D01*
X126335862Y-113589736D01*
X126335856Y-113589732D01*
X126335851Y-113589729D01*
X126335848Y-113589727D01*
X126124651Y-113467791D01*
X126124640Y-113467786D01*
X125899330Y-113374459D01*
X125899323Y-113374457D01*
X125899321Y-113374456D01*
X125663744Y-113311334D01*
X125623333Y-113306013D01*
X125421951Y-113279500D01*
X125421944Y-113279500D01*
X125178056Y-113279500D01*
X125178048Y-113279500D01*
X124947896Y-113309801D01*
X124936256Y-113311334D01*
X124700679Y-113374456D01*
X124700669Y-113374459D01*
X124475359Y-113467786D01*
X124475348Y-113467791D01*
X124264151Y-113589727D01*
X124264135Y-113589738D01*
X124070656Y-113738199D01*
X124070649Y-113738205D01*
X123898205Y-113910649D01*
X123898199Y-113910656D01*
X123749738Y-114104135D01*
X123749727Y-114104151D01*
X123627791Y-114315348D01*
X123627786Y-114315359D01*
X123534459Y-114540669D01*
X123534456Y-114540679D01*
X123471336Y-114776251D01*
X123471335Y-114776253D01*
X123471333Y-114776264D01*
X123439500Y-115018048D01*
X120828397Y-115018048D01*
X121150555Y-114695891D01*
X121150554Y-114695890D01*
X120968184Y-114546222D01*
X120968170Y-114546212D01*
X120698598Y-114366090D01*
X120698580Y-114366079D01*
X120412640Y-114213240D01*
X120412635Y-114213238D01*
X120113078Y-114089157D01*
X119802792Y-113995033D01*
X119802781Y-113995030D01*
X119484801Y-113931782D01*
X119484784Y-113931779D01*
X119162116Y-113900000D01*
X118837884Y-113900000D01*
X118515215Y-113931779D01*
X118515198Y-113931782D01*
X118197218Y-113995030D01*
X118197207Y-113995033D01*
X117886921Y-114089157D01*
X117587364Y-114213238D01*
X117587359Y-114213240D01*
X117301419Y-114366079D01*
X117301401Y-114366090D01*
X117031829Y-114546212D01*
X117031815Y-114546222D01*
X116849444Y-114695890D01*
X116849443Y-114695891D01*
X118059301Y-115905748D01*
X117957670Y-115979588D01*
X117779588Y-116157670D01*
X117705748Y-116259301D01*
X116495891Y-115049443D01*
X116495890Y-115049444D01*
X116346222Y-115231815D01*
X116346212Y-115231829D01*
X116166090Y-115501401D01*
X116166079Y-115501419D01*
X116013240Y-115787359D01*
X116013238Y-115787364D01*
X115989061Y-115845733D01*
X115945220Y-115900136D01*
X115878925Y-115922201D01*
X115811226Y-115904922D01*
X115763616Y-115853784D01*
X115750500Y-115798280D01*
X115750500Y-107789776D01*
X126199500Y-107789776D01*
X126199500Y-108010221D01*
X126233985Y-108227952D01*
X126302103Y-108437603D01*
X126302104Y-108437606D01*
X126402187Y-108634025D01*
X126531752Y-108812358D01*
X126531756Y-108812363D01*
X126687636Y-108968243D01*
X126687641Y-108968247D01*
X126789610Y-109042331D01*
X126865978Y-109097815D01*
X126994375Y-109163237D01*
X127062393Y-109197895D01*
X127062396Y-109197896D01*
X127167221Y-109231955D01*
X127272049Y-109266015D01*
X127489778Y-109300500D01*
X127489779Y-109300500D01*
X127710221Y-109300500D01*
X127710222Y-109300500D01*
X127927951Y-109266015D01*
X128137606Y-109197895D01*
X128334022Y-109097815D01*
X128512365Y-108968242D01*
X128668242Y-108812365D01*
X128749682Y-108700270D01*
X128805011Y-108657606D01*
X128874624Y-108651627D01*
X128936420Y-108684232D01*
X128950313Y-108700265D01*
X129031577Y-108812116D01*
X129031758Y-108812365D01*
X129187636Y-108968243D01*
X129187641Y-108968247D01*
X129289610Y-109042331D01*
X129365978Y-109097815D01*
X129494375Y-109163237D01*
X129562393Y-109197895D01*
X129562396Y-109197896D01*
X129667221Y-109231955D01*
X129772049Y-109266015D01*
X129989778Y-109300500D01*
X129989779Y-109300500D01*
X130210221Y-109300500D01*
X130210222Y-109300500D01*
X130427951Y-109266015D01*
X130637606Y-109197895D01*
X130834022Y-109097815D01*
X131012365Y-108968242D01*
X131033401Y-108947205D01*
X131094721Y-108913720D01*
X131164413Y-108918703D01*
X131220348Y-108960574D01*
X131237264Y-108991552D01*
X131256203Y-109042329D01*
X131256206Y-109042335D01*
X131342452Y-109157544D01*
X131342455Y-109157547D01*
X131457664Y-109243793D01*
X131457671Y-109243797D01*
X131592517Y-109294091D01*
X131592516Y-109294091D01*
X131599444Y-109294835D01*
X131652127Y-109300500D01*
X133547872Y-109300499D01*
X133607483Y-109294091D01*
X133742331Y-109243796D01*
X133857546Y-109157546D01*
X133943796Y-109042331D01*
X133994091Y-108907483D01*
X134000500Y-108847873D01*
X134000499Y-106952128D01*
X133994091Y-106892517D01*
X133979275Y-106852794D01*
X133943797Y-106757671D01*
X133943793Y-106757664D01*
X133857547Y-106642455D01*
X133857544Y-106642452D01*
X133742335Y-106556206D01*
X133742328Y-106556202D01*
X133607482Y-106505908D01*
X133607483Y-106505908D01*
X133547883Y-106499501D01*
X133547881Y-106499500D01*
X133547873Y-106499500D01*
X133547864Y-106499500D01*
X131652129Y-106499500D01*
X131652123Y-106499501D01*
X131592516Y-106505908D01*
X131457671Y-106556202D01*
X131457664Y-106556206D01*
X131342455Y-106642452D01*
X131342452Y-106642455D01*
X131256206Y-106757664D01*
X131256201Y-106757674D01*
X131237263Y-106808448D01*
X131195391Y-106864381D01*
X131129927Y-106888797D01*
X131061654Y-106873945D01*
X131033401Y-106852794D01*
X131012363Y-106831756D01*
X131012358Y-106831752D01*
X130834025Y-106702187D01*
X130834024Y-106702186D01*
X130834022Y-106702185D01*
X130716791Y-106642452D01*
X130637606Y-106602104D01*
X130637603Y-106602103D01*
X130427952Y-106533985D01*
X130319086Y-106516742D01*
X130210222Y-106499500D01*
X129989778Y-106499500D01*
X129917201Y-106510995D01*
X129772047Y-106533985D01*
X129562396Y-106602103D01*
X129562393Y-106602104D01*
X129365974Y-106702187D01*
X129187641Y-106831752D01*
X129187636Y-106831756D01*
X129031756Y-106987636D01*
X129031752Y-106987641D01*
X128950318Y-107099727D01*
X128894989Y-107142393D01*
X128825375Y-107148372D01*
X128763580Y-107115767D01*
X128749682Y-107099727D01*
X128668247Y-106987641D01*
X128668243Y-106987636D01*
X128512363Y-106831756D01*
X128512358Y-106831752D01*
X128334025Y-106702187D01*
X128334024Y-106702186D01*
X128334022Y-106702185D01*
X128216791Y-106642452D01*
X128137606Y-106602104D01*
X128137603Y-106602103D01*
X127927952Y-106533985D01*
X127819086Y-106516742D01*
X127710222Y-106499500D01*
X127489778Y-106499500D01*
X127417201Y-106510995D01*
X127272047Y-106533985D01*
X127062396Y-106602103D01*
X127062393Y-106602104D01*
X126865974Y-106702187D01*
X126687641Y-106831752D01*
X126687636Y-106831756D01*
X126531756Y-106987636D01*
X126531752Y-106987641D01*
X126402187Y-107165974D01*
X126302104Y-107362393D01*
X126302103Y-107362396D01*
X126233985Y-107572047D01*
X126199500Y-107789776D01*
X115750500Y-107789776D01*
X115750500Y-88633713D01*
X116457500Y-88633713D01*
X116457500Y-88846286D01*
X116490753Y-89056239D01*
X116556444Y-89258414D01*
X116652951Y-89447820D01*
X116777890Y-89619786D01*
X116928213Y-89770109D01*
X117100179Y-89895048D01*
X117100181Y-89895049D01*
X117100184Y-89895051D01*
X117109493Y-89899794D01*
X117160290Y-89947766D01*
X117177087Y-90015587D01*
X117154552Y-90081722D01*
X117109505Y-90120760D01*
X117100446Y-90125376D01*
X117100440Y-90125380D01*
X117046282Y-90164727D01*
X117046282Y-90164728D01*
X117678591Y-90797037D01*
X117615007Y-90814075D01*
X117500993Y-90879901D01*
X117407901Y-90972993D01*
X117342075Y-91087007D01*
X117325037Y-91150591D01*
X116692728Y-90518282D01*
X116692727Y-90518282D01*
X116653380Y-90572439D01*
X116556904Y-90761782D01*
X116491242Y-90963869D01*
X116491242Y-90963872D01*
X116458000Y-91173753D01*
X116458000Y-91386246D01*
X116491242Y-91596127D01*
X116491242Y-91596130D01*
X116556904Y-91798217D01*
X116653375Y-91987550D01*
X116692728Y-92041716D01*
X117325037Y-91409408D01*
X117342075Y-91472993D01*
X117407901Y-91587007D01*
X117500993Y-91680099D01*
X117615007Y-91745925D01*
X117678590Y-91762962D01*
X117046282Y-92395269D01*
X117046282Y-92395270D01*
X117100452Y-92434626D01*
X117100451Y-92434626D01*
X117109495Y-92439234D01*
X117160292Y-92487208D01*
X117177087Y-92555029D01*
X117154550Y-92621164D01*
X117109499Y-92660202D01*
X117100182Y-92664949D01*
X116928213Y-92789890D01*
X116777890Y-92940213D01*
X116652951Y-93112179D01*
X116556444Y-93301585D01*
X116490753Y-93503760D01*
X116471629Y-93624505D01*
X116457500Y-93713713D01*
X116457500Y-93926287D01*
X116490754Y-94136243D01*
X116554195Y-94331494D01*
X116556444Y-94338414D01*
X116652951Y-94527820D01*
X116777890Y-94699786D01*
X116928213Y-94850109D01*
X117100179Y-94975048D01*
X117100181Y-94975049D01*
X117100184Y-94975051D01*
X117109493Y-94979794D01*
X117160290Y-95027766D01*
X117177087Y-95095587D01*
X117154552Y-95161722D01*
X117109505Y-95200760D01*
X117100446Y-95205376D01*
X117100440Y-95205380D01*
X117046282Y-95244727D01*
X117046282Y-95244728D01*
X117678591Y-95877037D01*
X117615007Y-95894075D01*
X117500993Y-95959901D01*
X117407901Y-96052993D01*
X117342075Y-96167007D01*
X117325037Y-96230591D01*
X116692728Y-95598282D01*
X116692727Y-95598282D01*
X116653380Y-95652439D01*
X116556904Y-95841782D01*
X116491242Y-96043869D01*
X116491242Y-96043872D01*
X116458000Y-96253753D01*
X116458000Y-96466246D01*
X116491242Y-96676127D01*
X116491242Y-96676130D01*
X116556904Y-96878217D01*
X116653375Y-97067550D01*
X116692728Y-97121716D01*
X117325037Y-96489408D01*
X117342075Y-96552993D01*
X117407901Y-96667007D01*
X117500993Y-96760099D01*
X117615007Y-96825925D01*
X117678590Y-96842962D01*
X117008370Y-97513181D01*
X116947047Y-97546666D01*
X116920698Y-97549500D01*
X116910134Y-97549500D01*
X116910123Y-97549501D01*
X116850516Y-97555908D01*
X116715671Y-97606202D01*
X116715664Y-97606206D01*
X116600455Y-97692452D01*
X116600452Y-97692455D01*
X116514206Y-97807664D01*
X116514202Y-97807671D01*
X116463908Y-97942517D01*
X116457501Y-98002116D01*
X116457501Y-98002123D01*
X116457500Y-98002135D01*
X116457500Y-99797870D01*
X116457501Y-99797876D01*
X116463908Y-99857483D01*
X116514202Y-99992328D01*
X116514206Y-99992335D01*
X116600452Y-100107544D01*
X116600455Y-100107547D01*
X116715664Y-100193793D01*
X116715671Y-100193797D01*
X116850517Y-100244091D01*
X116850516Y-100244091D01*
X116857444Y-100244835D01*
X116910127Y-100250500D01*
X118705872Y-100250499D01*
X118765483Y-100244091D01*
X118900331Y-100193796D01*
X119015546Y-100107546D01*
X119101796Y-99992331D01*
X119152091Y-99857483D01*
X119158500Y-99797873D01*
X119158499Y-98002128D01*
X119152091Y-97942517D01*
X119148728Y-97933501D01*
X119101797Y-97807671D01*
X119101793Y-97807664D01*
X119015547Y-97692455D01*
X119015544Y-97692452D01*
X118900335Y-97606206D01*
X118900328Y-97606202D01*
X118765482Y-97555908D01*
X118765483Y-97555908D01*
X118705883Y-97549501D01*
X118705881Y-97549500D01*
X118705873Y-97549500D01*
X118705865Y-97549500D01*
X118695309Y-97549500D01*
X118628270Y-97529815D01*
X118607628Y-97513181D01*
X117937408Y-96842962D01*
X118000993Y-96825925D01*
X118115007Y-96760099D01*
X118208099Y-96667007D01*
X118273925Y-96552993D01*
X118290962Y-96489409D01*
X118923270Y-97121717D01*
X118923270Y-97121716D01*
X118962622Y-97067554D01*
X119059095Y-96878217D01*
X119124757Y-96676130D01*
X119124757Y-96676127D01*
X119158000Y-96466246D01*
X119158000Y-96253753D01*
X119124757Y-96043872D01*
X119124757Y-96043869D01*
X119059095Y-95841782D01*
X118962624Y-95652449D01*
X118923270Y-95598282D01*
X118923269Y-95598282D01*
X118290962Y-96230590D01*
X118273925Y-96167007D01*
X118208099Y-96052993D01*
X118115007Y-95959901D01*
X118000993Y-95894075D01*
X117937409Y-95877037D01*
X118569716Y-95244728D01*
X118515547Y-95205373D01*
X118515547Y-95205372D01*
X118506500Y-95200763D01*
X118455706Y-95152788D01*
X118438912Y-95084966D01*
X118461451Y-95018832D01*
X118506508Y-94979793D01*
X118515816Y-94975051D01*
X118595007Y-94917515D01*
X118687786Y-94850109D01*
X118687788Y-94850106D01*
X118687792Y-94850104D01*
X118838104Y-94699792D01*
X118857945Y-94672483D01*
X118894903Y-94621615D01*
X118950233Y-94578949D01*
X118995221Y-94570500D01*
X120625871Y-94570500D01*
X120692910Y-94590185D01*
X120738665Y-94642989D01*
X120748609Y-94712147D01*
X120740432Y-94741952D01*
X120730264Y-94766498D01*
X120730261Y-94766510D01*
X120699500Y-94921153D01*
X120699500Y-95078846D01*
X120730261Y-95233489D01*
X120730263Y-95233497D01*
X120740061Y-95257151D01*
X120749500Y-95304604D01*
X120749500Y-98573918D01*
X120749500Y-98573920D01*
X120749499Y-98573920D01*
X120778340Y-98718907D01*
X120778343Y-98718917D01*
X120834912Y-98855487D01*
X120834916Y-98855495D01*
X120840667Y-98864101D01*
X120840668Y-98864106D01*
X120840670Y-98864106D01*
X120917051Y-98978420D01*
X120917052Y-98978421D01*
X122653927Y-100715295D01*
X122680807Y-100755523D01*
X122690604Y-100779175D01*
X122690609Y-100779185D01*
X122778210Y-100910288D01*
X122778213Y-100910292D01*
X122889707Y-101021786D01*
X122889711Y-101021789D01*
X123020814Y-101109390D01*
X123020827Y-101109397D01*
X123166498Y-101169735D01*
X123166503Y-101169737D01*
X123304603Y-101197207D01*
X123321153Y-101200499D01*
X123321156Y-101200500D01*
X123321158Y-101200500D01*
X123478844Y-101200500D01*
X123478845Y-101200499D01*
X123633497Y-101169737D01*
X123779179Y-101109394D01*
X123910289Y-101021789D01*
X124021789Y-100910289D01*
X124109394Y-100779179D01*
X124169737Y-100633497D01*
X124200500Y-100478842D01*
X124200500Y-100321158D01*
X124200500Y-100321155D01*
X124200499Y-100321153D01*
X124169738Y-100166510D01*
X124169737Y-100166503D01*
X124169735Y-100166498D01*
X124109397Y-100020827D01*
X124109390Y-100020814D01*
X124021789Y-99889711D01*
X124021786Y-99889707D01*
X123910292Y-99778213D01*
X123910288Y-99778210D01*
X123779185Y-99690609D01*
X123779175Y-99690604D01*
X123755523Y-99680807D01*
X123715295Y-99653927D01*
X122286819Y-98225451D01*
X122253334Y-98164128D01*
X122250500Y-98137770D01*
X122250500Y-95304604D01*
X122259939Y-95257151D01*
X122262401Y-95251207D01*
X122269737Y-95233497D01*
X122300500Y-95078842D01*
X122300500Y-94921158D01*
X122300500Y-94921155D01*
X122300499Y-94921153D01*
X122280384Y-94820030D01*
X122269737Y-94766503D01*
X122259568Y-94741952D01*
X122252099Y-94672483D01*
X122283374Y-94610004D01*
X122343463Y-94574352D01*
X122374129Y-94570500D01*
X128027770Y-94570500D01*
X128094809Y-94590185D01*
X128115451Y-94606819D01*
X131523926Y-98015293D01*
X131550805Y-98055519D01*
X131560603Y-98079172D01*
X131560606Y-98079178D01*
X131560609Y-98079185D01*
X131648210Y-98210288D01*
X131648213Y-98210292D01*
X131759707Y-98321786D01*
X131759711Y-98321789D01*
X131890814Y-98409390D01*
X131890827Y-98409397D01*
X131954834Y-98435909D01*
X132036503Y-98469737D01*
X132144309Y-98491181D01*
X132191153Y-98500499D01*
X132191156Y-98500500D01*
X132191158Y-98500500D01*
X132348844Y-98500500D01*
X132348845Y-98500499D01*
X132503497Y-98469737D01*
X132649179Y-98409394D01*
X132780289Y-98321789D01*
X132891789Y-98210289D01*
X132979394Y-98079179D01*
X133039737Y-97933497D01*
X133070500Y-97778842D01*
X133070500Y-97621158D01*
X133070500Y-97621155D01*
X133070499Y-97621153D01*
X133056246Y-97549500D01*
X133039737Y-97466503D01*
X133019529Y-97417716D01*
X132979397Y-97320827D01*
X132979390Y-97320814D01*
X132891789Y-97189711D01*
X132891786Y-97189707D01*
X132780292Y-97078213D01*
X132780288Y-97078210D01*
X132649185Y-96990609D01*
X132649180Y-96990607D01*
X132649179Y-96990606D01*
X132625519Y-96980805D01*
X132585293Y-96953926D01*
X130413549Y-94782181D01*
X130380064Y-94720858D01*
X130385048Y-94651166D01*
X130426920Y-94595233D01*
X130492384Y-94570816D01*
X130501230Y-94570500D01*
X132113920Y-94570500D01*
X132211462Y-94551096D01*
X132258913Y-94541658D01*
X132395495Y-94485084D01*
X132444729Y-94452186D01*
X132518416Y-94402952D01*
X132559850Y-94361517D01*
X132565744Y-94356899D01*
X132591522Y-94346630D01*
X132615872Y-94333334D01*
X132628236Y-94332004D01*
X132630653Y-94331042D01*
X132632979Y-94331494D01*
X132642230Y-94330500D01*
X137073920Y-94330500D01*
X137171462Y-94311096D01*
X137218913Y-94301658D01*
X137355495Y-94245084D01*
X137404729Y-94212186D01*
X137478416Y-94162952D01*
X138894549Y-92746819D01*
X138955872Y-92713334D01*
X138982230Y-92710500D01*
X144108770Y-92710500D01*
X144175809Y-92730185D01*
X144221564Y-92782989D01*
X144231508Y-92852147D01*
X144202483Y-92915703D01*
X144196451Y-92922181D01*
X143617050Y-93501581D01*
X143617048Y-93501584D01*
X143599288Y-93528165D01*
X143599286Y-93528166D01*
X143599286Y-93528167D01*
X143534916Y-93624503D01*
X143534914Y-93624506D01*
X143478343Y-93761082D01*
X143478340Y-93761092D01*
X143449500Y-93906079D01*
X143449500Y-93906082D01*
X143449500Y-107473918D01*
X143449500Y-107473920D01*
X143449499Y-107473920D01*
X143478340Y-107618907D01*
X143478343Y-107618917D01*
X143534914Y-107755492D01*
X143557822Y-107789776D01*
X143557823Y-107789779D01*
X143617046Y-107878414D01*
X143617052Y-107878421D01*
X145054464Y-109315832D01*
X145087949Y-109377155D01*
X145089256Y-109422911D01*
X145069500Y-109547642D01*
X145069500Y-109752351D01*
X145101522Y-109954534D01*
X145164781Y-110149223D01*
X145257715Y-110331613D01*
X145378028Y-110497213D01*
X145522786Y-110641971D01*
X145605872Y-110702335D01*
X145688390Y-110762287D01*
X145796838Y-110817544D01*
X145870776Y-110855218D01*
X145870778Y-110855218D01*
X145870781Y-110855220D01*
X145975137Y-110889127D01*
X146065465Y-110918477D01*
X146166557Y-110934488D01*
X146267648Y-110950500D01*
X146267649Y-110950500D01*
X146472351Y-110950500D01*
X146472352Y-110950500D01*
X146674534Y-110918477D01*
X146869219Y-110855220D01*
X147051610Y-110762287D01*
X147144590Y-110694732D01*
X147217213Y-110641971D01*
X147217215Y-110641968D01*
X147217219Y-110641966D01*
X147361966Y-110497219D01*
X147361968Y-110497215D01*
X147361971Y-110497213D01*
X147414732Y-110424590D01*
X147482287Y-110331610D01*
X147575220Y-110149219D01*
X147638477Y-109954534D01*
X147670500Y-109752352D01*
X147670500Y-109547648D01*
X147643496Y-109377155D01*
X147638477Y-109345465D01*
X147605441Y-109243793D01*
X147575220Y-109150781D01*
X147575218Y-109150778D01*
X147575218Y-109150776D01*
X147519960Y-109042328D01*
X147482287Y-108968390D01*
X147446188Y-108918703D01*
X147361971Y-108802786D01*
X147217213Y-108658028D01*
X147051613Y-108537715D01*
X147051612Y-108537714D01*
X147051610Y-108537713D01*
X146994653Y-108508691D01*
X146869223Y-108444781D01*
X146674534Y-108381522D01*
X146499995Y-108353878D01*
X146472352Y-108349500D01*
X146267648Y-108349500D01*
X146262776Y-108349500D01*
X146262776Y-108347266D01*
X146203428Y-108334689D01*
X146174588Y-108313220D01*
X144986819Y-107125451D01*
X144953334Y-107064128D01*
X144950500Y-107037770D01*
X144950500Y-103210177D01*
X144970185Y-103143138D01*
X145022989Y-103097383D01*
X145092147Y-103087439D01*
X145155703Y-103116464D01*
X145173763Y-103135862D01*
X145212454Y-103187546D01*
X145242685Y-103210177D01*
X145327664Y-103273793D01*
X145327671Y-103273797D01*
X145462517Y-103324091D01*
X145462516Y-103324091D01*
X145469444Y-103324835D01*
X145522127Y-103330500D01*
X147217872Y-103330499D01*
X147277483Y-103324091D01*
X147412331Y-103273796D01*
X147527546Y-103187546D01*
X147613796Y-103072331D01*
X147664091Y-102937483D01*
X147670500Y-102877873D01*
X147670499Y-101182128D01*
X147664091Y-101122517D01*
X147659196Y-101109394D01*
X147613797Y-100987672D01*
X147613796Y-100987669D01*
X147593822Y-100960988D01*
X147569406Y-100895528D01*
X147584257Y-100827254D01*
X147593819Y-100812373D01*
X147623796Y-100772331D01*
X147674091Y-100637483D01*
X147680500Y-100577873D01*
X147680499Y-98882128D01*
X147674091Y-98822517D01*
X147635449Y-98718913D01*
X147623797Y-98687671D01*
X147623793Y-98687664D01*
X147537547Y-98572455D01*
X147537544Y-98572452D01*
X147422335Y-98486206D01*
X147422328Y-98486202D01*
X147287482Y-98435908D01*
X147287483Y-98435908D01*
X147227883Y-98429501D01*
X147227881Y-98429500D01*
X147227873Y-98429500D01*
X147227864Y-98429500D01*
X145532129Y-98429500D01*
X145532123Y-98429501D01*
X145472516Y-98435908D01*
X145337671Y-98486202D01*
X145337664Y-98486206D01*
X145222455Y-98572452D01*
X145173766Y-98637492D01*
X145117832Y-98679362D01*
X145048140Y-98684346D01*
X144986817Y-98650860D01*
X144953333Y-98589536D01*
X144950500Y-98563180D01*
X144950500Y-94342228D01*
X144970185Y-94275189D01*
X144986815Y-94254551D01*
X145861291Y-93380074D01*
X145922612Y-93346591D01*
X145987287Y-93349825D01*
X146075466Y-93378477D01*
X146277648Y-93410500D01*
X146277649Y-93410500D01*
X146482351Y-93410500D01*
X146482352Y-93410500D01*
X146684534Y-93378477D01*
X146879219Y-93315220D01*
X147061610Y-93222287D01*
X147157901Y-93152328D01*
X147227213Y-93101971D01*
X147227215Y-93101968D01*
X147227219Y-93101966D01*
X147371966Y-92957219D01*
X147371968Y-92957215D01*
X147371971Y-92957213D01*
X147443805Y-92858340D01*
X147492287Y-92791610D01*
X147585220Y-92609219D01*
X147648477Y-92414534D01*
X147680500Y-92212352D01*
X147680500Y-92007648D01*
X147648477Y-91805466D01*
X147622185Y-91724549D01*
X147585218Y-91610776D01*
X147515013Y-91472993D01*
X147492287Y-91428390D01*
X147454988Y-91377052D01*
X147371971Y-91262786D01*
X147227213Y-91118028D01*
X147061613Y-90997715D01*
X147061612Y-90997714D01*
X147061610Y-90997713D01*
X147004653Y-90968691D01*
X146879223Y-90904781D01*
X146684534Y-90841522D01*
X146509995Y-90813878D01*
X146482352Y-90809500D01*
X146277648Y-90809500D01*
X146253329Y-90813351D01*
X146075465Y-90841522D01*
X145880776Y-90904781D01*
X145698386Y-90997715D01*
X145532786Y-91118028D01*
X145532782Y-91118032D01*
X145477634Y-91173181D01*
X145416311Y-91206666D01*
X145389953Y-91209500D01*
X138546080Y-91209500D01*
X138401092Y-91238340D01*
X138401082Y-91238343D01*
X138264511Y-91294912D01*
X138264504Y-91294916D01*
X138244596Y-91308218D01*
X138234573Y-91314916D01*
X138141579Y-91377051D01*
X138141578Y-91377052D01*
X136725451Y-92793181D01*
X136664128Y-92826666D01*
X136637770Y-92829500D01*
X132206080Y-92829500D01*
X132061092Y-92858340D01*
X132061082Y-92858343D01*
X131924511Y-92914912D01*
X131924498Y-92914919D01*
X131801584Y-92997048D01*
X131801580Y-92997051D01*
X131765453Y-93033180D01*
X131704131Y-93066666D01*
X131677771Y-93069500D01*
X118995221Y-93069500D01*
X118928182Y-93049815D01*
X118894903Y-93018385D01*
X118838107Y-92940211D01*
X118687786Y-92789890D01*
X118515817Y-92664949D01*
X118506504Y-92660204D01*
X118455707Y-92612230D01*
X118438912Y-92544409D01*
X118461449Y-92478274D01*
X118506507Y-92439232D01*
X118515555Y-92434622D01*
X118569716Y-92395270D01*
X118569717Y-92395270D01*
X117937408Y-91762962D01*
X118000993Y-91745925D01*
X118115007Y-91680099D01*
X118208099Y-91587007D01*
X118273925Y-91472993D01*
X118290962Y-91409409D01*
X118923270Y-92041717D01*
X118923270Y-92041716D01*
X118962622Y-91987554D01*
X119059095Y-91798217D01*
X119124757Y-91596130D01*
X119124757Y-91596127D01*
X119158000Y-91386246D01*
X119158000Y-91173753D01*
X119124757Y-90963872D01*
X119124757Y-90963869D01*
X119059095Y-90761782D01*
X118962624Y-90572449D01*
X118923270Y-90518282D01*
X118923269Y-90518282D01*
X118290962Y-91150590D01*
X118273925Y-91087007D01*
X118208099Y-90972993D01*
X118115007Y-90879901D01*
X118000993Y-90814075D01*
X117937409Y-90797037D01*
X118569716Y-90164728D01*
X118515547Y-90125373D01*
X118515547Y-90125372D01*
X118506500Y-90120763D01*
X118455706Y-90072788D01*
X118438912Y-90004966D01*
X118461451Y-89938832D01*
X118506508Y-89899793D01*
X118515816Y-89895051D01*
X118595007Y-89837515D01*
X118687786Y-89770109D01*
X118687788Y-89770106D01*
X118687792Y-89770104D01*
X118838104Y-89619792D01*
X118838108Y-89619786D01*
X118894903Y-89541615D01*
X118950233Y-89498949D01*
X118995221Y-89490500D01*
X146017770Y-89490500D01*
X146084809Y-89510185D01*
X146105451Y-89526819D01*
X148303181Y-91724549D01*
X148336666Y-91785872D01*
X148339500Y-91812230D01*
X148339500Y-92957870D01*
X148339501Y-92957876D01*
X148345908Y-93017483D01*
X148396202Y-93152328D01*
X148396206Y-93152335D01*
X148482452Y-93267544D01*
X148482455Y-93267547D01*
X148597664Y-93353793D01*
X148597671Y-93353797D01*
X148732517Y-93404091D01*
X148732516Y-93404091D01*
X148739444Y-93404835D01*
X148792127Y-93410500D01*
X150117769Y-93410499D01*
X150184808Y-93430184D01*
X150205450Y-93446818D01*
X150813181Y-94054548D01*
X150846666Y-94115871D01*
X150849500Y-94142229D01*
X150849500Y-98801363D01*
X150829815Y-98868402D01*
X150777011Y-98914157D01*
X150707853Y-98924101D01*
X150644297Y-98895076D01*
X150635459Y-98886177D01*
X150635411Y-98886226D01*
X150487213Y-98738028D01*
X150321613Y-98617715D01*
X150321612Y-98617714D01*
X150321610Y-98617713D01*
X150235658Y-98573918D01*
X150139223Y-98524781D01*
X149944534Y-98461522D01*
X149769995Y-98433878D01*
X149742352Y-98429500D01*
X149537648Y-98429500D01*
X149513329Y-98433351D01*
X149335465Y-98461522D01*
X149140776Y-98524781D01*
X148958386Y-98617715D01*
X148792786Y-98738028D01*
X148648028Y-98882786D01*
X148527715Y-99048386D01*
X148434781Y-99230776D01*
X148371522Y-99425465D01*
X148339500Y-99627648D01*
X148339500Y-99832351D01*
X148371522Y-100034534D01*
X148434781Y-100229223D01*
X148481623Y-100321153D01*
X148526033Y-100408313D01*
X148527715Y-100411613D01*
X148648028Y-100577213D01*
X148792782Y-100721967D01*
X148792787Y-100721971D01*
X148874101Y-100781049D01*
X148916767Y-100836378D01*
X148922746Y-100905992D01*
X148890141Y-100967787D01*
X148874101Y-100981685D01*
X148782787Y-101048028D01*
X148782782Y-101048032D01*
X148638028Y-101192786D01*
X148517715Y-101358386D01*
X148424781Y-101540776D01*
X148361522Y-101735465D01*
X148329500Y-101937648D01*
X148329500Y-102142351D01*
X148361522Y-102344534D01*
X148424781Y-102539223D01*
X148517715Y-102721613D01*
X148638028Y-102887213D01*
X148782786Y-103031971D01*
X148899083Y-103116464D01*
X148948390Y-103152287D01*
X149017586Y-103187544D01*
X149130776Y-103245218D01*
X149130778Y-103245218D01*
X149130781Y-103245220D01*
X149218720Y-103273793D01*
X149325465Y-103308477D01*
X149424047Y-103324091D01*
X149527648Y-103340500D01*
X149527649Y-103340500D01*
X149732351Y-103340500D01*
X149732352Y-103340500D01*
X149934534Y-103308477D01*
X150129219Y-103245220D01*
X150311610Y-103152287D01*
X150404590Y-103084732D01*
X150477213Y-103031971D01*
X150477215Y-103031968D01*
X150477219Y-103031966D01*
X150621966Y-102887219D01*
X150625178Y-102882797D01*
X150680505Y-102840129D01*
X150750118Y-102834146D01*
X150811915Y-102866749D01*
X150846276Y-102927586D01*
X150849500Y-102955678D01*
X150849500Y-107237769D01*
X150829815Y-107304808D01*
X150813181Y-107325450D01*
X149815449Y-108323181D01*
X149754126Y-108356666D01*
X149727768Y-108359500D01*
X148782129Y-108359500D01*
X148782123Y-108359501D01*
X148722516Y-108365908D01*
X148587671Y-108416202D01*
X148587664Y-108416206D01*
X148472455Y-108502452D01*
X148472452Y-108502455D01*
X148386206Y-108617664D01*
X148386202Y-108617671D01*
X148335908Y-108752517D01*
X148329501Y-108812116D01*
X148329500Y-108812135D01*
X148329500Y-110507870D01*
X148329501Y-110507876D01*
X148335908Y-110567483D01*
X148386202Y-110702328D01*
X148386206Y-110702335D01*
X148472452Y-110817544D01*
X148472455Y-110817547D01*
X148587664Y-110903793D01*
X148587671Y-110903797D01*
X148722517Y-110954091D01*
X148722516Y-110954091D01*
X148729444Y-110954835D01*
X148782127Y-110960500D01*
X150477872Y-110960499D01*
X150537483Y-110954091D01*
X150672331Y-110903796D01*
X150787546Y-110817546D01*
X150873796Y-110702331D01*
X150924091Y-110567483D01*
X150930500Y-110507873D01*
X150930499Y-109382228D01*
X150950184Y-109315190D01*
X150966813Y-109294553D01*
X152182951Y-108078416D01*
X152191859Y-108065084D01*
X152265084Y-107955495D01*
X152321658Y-107818913D01*
X152350500Y-107673918D01*
X152350500Y-99652149D01*
X167539500Y-99652149D01*
X167539500Y-99907850D01*
X167556179Y-100034534D01*
X167572874Y-100161340D01*
X167615697Y-100321158D01*
X167639050Y-100408312D01*
X167639053Y-100408322D01*
X167736894Y-100644531D01*
X167736899Y-100644542D01*
X167864734Y-100865957D01*
X167864745Y-100865973D01*
X168020388Y-101068811D01*
X168020394Y-101068818D01*
X168201181Y-101249605D01*
X168201187Y-101249610D01*
X168404035Y-101405261D01*
X168404042Y-101405265D01*
X168625457Y-101533100D01*
X168625462Y-101533102D01*
X168625465Y-101533104D01*
X168861687Y-101630950D01*
X169108660Y-101697126D01*
X169362157Y-101730500D01*
X169362164Y-101730500D01*
X169617836Y-101730500D01*
X169617843Y-101730500D01*
X169871340Y-101697126D01*
X170118313Y-101630950D01*
X170354535Y-101533104D01*
X170575965Y-101405261D01*
X170778813Y-101249610D01*
X170959610Y-101068813D01*
X171115261Y-100865965D01*
X171243104Y-100644535D01*
X171340950Y-100408313D01*
X171407126Y-100161340D01*
X171440500Y-99907843D01*
X171440500Y-99652157D01*
X171407126Y-99398660D01*
X171340950Y-99151687D01*
X171243104Y-98915465D01*
X171243102Y-98915462D01*
X171243100Y-98915457D01*
X171115265Y-98694042D01*
X171115261Y-98694035D01*
X171021969Y-98572455D01*
X170959611Y-98491188D01*
X170959605Y-98491181D01*
X170778818Y-98310394D01*
X170778811Y-98310388D01*
X170575973Y-98154745D01*
X170575971Y-98154743D01*
X170575965Y-98154739D01*
X170575960Y-98154736D01*
X170575957Y-98154734D01*
X170354542Y-98026899D01*
X170354531Y-98026894D01*
X170118322Y-97929053D01*
X170118315Y-97929051D01*
X170118313Y-97929050D01*
X169871340Y-97862874D01*
X169815007Y-97855457D01*
X169617850Y-97829500D01*
X169617843Y-97829500D01*
X169362157Y-97829500D01*
X169362149Y-97829500D01*
X169136826Y-97859165D01*
X169108660Y-97862874D01*
X168861687Y-97929050D01*
X168861677Y-97929053D01*
X168625468Y-98026894D01*
X168625457Y-98026899D01*
X168404042Y-98154734D01*
X168404026Y-98154745D01*
X168201188Y-98310388D01*
X168201181Y-98310394D01*
X168020394Y-98491181D01*
X168020388Y-98491188D01*
X167864745Y-98694026D01*
X167864734Y-98694042D01*
X167736899Y-98915457D01*
X167736894Y-98915468D01*
X167639053Y-99151677D01*
X167639050Y-99151687D01*
X167614328Y-99243953D01*
X167572874Y-99398661D01*
X167539500Y-99652149D01*
X152350500Y-99652149D01*
X152350500Y-95185778D01*
X163479500Y-95185778D01*
X163479500Y-95474221D01*
X163479501Y-95474238D01*
X163517149Y-95760206D01*
X163517150Y-95760211D01*
X163517151Y-95760217D01*
X163591809Y-96038844D01*
X163591814Y-96038860D01*
X163702191Y-96305336D01*
X163702199Y-96305352D01*
X163846420Y-96555148D01*
X163846431Y-96555164D01*
X164022024Y-96784002D01*
X164022030Y-96784009D01*
X164225990Y-96987969D01*
X164225997Y-96987975D01*
X164329707Y-97067554D01*
X164454844Y-97163575D01*
X164454851Y-97163579D01*
X164704647Y-97307800D01*
X164704663Y-97307808D01*
X164971139Y-97418185D01*
X164971145Y-97418186D01*
X164971155Y-97418191D01*
X165249783Y-97492849D01*
X165535772Y-97530500D01*
X165535779Y-97530500D01*
X165824221Y-97530500D01*
X165824228Y-97530500D01*
X166110217Y-97492849D01*
X166388845Y-97418191D01*
X166388857Y-97418185D01*
X166388860Y-97418185D01*
X166655336Y-97307808D01*
X166655339Y-97307806D01*
X166655345Y-97307804D01*
X166905156Y-97163575D01*
X167134004Y-96987974D01*
X167168052Y-96953926D01*
X167205052Y-96916927D01*
X167337969Y-96784009D01*
X167337974Y-96784004D01*
X167513575Y-96555156D01*
X167657804Y-96305345D01*
X167768191Y-96038845D01*
X167842849Y-95760217D01*
X167880500Y-95474228D01*
X167880500Y-95185796D01*
X171100000Y-95185796D01*
X171100000Y-95474203D01*
X171137643Y-95760118D01*
X171212283Y-96038682D01*
X171322644Y-96305116D01*
X171322648Y-96305126D01*
X171466838Y-96554872D01*
X171577438Y-96699007D01*
X172584152Y-95692293D01*
X172591049Y-95708942D01*
X172678599Y-95839970D01*
X172790030Y-95951401D01*
X172921058Y-96038951D01*
X172937705Y-96045846D01*
X171930991Y-97052560D01*
X172075128Y-97163161D01*
X172324873Y-97307351D01*
X172324883Y-97307355D01*
X172591317Y-97417716D01*
X172869881Y-97492356D01*
X173155796Y-97529999D01*
X173155811Y-97530000D01*
X173444189Y-97530000D01*
X173444203Y-97529999D01*
X173730118Y-97492356D01*
X174008682Y-97417716D01*
X174275116Y-97307355D01*
X174275126Y-97307351D01*
X174524870Y-97163161D01*
X174524887Y-97163150D01*
X174669007Y-97052561D01*
X174669007Y-97052559D01*
X173662294Y-96045846D01*
X173678942Y-96038951D01*
X173809970Y-95951401D01*
X173921401Y-95839970D01*
X174008951Y-95708942D01*
X174015846Y-95692294D01*
X175022559Y-96699007D01*
X175022561Y-96699007D01*
X175133150Y-96554887D01*
X175133161Y-96554870D01*
X175277351Y-96305126D01*
X175277355Y-96305116D01*
X175387716Y-96038682D01*
X175462356Y-95760118D01*
X175499999Y-95474203D01*
X175500000Y-95474189D01*
X175500000Y-95185810D01*
X175499999Y-95185796D01*
X175462356Y-94899881D01*
X175387716Y-94621317D01*
X175277355Y-94354883D01*
X175277351Y-94354873D01*
X175133161Y-94105128D01*
X175022560Y-93960991D01*
X174015846Y-94967705D01*
X174008951Y-94951058D01*
X173921401Y-94820030D01*
X173809970Y-94708599D01*
X173678942Y-94621049D01*
X173662292Y-94614152D01*
X174669007Y-93607438D01*
X174524872Y-93496838D01*
X174275126Y-93352648D01*
X174275116Y-93352644D01*
X174008682Y-93242283D01*
X173730118Y-93167643D01*
X173444203Y-93130000D01*
X173155796Y-93130000D01*
X172869881Y-93167643D01*
X172591317Y-93242283D01*
X172324883Y-93352644D01*
X172324873Y-93352648D01*
X172075123Y-93496841D01*
X171930991Y-93607436D01*
X171930991Y-93607438D01*
X172937706Y-94614153D01*
X172921058Y-94621049D01*
X172790030Y-94708599D01*
X172678599Y-94820030D01*
X172591049Y-94951058D01*
X172584153Y-94967706D01*
X171577438Y-93960991D01*
X171577436Y-93960991D01*
X171466841Y-94105123D01*
X171322648Y-94354873D01*
X171322644Y-94354883D01*
X171212283Y-94621317D01*
X171137643Y-94899881D01*
X171100000Y-95185796D01*
X167880500Y-95185796D01*
X167880500Y-95185772D01*
X167842849Y-94899783D01*
X167768191Y-94621155D01*
X167768186Y-94621145D01*
X167768185Y-94621139D01*
X167657808Y-94354663D01*
X167657800Y-94354647D01*
X167513579Y-94104851D01*
X167513575Y-94104844D01*
X167361060Y-93906082D01*
X167337975Y-93875997D01*
X167337969Y-93875990D01*
X167134009Y-93672030D01*
X167134002Y-93672024D01*
X166905164Y-93496431D01*
X166905162Y-93496429D01*
X166905156Y-93496425D01*
X166905151Y-93496422D01*
X166905148Y-93496420D01*
X166655352Y-93352199D01*
X166655336Y-93352191D01*
X166388860Y-93241814D01*
X166388848Y-93241810D01*
X166388845Y-93241809D01*
X166110217Y-93167151D01*
X166110211Y-93167150D01*
X166110206Y-93167149D01*
X165824238Y-93129501D01*
X165824233Y-93129500D01*
X165824228Y-93129500D01*
X165535772Y-93129500D01*
X165535766Y-93129500D01*
X165535761Y-93129501D01*
X165249793Y-93167149D01*
X165249786Y-93167150D01*
X165249783Y-93167151D01*
X165044012Y-93222287D01*
X164971155Y-93241809D01*
X164971139Y-93241814D01*
X164704663Y-93352191D01*
X164704647Y-93352199D01*
X164454851Y-93496420D01*
X164454835Y-93496431D01*
X164225997Y-93672024D01*
X164225990Y-93672030D01*
X164022030Y-93875990D01*
X164022024Y-93875997D01*
X163846431Y-94104835D01*
X163846420Y-94104851D01*
X163702199Y-94354647D01*
X163702191Y-94354663D01*
X163591814Y-94621139D01*
X163591809Y-94621155D01*
X163530463Y-94850104D01*
X163517152Y-94899780D01*
X163517149Y-94899793D01*
X163479501Y-95185761D01*
X163479500Y-95185778D01*
X152350500Y-95185778D01*
X152350500Y-93706082D01*
X152350500Y-93706079D01*
X152321659Y-93561092D01*
X152321658Y-93561091D01*
X152321658Y-93561087D01*
X152308021Y-93528165D01*
X152265087Y-93424511D01*
X152265080Y-93424498D01*
X152182952Y-93301585D01*
X152148911Y-93267544D01*
X152078416Y-93197049D01*
X150976818Y-92095450D01*
X150943333Y-92034127D01*
X150940499Y-92007769D01*
X150940499Y-91262129D01*
X150940498Y-91262123D01*
X150934091Y-91202516D01*
X150883797Y-91067671D01*
X150883793Y-91067664D01*
X150797547Y-90952455D01*
X150797544Y-90952452D01*
X150682335Y-90866206D01*
X150682328Y-90866202D01*
X150547482Y-90815908D01*
X150547483Y-90815908D01*
X150487883Y-90809501D01*
X150487881Y-90809500D01*
X150487873Y-90809500D01*
X150487865Y-90809500D01*
X149562230Y-90809500D01*
X149495191Y-90789815D01*
X149474549Y-90773181D01*
X146928437Y-88227069D01*
X146923416Y-88222048D01*
X146858416Y-88157048D01*
X146748105Y-88083342D01*
X146735495Y-88074916D01*
X146735493Y-88074915D01*
X146735490Y-88074913D01*
X146598917Y-88018343D01*
X146598907Y-88018340D01*
X146453920Y-87989500D01*
X146453918Y-87989500D01*
X118995221Y-87989500D01*
X118928182Y-87969815D01*
X118894903Y-87938385D01*
X118838107Y-87860211D01*
X118687786Y-87709890D01*
X118515820Y-87584951D01*
X118326414Y-87488444D01*
X118326413Y-87488443D01*
X118326412Y-87488443D01*
X118124243Y-87422754D01*
X118124241Y-87422753D01*
X118124240Y-87422753D01*
X117962957Y-87397208D01*
X117914287Y-87389500D01*
X117701713Y-87389500D01*
X117653042Y-87397208D01*
X117491760Y-87422753D01*
X117289585Y-87488444D01*
X117100179Y-87584951D01*
X116928213Y-87709890D01*
X116777890Y-87860213D01*
X116652951Y-88032179D01*
X116556444Y-88221585D01*
X116490753Y-88423760D01*
X116457500Y-88633713D01*
X115750500Y-88633713D01*
X115750500Y-80001719D01*
X115770185Y-79934680D01*
X115822989Y-79888925D01*
X115892147Y-79878981D01*
X115955703Y-79908006D01*
X115989061Y-79954267D01*
X116013235Y-80012628D01*
X116013240Y-80012640D01*
X116166079Y-80298580D01*
X116166090Y-80298598D01*
X116346212Y-80568170D01*
X116346222Y-80568184D01*
X116495890Y-80750554D01*
X116495891Y-80750555D01*
X117705748Y-79540698D01*
X117779588Y-79642330D01*
X117957670Y-79820412D01*
X118059300Y-79894251D01*
X116849443Y-81104107D01*
X116849444Y-81104108D01*
X117031815Y-81253777D01*
X117031829Y-81253787D01*
X117301401Y-81433909D01*
X117301419Y-81433920D01*
X117587359Y-81586759D01*
X117587364Y-81586761D01*
X117886921Y-81710842D01*
X118197207Y-81804966D01*
X118197218Y-81804969D01*
X118515198Y-81868217D01*
X118515215Y-81868220D01*
X118837884Y-81900000D01*
X119162116Y-81900000D01*
X119484784Y-81868220D01*
X119484801Y-81868217D01*
X119802781Y-81804969D01*
X119802792Y-81804966D01*
X120113078Y-81710842D01*
X120412635Y-81586761D01*
X120412640Y-81586759D01*
X120698580Y-81433920D01*
X120698598Y-81433909D01*
X120968170Y-81253787D01*
X120968183Y-81253777D01*
X121150554Y-81104108D01*
X121150554Y-81104107D01*
X119940698Y-79894251D01*
X120042330Y-79820412D01*
X120220412Y-79642330D01*
X120294251Y-79540698D01*
X121504107Y-80750554D01*
X121504108Y-80750554D01*
X121653777Y-80568183D01*
X121653787Y-80568170D01*
X121833909Y-80298598D01*
X121833920Y-80298580D01*
X121986759Y-80012640D01*
X121986761Y-80012635D01*
X122110842Y-79713078D01*
X122204966Y-79402792D01*
X122204969Y-79402781D01*
X122268217Y-79084801D01*
X122268220Y-79084784D01*
X122300000Y-78762115D01*
X122300000Y-78437884D01*
X122268220Y-78115215D01*
X122268217Y-78115198D01*
X122204969Y-77797218D01*
X122204966Y-77797207D01*
X122110842Y-77486921D01*
X121986761Y-77187364D01*
X121986759Y-77187359D01*
X121833920Y-76901419D01*
X121833909Y-76901401D01*
X121653787Y-76631829D01*
X121653777Y-76631815D01*
X121504108Y-76449444D01*
X121504107Y-76449443D01*
X120294250Y-77659300D01*
X120220412Y-77557670D01*
X120042330Y-77379588D01*
X119940697Y-77305747D01*
X121150555Y-76095891D01*
X121150554Y-76095890D01*
X120968184Y-75946222D01*
X120968170Y-75946212D01*
X120698598Y-75766090D01*
X120698580Y-75766079D01*
X120412640Y-75613240D01*
X120412628Y-75613235D01*
X120354267Y-75589061D01*
X120299863Y-75545220D01*
X120277798Y-75478926D01*
X120295077Y-75411227D01*
X120346214Y-75363616D01*
X120401719Y-75350500D01*
X178348281Y-75350500D01*
X178415320Y-75370185D01*
G37*
%TD.AperFunction*%
%TA.AperFunction,Conductor*%
G36*
X182254107Y-119350554D02*
G01*
X182254108Y-119350554D01*
X182403777Y-119168183D01*
X182403787Y-119168170D01*
X182583909Y-118898598D01*
X182583920Y-118898580D01*
X182736759Y-118612640D01*
X182736761Y-118612635D01*
X182770939Y-118530124D01*
X182814780Y-118475721D01*
X182881074Y-118453656D01*
X182948773Y-118470935D01*
X182996384Y-118522072D01*
X183009500Y-118577577D01*
X183009500Y-120375500D01*
X182989815Y-120442539D01*
X182937011Y-120488294D01*
X182885500Y-120499500D01*
X181031009Y-120499500D01*
X180963970Y-120479815D01*
X180918215Y-120427011D01*
X180908271Y-120357853D01*
X180937296Y-120294297D01*
X180983556Y-120260939D01*
X181162635Y-120186761D01*
X181162640Y-120186759D01*
X181448580Y-120033920D01*
X181448598Y-120033909D01*
X181718170Y-119853787D01*
X181718183Y-119853777D01*
X181900554Y-119704108D01*
X181900554Y-119704107D01*
X180690698Y-118494251D01*
X180792330Y-118420412D01*
X180970412Y-118242330D01*
X181044251Y-118140698D01*
X182254107Y-119350554D01*
G37*
%TD.AperFunction*%
%TA.AperFunction,Conductor*%
G36*
X117665320Y-75370185D02*
G01*
X117711075Y-75422989D01*
X117721019Y-75492147D01*
X117691994Y-75555703D01*
X117645733Y-75589061D01*
X117587371Y-75613235D01*
X117587359Y-75613240D01*
X117301419Y-75766079D01*
X117301401Y-75766090D01*
X117031829Y-75946212D01*
X117031815Y-75946222D01*
X116849444Y-76095890D01*
X116849443Y-76095891D01*
X118059301Y-77305748D01*
X117957670Y-77379588D01*
X117779588Y-77557670D01*
X117705748Y-77659301D01*
X116495891Y-76449443D01*
X116495890Y-76449444D01*
X116346222Y-76631815D01*
X116346212Y-76631829D01*
X116166090Y-76901401D01*
X116166079Y-76901419D01*
X116013240Y-77187359D01*
X116013238Y-77187364D01*
X115989061Y-77245733D01*
X115945220Y-77300136D01*
X115878925Y-77322201D01*
X115811226Y-77304922D01*
X115763616Y-77253784D01*
X115750500Y-77198280D01*
X115750500Y-75474500D01*
X115770185Y-75407461D01*
X115822989Y-75361706D01*
X115874500Y-75350500D01*
X117598281Y-75350500D01*
X117665320Y-75370185D01*
G37*
%TD.AperFunction*%
%TA.AperFunction,Conductor*%
G36*
X182952539Y-75370185D02*
G01*
X182998294Y-75422989D01*
X183009500Y-75474500D01*
X183009500Y-77222422D01*
X182989815Y-77289461D01*
X182937011Y-77335216D01*
X182867853Y-77345160D01*
X182804297Y-77316135D01*
X182770939Y-77269875D01*
X182736761Y-77187364D01*
X182736759Y-77187359D01*
X182583920Y-76901419D01*
X182583909Y-76901401D01*
X182403787Y-76631829D01*
X182403777Y-76631815D01*
X182254108Y-76449444D01*
X182254107Y-76449443D01*
X181044250Y-77659299D01*
X180970412Y-77557670D01*
X180792330Y-77379588D01*
X180690697Y-77305747D01*
X181900555Y-76095891D01*
X181900554Y-76095890D01*
X181718184Y-75946222D01*
X181718170Y-75946212D01*
X181448598Y-75766090D01*
X181448580Y-75766079D01*
X181162640Y-75613240D01*
X181162628Y-75613235D01*
X181104267Y-75589061D01*
X181049863Y-75545220D01*
X181027798Y-75478926D01*
X181045077Y-75411227D01*
X181096214Y-75363616D01*
X181151719Y-75350500D01*
X182885500Y-75350500D01*
X182952539Y-75370185D01*
G37*
%TD.AperFunction*%
%TD*%
M02*
