%TF.GenerationSoftware,KiCad,Pcbnew,9.0.1-1.fc42*%
%TF.CreationDate,2025-05-12T13:06:46+02:00*%
%TF.ProjectId,PreAmp,50726541-6d70-42e6-9b69-6361645f7063,1*%
%TF.SameCoordinates,Original*%
%TF.FileFunction,Legend,Top*%
%TF.FilePolarity,Positive*%
%FSLAX46Y46*%
G04 Gerber Fmt 4.6, Leading zero omitted, Abs format (unit mm)*
G04 Created by KiCad (PCBNEW 9.0.1-1.fc42) date 2025-05-12 13:06:46*
%MOMM*%
%LPD*%
G01*
G04 APERTURE LIST*
%ADD10C,0.300000*%
%ADD11C,0.150000*%
%ADD12C,0.100000*%
%ADD13C,0.120000*%
%ADD14C,0.152400*%
%ADD15C,0.000000*%
G04 APERTURE END LIST*
D10*
X139483082Y-119329400D02*
X139697368Y-119400828D01*
X139697368Y-119400828D02*
X140054510Y-119400828D01*
X140054510Y-119400828D02*
X140197368Y-119329400D01*
X140197368Y-119329400D02*
X140268796Y-119257971D01*
X140268796Y-119257971D02*
X140340225Y-119115114D01*
X140340225Y-119115114D02*
X140340225Y-118972257D01*
X140340225Y-118972257D02*
X140268796Y-118829400D01*
X140268796Y-118829400D02*
X140197368Y-118757971D01*
X140197368Y-118757971D02*
X140054510Y-118686542D01*
X140054510Y-118686542D02*
X139768796Y-118615114D01*
X139768796Y-118615114D02*
X139625939Y-118543685D01*
X139625939Y-118543685D02*
X139554510Y-118472257D01*
X139554510Y-118472257D02*
X139483082Y-118329400D01*
X139483082Y-118329400D02*
X139483082Y-118186542D01*
X139483082Y-118186542D02*
X139554510Y-118043685D01*
X139554510Y-118043685D02*
X139625939Y-117972257D01*
X139625939Y-117972257D02*
X139768796Y-117900828D01*
X139768796Y-117900828D02*
X140125939Y-117900828D01*
X140125939Y-117900828D02*
X140340225Y-117972257D01*
X141197367Y-119400828D02*
X141054510Y-119329400D01*
X141054510Y-119329400D02*
X140983081Y-119257971D01*
X140983081Y-119257971D02*
X140911653Y-119115114D01*
X140911653Y-119115114D02*
X140911653Y-118686542D01*
X140911653Y-118686542D02*
X140983081Y-118543685D01*
X140983081Y-118543685D02*
X141054510Y-118472257D01*
X141054510Y-118472257D02*
X141197367Y-118400828D01*
X141197367Y-118400828D02*
X141411653Y-118400828D01*
X141411653Y-118400828D02*
X141554510Y-118472257D01*
X141554510Y-118472257D02*
X141625939Y-118543685D01*
X141625939Y-118543685D02*
X141697367Y-118686542D01*
X141697367Y-118686542D02*
X141697367Y-119115114D01*
X141697367Y-119115114D02*
X141625939Y-119257971D01*
X141625939Y-119257971D02*
X141554510Y-119329400D01*
X141554510Y-119329400D02*
X141411653Y-119400828D01*
X141411653Y-119400828D02*
X141197367Y-119400828D01*
X142983082Y-118400828D02*
X142983082Y-119400828D01*
X142340224Y-118400828D02*
X142340224Y-119186542D01*
X142340224Y-119186542D02*
X142411653Y-119329400D01*
X142411653Y-119329400D02*
X142554510Y-119400828D01*
X142554510Y-119400828D02*
X142768796Y-119400828D01*
X142768796Y-119400828D02*
X142911653Y-119329400D01*
X142911653Y-119329400D02*
X142983082Y-119257971D01*
X143697367Y-118400828D02*
X143697367Y-119400828D01*
X143697367Y-118543685D02*
X143768796Y-118472257D01*
X143768796Y-118472257D02*
X143911653Y-118400828D01*
X143911653Y-118400828D02*
X144125939Y-118400828D01*
X144125939Y-118400828D02*
X144268796Y-118472257D01*
X144268796Y-118472257D02*
X144340225Y-118615114D01*
X144340225Y-118615114D02*
X144340225Y-119400828D01*
X145697368Y-119400828D02*
X145697368Y-117900828D01*
X145697368Y-119329400D02*
X145554510Y-119400828D01*
X145554510Y-119400828D02*
X145268796Y-119400828D01*
X145268796Y-119400828D02*
X145125939Y-119329400D01*
X145125939Y-119329400D02*
X145054510Y-119257971D01*
X145054510Y-119257971D02*
X144983082Y-119115114D01*
X144983082Y-119115114D02*
X144983082Y-118686542D01*
X144983082Y-118686542D02*
X145054510Y-118543685D01*
X145054510Y-118543685D02*
X145125939Y-118472257D01*
X145125939Y-118472257D02*
X145268796Y-118400828D01*
X145268796Y-118400828D02*
X145554510Y-118400828D01*
X145554510Y-118400828D02*
X145697368Y-118472257D01*
X146340225Y-119329400D02*
X146483082Y-119400828D01*
X146483082Y-119400828D02*
X146768796Y-119400828D01*
X146768796Y-119400828D02*
X146911653Y-119329400D01*
X146911653Y-119329400D02*
X146983082Y-119186542D01*
X146983082Y-119186542D02*
X146983082Y-119115114D01*
X146983082Y-119115114D02*
X146911653Y-118972257D01*
X146911653Y-118972257D02*
X146768796Y-118900828D01*
X146768796Y-118900828D02*
X146554511Y-118900828D01*
X146554511Y-118900828D02*
X146411653Y-118829400D01*
X146411653Y-118829400D02*
X146340225Y-118686542D01*
X146340225Y-118686542D02*
X146340225Y-118615114D01*
X146340225Y-118615114D02*
X146411653Y-118472257D01*
X146411653Y-118472257D02*
X146554511Y-118400828D01*
X146554511Y-118400828D02*
X146768796Y-118400828D01*
X146768796Y-118400828D02*
X146911653Y-118472257D01*
X149483082Y-119400828D02*
X148768796Y-119400828D01*
X148768796Y-119400828D02*
X148768796Y-117900828D01*
X149983082Y-119400828D02*
X149983082Y-118400828D01*
X149983082Y-117900828D02*
X149911654Y-117972257D01*
X149911654Y-117972257D02*
X149983082Y-118043685D01*
X149983082Y-118043685D02*
X150054511Y-117972257D01*
X150054511Y-117972257D02*
X149983082Y-117900828D01*
X149983082Y-117900828D02*
X149983082Y-118043685D01*
X150697368Y-119400828D02*
X150697368Y-117900828D01*
X150840226Y-118829400D02*
X151268797Y-119400828D01*
X151268797Y-118400828D02*
X150697368Y-118972257D01*
X152483083Y-119329400D02*
X152340226Y-119400828D01*
X152340226Y-119400828D02*
X152054512Y-119400828D01*
X152054512Y-119400828D02*
X151911654Y-119329400D01*
X151911654Y-119329400D02*
X151840226Y-119186542D01*
X151840226Y-119186542D02*
X151840226Y-118615114D01*
X151840226Y-118615114D02*
X151911654Y-118472257D01*
X151911654Y-118472257D02*
X152054512Y-118400828D01*
X152054512Y-118400828D02*
X152340226Y-118400828D01*
X152340226Y-118400828D02*
X152483083Y-118472257D01*
X152483083Y-118472257D02*
X152554512Y-118615114D01*
X152554512Y-118615114D02*
X152554512Y-118757971D01*
X152554512Y-118757971D02*
X151840226Y-118900828D01*
X154125940Y-117900828D02*
X154983083Y-117900828D01*
X154554511Y-119400828D02*
X154554511Y-117900828D01*
X155483082Y-119400828D02*
X155483082Y-118400828D01*
X155483082Y-117900828D02*
X155411654Y-117972257D01*
X155411654Y-117972257D02*
X155483082Y-118043685D01*
X155483082Y-118043685D02*
X155554511Y-117972257D01*
X155554511Y-117972257D02*
X155483082Y-117900828D01*
X155483082Y-117900828D02*
X155483082Y-118043685D01*
X156197368Y-119400828D02*
X156197368Y-118400828D01*
X156197368Y-118543685D02*
X156268797Y-118472257D01*
X156268797Y-118472257D02*
X156411654Y-118400828D01*
X156411654Y-118400828D02*
X156625940Y-118400828D01*
X156625940Y-118400828D02*
X156768797Y-118472257D01*
X156768797Y-118472257D02*
X156840226Y-118615114D01*
X156840226Y-118615114D02*
X156840226Y-119400828D01*
X156840226Y-118615114D02*
X156911654Y-118472257D01*
X156911654Y-118472257D02*
X157054511Y-118400828D01*
X157054511Y-118400828D02*
X157268797Y-118400828D01*
X157268797Y-118400828D02*
X157411654Y-118472257D01*
X157411654Y-118472257D02*
X157483083Y-118615114D01*
X157483083Y-118615114D02*
X157483083Y-119400828D01*
D11*
X143033333Y-97064819D02*
X142700000Y-96588628D01*
X142461905Y-97064819D02*
X142461905Y-96064819D01*
X142461905Y-96064819D02*
X142842857Y-96064819D01*
X142842857Y-96064819D02*
X142938095Y-96112438D01*
X142938095Y-96112438D02*
X142985714Y-96160057D01*
X142985714Y-96160057D02*
X143033333Y-96255295D01*
X143033333Y-96255295D02*
X143033333Y-96398152D01*
X143033333Y-96398152D02*
X142985714Y-96493390D01*
X142985714Y-96493390D02*
X142938095Y-96541009D01*
X142938095Y-96541009D02*
X142842857Y-96588628D01*
X142842857Y-96588628D02*
X142461905Y-96588628D01*
X143890476Y-96398152D02*
X143890476Y-97064819D01*
X143652381Y-96017200D02*
X143414286Y-96731485D01*
X143414286Y-96731485D02*
X144033333Y-96731485D01*
X122790095Y-90754819D02*
X123361523Y-90754819D01*
X123075809Y-91754819D02*
X123075809Y-90754819D01*
X123694857Y-91754819D02*
X123694857Y-90754819D01*
X123694857Y-90754819D02*
X124075809Y-90754819D01*
X124075809Y-90754819D02*
X124171047Y-90802438D01*
X124171047Y-90802438D02*
X124218666Y-90850057D01*
X124218666Y-90850057D02*
X124266285Y-90945295D01*
X124266285Y-90945295D02*
X124266285Y-91088152D01*
X124266285Y-91088152D02*
X124218666Y-91183390D01*
X124218666Y-91183390D02*
X124171047Y-91231009D01*
X124171047Y-91231009D02*
X124075809Y-91278628D01*
X124075809Y-91278628D02*
X123694857Y-91278628D01*
X125218666Y-91754819D02*
X124647238Y-91754819D01*
X124932952Y-91754819D02*
X124932952Y-90754819D01*
X124932952Y-90754819D02*
X124837714Y-90897676D01*
X124837714Y-90897676D02*
X124742476Y-90992914D01*
X124742476Y-90992914D02*
X124647238Y-91040533D01*
X129504761Y-115954819D02*
X129171428Y-115478628D01*
X128933333Y-115954819D02*
X128933333Y-114954819D01*
X128933333Y-114954819D02*
X129314285Y-114954819D01*
X129314285Y-114954819D02*
X129409523Y-115002438D01*
X129409523Y-115002438D02*
X129457142Y-115050057D01*
X129457142Y-115050057D02*
X129504761Y-115145295D01*
X129504761Y-115145295D02*
X129504761Y-115288152D01*
X129504761Y-115288152D02*
X129457142Y-115383390D01*
X129457142Y-115383390D02*
X129409523Y-115431009D01*
X129409523Y-115431009D02*
X129314285Y-115478628D01*
X129314285Y-115478628D02*
X128933333Y-115478628D01*
X129790476Y-114954819D02*
X130123809Y-115954819D01*
X130123809Y-115954819D02*
X130457142Y-114954819D01*
X131314285Y-115954819D02*
X130742857Y-115954819D01*
X131028571Y-115954819D02*
X131028571Y-114954819D01*
X131028571Y-114954819D02*
X130933333Y-115097676D01*
X130933333Y-115097676D02*
X130838095Y-115192914D01*
X130838095Y-115192914D02*
X130742857Y-115240533D01*
X120433333Y-106454819D02*
X120100000Y-105978628D01*
X119861905Y-106454819D02*
X119861905Y-105454819D01*
X119861905Y-105454819D02*
X120242857Y-105454819D01*
X120242857Y-105454819D02*
X120338095Y-105502438D01*
X120338095Y-105502438D02*
X120385714Y-105550057D01*
X120385714Y-105550057D02*
X120433333Y-105645295D01*
X120433333Y-105645295D02*
X120433333Y-105788152D01*
X120433333Y-105788152D02*
X120385714Y-105883390D01*
X120385714Y-105883390D02*
X120338095Y-105931009D01*
X120338095Y-105931009D02*
X120242857Y-105978628D01*
X120242857Y-105978628D02*
X119861905Y-105978628D01*
X121338095Y-105454819D02*
X120861905Y-105454819D01*
X120861905Y-105454819D02*
X120814286Y-105931009D01*
X120814286Y-105931009D02*
X120861905Y-105883390D01*
X120861905Y-105883390D02*
X120957143Y-105835771D01*
X120957143Y-105835771D02*
X121195238Y-105835771D01*
X121195238Y-105835771D02*
X121290476Y-105883390D01*
X121290476Y-105883390D02*
X121338095Y-105931009D01*
X121338095Y-105931009D02*
X121385714Y-106026247D01*
X121385714Y-106026247D02*
X121385714Y-106264342D01*
X121385714Y-106264342D02*
X121338095Y-106359580D01*
X121338095Y-106359580D02*
X121290476Y-106407200D01*
X121290476Y-106407200D02*
X121195238Y-106454819D01*
X121195238Y-106454819D02*
X120957143Y-106454819D01*
X120957143Y-106454819D02*
X120861905Y-106407200D01*
X120861905Y-106407200D02*
X120814286Y-106359580D01*
X169156666Y-93834819D02*
X169156666Y-94549104D01*
X169156666Y-94549104D02*
X169109047Y-94691961D01*
X169109047Y-94691961D02*
X169013809Y-94787200D01*
X169013809Y-94787200D02*
X168870952Y-94834819D01*
X168870952Y-94834819D02*
X168775714Y-94834819D01*
X170156666Y-94834819D02*
X169585238Y-94834819D01*
X169870952Y-94834819D02*
X169870952Y-93834819D01*
X169870952Y-93834819D02*
X169775714Y-93977676D01*
X169775714Y-93977676D02*
X169680476Y-94072914D01*
X169680476Y-94072914D02*
X169585238Y-94120533D01*
X161488095Y-117378819D02*
X162059523Y-117378819D01*
X161773809Y-118378819D02*
X161773809Y-117378819D01*
X162392857Y-118378819D02*
X162392857Y-117378819D01*
X162392857Y-117378819D02*
X162773809Y-117378819D01*
X162773809Y-117378819D02*
X162869047Y-117426438D01*
X162869047Y-117426438D02*
X162916666Y-117474057D01*
X162916666Y-117474057D02*
X162964285Y-117569295D01*
X162964285Y-117569295D02*
X162964285Y-117712152D01*
X162964285Y-117712152D02*
X162916666Y-117807390D01*
X162916666Y-117807390D02*
X162869047Y-117855009D01*
X162869047Y-117855009D02*
X162773809Y-117902628D01*
X162773809Y-117902628D02*
X162392857Y-117902628D01*
X163345238Y-117474057D02*
X163392857Y-117426438D01*
X163392857Y-117426438D02*
X163488095Y-117378819D01*
X163488095Y-117378819D02*
X163726190Y-117378819D01*
X163726190Y-117378819D02*
X163821428Y-117426438D01*
X163821428Y-117426438D02*
X163869047Y-117474057D01*
X163869047Y-117474057D02*
X163916666Y-117569295D01*
X163916666Y-117569295D02*
X163916666Y-117664533D01*
X163916666Y-117664533D02*
X163869047Y-117807390D01*
X163869047Y-117807390D02*
X163297619Y-118378819D01*
X163297619Y-118378819D02*
X163916666Y-118378819D01*
X139216666Y-106154819D02*
X139216666Y-106869104D01*
X139216666Y-106869104D02*
X139169047Y-107011961D01*
X139169047Y-107011961D02*
X139073809Y-107107200D01*
X139073809Y-107107200D02*
X138930952Y-107154819D01*
X138930952Y-107154819D02*
X138835714Y-107154819D01*
X139692857Y-107154819D02*
X139692857Y-106154819D01*
X139692857Y-106154819D02*
X140073809Y-106154819D01*
X140073809Y-106154819D02*
X140169047Y-106202438D01*
X140169047Y-106202438D02*
X140216666Y-106250057D01*
X140216666Y-106250057D02*
X140264285Y-106345295D01*
X140264285Y-106345295D02*
X140264285Y-106488152D01*
X140264285Y-106488152D02*
X140216666Y-106583390D01*
X140216666Y-106583390D02*
X140169047Y-106631009D01*
X140169047Y-106631009D02*
X140073809Y-106678628D01*
X140073809Y-106678628D02*
X139692857Y-106678628D01*
X141169047Y-106154819D02*
X140692857Y-106154819D01*
X140692857Y-106154819D02*
X140645238Y-106631009D01*
X140645238Y-106631009D02*
X140692857Y-106583390D01*
X140692857Y-106583390D02*
X140788095Y-106535771D01*
X140788095Y-106535771D02*
X141026190Y-106535771D01*
X141026190Y-106535771D02*
X141121428Y-106583390D01*
X141121428Y-106583390D02*
X141169047Y-106631009D01*
X141169047Y-106631009D02*
X141216666Y-106726247D01*
X141216666Y-106726247D02*
X141216666Y-106964342D01*
X141216666Y-106964342D02*
X141169047Y-107059580D01*
X141169047Y-107059580D02*
X141121428Y-107107200D01*
X141121428Y-107107200D02*
X141026190Y-107154819D01*
X141026190Y-107154819D02*
X140788095Y-107154819D01*
X140788095Y-107154819D02*
X140692857Y-107107200D01*
X140692857Y-107107200D02*
X140645238Y-107059580D01*
X129411333Y-85414819D02*
X129078000Y-84938628D01*
X128839905Y-85414819D02*
X128839905Y-84414819D01*
X128839905Y-84414819D02*
X129220857Y-84414819D01*
X129220857Y-84414819D02*
X129316095Y-84462438D01*
X129316095Y-84462438D02*
X129363714Y-84510057D01*
X129363714Y-84510057D02*
X129411333Y-84605295D01*
X129411333Y-84605295D02*
X129411333Y-84748152D01*
X129411333Y-84748152D02*
X129363714Y-84843390D01*
X129363714Y-84843390D02*
X129316095Y-84891009D01*
X129316095Y-84891009D02*
X129220857Y-84938628D01*
X129220857Y-84938628D02*
X128839905Y-84938628D01*
X129792286Y-84510057D02*
X129839905Y-84462438D01*
X129839905Y-84462438D02*
X129935143Y-84414819D01*
X129935143Y-84414819D02*
X130173238Y-84414819D01*
X130173238Y-84414819D02*
X130268476Y-84462438D01*
X130268476Y-84462438D02*
X130316095Y-84510057D01*
X130316095Y-84510057D02*
X130363714Y-84605295D01*
X130363714Y-84605295D02*
X130363714Y-84700533D01*
X130363714Y-84700533D02*
X130316095Y-84843390D01*
X130316095Y-84843390D02*
X129744667Y-85414819D01*
X129744667Y-85414819D02*
X130363714Y-85414819D01*
X137133333Y-93059580D02*
X137085714Y-93107200D01*
X137085714Y-93107200D02*
X136942857Y-93154819D01*
X136942857Y-93154819D02*
X136847619Y-93154819D01*
X136847619Y-93154819D02*
X136704762Y-93107200D01*
X136704762Y-93107200D02*
X136609524Y-93011961D01*
X136609524Y-93011961D02*
X136561905Y-92916723D01*
X136561905Y-92916723D02*
X136514286Y-92726247D01*
X136514286Y-92726247D02*
X136514286Y-92583390D01*
X136514286Y-92583390D02*
X136561905Y-92392914D01*
X136561905Y-92392914D02*
X136609524Y-92297676D01*
X136609524Y-92297676D02*
X136704762Y-92202438D01*
X136704762Y-92202438D02*
X136847619Y-92154819D01*
X136847619Y-92154819D02*
X136942857Y-92154819D01*
X136942857Y-92154819D02*
X137085714Y-92202438D01*
X137085714Y-92202438D02*
X137133333Y-92250057D01*
X137466667Y-92154819D02*
X138085714Y-92154819D01*
X138085714Y-92154819D02*
X137752381Y-92535771D01*
X137752381Y-92535771D02*
X137895238Y-92535771D01*
X137895238Y-92535771D02*
X137990476Y-92583390D01*
X137990476Y-92583390D02*
X138038095Y-92631009D01*
X138038095Y-92631009D02*
X138085714Y-92726247D01*
X138085714Y-92726247D02*
X138085714Y-92964342D01*
X138085714Y-92964342D02*
X138038095Y-93059580D01*
X138038095Y-93059580D02*
X137990476Y-93107200D01*
X137990476Y-93107200D02*
X137895238Y-93154819D01*
X137895238Y-93154819D02*
X137609524Y-93154819D01*
X137609524Y-93154819D02*
X137514286Y-93107200D01*
X137514286Y-93107200D02*
X137466667Y-93059580D01*
D12*
X136466666Y-101632419D02*
X136466666Y-102346704D01*
X136466666Y-102346704D02*
X136419047Y-102489561D01*
X136419047Y-102489561D02*
X136323809Y-102584800D01*
X136323809Y-102584800D02*
X136180952Y-102632419D01*
X136180952Y-102632419D02*
X136085714Y-102632419D01*
X136942857Y-102632419D02*
X136942857Y-101632419D01*
X136942857Y-101632419D02*
X137323809Y-101632419D01*
X137323809Y-101632419D02*
X137419047Y-101680038D01*
X137419047Y-101680038D02*
X137466666Y-101727657D01*
X137466666Y-101727657D02*
X137514285Y-101822895D01*
X137514285Y-101822895D02*
X137514285Y-101965752D01*
X137514285Y-101965752D02*
X137466666Y-102060990D01*
X137466666Y-102060990D02*
X137419047Y-102108609D01*
X137419047Y-102108609D02*
X137323809Y-102156228D01*
X137323809Y-102156228D02*
X136942857Y-102156228D01*
X138371428Y-101965752D02*
X138371428Y-102632419D01*
X138133333Y-101584800D02*
X137895238Y-102299085D01*
X137895238Y-102299085D02*
X138514285Y-102299085D01*
D11*
X145631905Y-112044819D02*
X145631905Y-111044819D01*
X145631905Y-111044819D02*
X145870000Y-111044819D01*
X145870000Y-111044819D02*
X146012857Y-111092438D01*
X146012857Y-111092438D02*
X146108095Y-111187676D01*
X146108095Y-111187676D02*
X146155714Y-111282914D01*
X146155714Y-111282914D02*
X146203333Y-111473390D01*
X146203333Y-111473390D02*
X146203333Y-111616247D01*
X146203333Y-111616247D02*
X146155714Y-111806723D01*
X146155714Y-111806723D02*
X146108095Y-111901961D01*
X146108095Y-111901961D02*
X146012857Y-111997200D01*
X146012857Y-111997200D02*
X145870000Y-112044819D01*
X145870000Y-112044819D02*
X145631905Y-112044819D01*
X147060476Y-111378152D02*
X147060476Y-112044819D01*
X146822381Y-110997200D02*
X146584286Y-111711485D01*
X146584286Y-111711485D02*
X147203333Y-111711485D01*
X147708095Y-102484819D02*
X147708095Y-101484819D01*
X148279523Y-102484819D02*
X147850952Y-101913390D01*
X148279523Y-101484819D02*
X147708095Y-102056247D01*
X145641905Y-90564819D02*
X145641905Y-89564819D01*
X145641905Y-89564819D02*
X145880000Y-89564819D01*
X145880000Y-89564819D02*
X146022857Y-89612438D01*
X146022857Y-89612438D02*
X146118095Y-89707676D01*
X146118095Y-89707676D02*
X146165714Y-89802914D01*
X146165714Y-89802914D02*
X146213333Y-89993390D01*
X146213333Y-89993390D02*
X146213333Y-90136247D01*
X146213333Y-90136247D02*
X146165714Y-90326723D01*
X146165714Y-90326723D02*
X146118095Y-90421961D01*
X146118095Y-90421961D02*
X146022857Y-90517200D01*
X146022857Y-90517200D02*
X145880000Y-90564819D01*
X145880000Y-90564819D02*
X145641905Y-90564819D01*
X146594286Y-89660057D02*
X146641905Y-89612438D01*
X146641905Y-89612438D02*
X146737143Y-89564819D01*
X146737143Y-89564819D02*
X146975238Y-89564819D01*
X146975238Y-89564819D02*
X147070476Y-89612438D01*
X147070476Y-89612438D02*
X147118095Y-89660057D01*
X147118095Y-89660057D02*
X147165714Y-89755295D01*
X147165714Y-89755295D02*
X147165714Y-89850533D01*
X147165714Y-89850533D02*
X147118095Y-89993390D01*
X147118095Y-89993390D02*
X146546667Y-90564819D01*
X146546667Y-90564819D02*
X147165714Y-90564819D01*
X147718095Y-100184819D02*
X147718095Y-99184819D01*
X148289523Y-100184819D02*
X147860952Y-99613390D01*
X148289523Y-99184819D02*
X147718095Y-99756247D01*
X129866095Y-89914819D02*
X129866095Y-90724342D01*
X129866095Y-90724342D02*
X129913714Y-90819580D01*
X129913714Y-90819580D02*
X129961333Y-90867200D01*
X129961333Y-90867200D02*
X130056571Y-90914819D01*
X130056571Y-90914819D02*
X130247047Y-90914819D01*
X130247047Y-90914819D02*
X130342285Y-90867200D01*
X130342285Y-90867200D02*
X130389904Y-90819580D01*
X130389904Y-90819580D02*
X130437523Y-90724342D01*
X130437523Y-90724342D02*
X130437523Y-89914819D01*
X131437523Y-90914819D02*
X130866095Y-90914819D01*
X131151809Y-90914819D02*
X131151809Y-89914819D01*
X131151809Y-89914819D02*
X131056571Y-90057676D01*
X131056571Y-90057676D02*
X130961333Y-90152914D01*
X130961333Y-90152914D02*
X130866095Y-90200533D01*
X125261333Y-85414819D02*
X124928000Y-84938628D01*
X124689905Y-85414819D02*
X124689905Y-84414819D01*
X124689905Y-84414819D02*
X125070857Y-84414819D01*
X125070857Y-84414819D02*
X125166095Y-84462438D01*
X125166095Y-84462438D02*
X125213714Y-84510057D01*
X125213714Y-84510057D02*
X125261333Y-84605295D01*
X125261333Y-84605295D02*
X125261333Y-84748152D01*
X125261333Y-84748152D02*
X125213714Y-84843390D01*
X125213714Y-84843390D02*
X125166095Y-84891009D01*
X125166095Y-84891009D02*
X125070857Y-84938628D01*
X125070857Y-84938628D02*
X124689905Y-84938628D01*
X126213714Y-85414819D02*
X125642286Y-85414819D01*
X125928000Y-85414819D02*
X125928000Y-84414819D01*
X125928000Y-84414819D02*
X125832762Y-84557676D01*
X125832762Y-84557676D02*
X125737524Y-84652914D01*
X125737524Y-84652914D02*
X125642286Y-84700533D01*
X129338095Y-100354819D02*
X129338095Y-101164342D01*
X129338095Y-101164342D02*
X129385714Y-101259580D01*
X129385714Y-101259580D02*
X129433333Y-101307200D01*
X129433333Y-101307200D02*
X129528571Y-101354819D01*
X129528571Y-101354819D02*
X129719047Y-101354819D01*
X129719047Y-101354819D02*
X129814285Y-101307200D01*
X129814285Y-101307200D02*
X129861904Y-101259580D01*
X129861904Y-101259580D02*
X129909523Y-101164342D01*
X129909523Y-101164342D02*
X129909523Y-100354819D01*
X130338095Y-100450057D02*
X130385714Y-100402438D01*
X130385714Y-100402438D02*
X130480952Y-100354819D01*
X130480952Y-100354819D02*
X130719047Y-100354819D01*
X130719047Y-100354819D02*
X130814285Y-100402438D01*
X130814285Y-100402438D02*
X130861904Y-100450057D01*
X130861904Y-100450057D02*
X130909523Y-100545295D01*
X130909523Y-100545295D02*
X130909523Y-100640533D01*
X130909523Y-100640533D02*
X130861904Y-100783390D01*
X130861904Y-100783390D02*
X130290476Y-101354819D01*
X130290476Y-101354819D02*
X130909523Y-101354819D01*
X133100000Y-104754819D02*
X133100000Y-104992914D01*
X132861905Y-104897676D02*
X133100000Y-104992914D01*
X133100000Y-104992914D02*
X133338095Y-104897676D01*
X132957143Y-105183390D02*
X133100000Y-104992914D01*
X133100000Y-104992914D02*
X133242857Y-105183390D01*
X133099999Y-105845180D02*
X133099999Y-105607085D01*
X133338094Y-105702323D02*
X133099999Y-105607085D01*
X133099999Y-105607085D02*
X132861904Y-105702323D01*
X133242856Y-105416609D02*
X133099999Y-105607085D01*
X133099999Y-105607085D02*
X132957142Y-105416609D01*
X153833333Y-104309580D02*
X153785714Y-104357200D01*
X153785714Y-104357200D02*
X153642857Y-104404819D01*
X153642857Y-104404819D02*
X153547619Y-104404819D01*
X153547619Y-104404819D02*
X153404762Y-104357200D01*
X153404762Y-104357200D02*
X153309524Y-104261961D01*
X153309524Y-104261961D02*
X153261905Y-104166723D01*
X153261905Y-104166723D02*
X153214286Y-103976247D01*
X153214286Y-103976247D02*
X153214286Y-103833390D01*
X153214286Y-103833390D02*
X153261905Y-103642914D01*
X153261905Y-103642914D02*
X153309524Y-103547676D01*
X153309524Y-103547676D02*
X153404762Y-103452438D01*
X153404762Y-103452438D02*
X153547619Y-103404819D01*
X153547619Y-103404819D02*
X153642857Y-103404819D01*
X153642857Y-103404819D02*
X153785714Y-103452438D01*
X153785714Y-103452438D02*
X153833333Y-103500057D01*
X154214286Y-103500057D02*
X154261905Y-103452438D01*
X154261905Y-103452438D02*
X154357143Y-103404819D01*
X154357143Y-103404819D02*
X154595238Y-103404819D01*
X154595238Y-103404819D02*
X154690476Y-103452438D01*
X154690476Y-103452438D02*
X154738095Y-103500057D01*
X154738095Y-103500057D02*
X154785714Y-103595295D01*
X154785714Y-103595295D02*
X154785714Y-103690533D01*
X154785714Y-103690533D02*
X154738095Y-103833390D01*
X154738095Y-103833390D02*
X154166667Y-104404819D01*
X154166667Y-104404819D02*
X154785714Y-104404819D01*
X139216666Y-94654819D02*
X139216666Y-95369104D01*
X139216666Y-95369104D02*
X139169047Y-95511961D01*
X139169047Y-95511961D02*
X139073809Y-95607200D01*
X139073809Y-95607200D02*
X138930952Y-95654819D01*
X138930952Y-95654819D02*
X138835714Y-95654819D01*
X139692857Y-95654819D02*
X139692857Y-94654819D01*
X139692857Y-94654819D02*
X140073809Y-94654819D01*
X140073809Y-94654819D02*
X140169047Y-94702438D01*
X140169047Y-94702438D02*
X140216666Y-94750057D01*
X140216666Y-94750057D02*
X140264285Y-94845295D01*
X140264285Y-94845295D02*
X140264285Y-94988152D01*
X140264285Y-94988152D02*
X140216666Y-95083390D01*
X140216666Y-95083390D02*
X140169047Y-95131009D01*
X140169047Y-95131009D02*
X140073809Y-95178628D01*
X140073809Y-95178628D02*
X139692857Y-95178628D01*
X140645238Y-94750057D02*
X140692857Y-94702438D01*
X140692857Y-94702438D02*
X140788095Y-94654819D01*
X140788095Y-94654819D02*
X141026190Y-94654819D01*
X141026190Y-94654819D02*
X141121428Y-94702438D01*
X141121428Y-94702438D02*
X141169047Y-94750057D01*
X141169047Y-94750057D02*
X141216666Y-94845295D01*
X141216666Y-94845295D02*
X141216666Y-94940533D01*
X141216666Y-94940533D02*
X141169047Y-95083390D01*
X141169047Y-95083390D02*
X140597619Y-95654819D01*
X140597619Y-95654819D02*
X141216666Y-95654819D01*
X117474666Y-85854819D02*
X117474666Y-86569104D01*
X117474666Y-86569104D02*
X117427047Y-86711961D01*
X117427047Y-86711961D02*
X117331809Y-86807200D01*
X117331809Y-86807200D02*
X117188952Y-86854819D01*
X117188952Y-86854819D02*
X117093714Y-86854819D01*
X117903238Y-85950057D02*
X117950857Y-85902438D01*
X117950857Y-85902438D02*
X118046095Y-85854819D01*
X118046095Y-85854819D02*
X118284190Y-85854819D01*
X118284190Y-85854819D02*
X118379428Y-85902438D01*
X118379428Y-85902438D02*
X118427047Y-85950057D01*
X118427047Y-85950057D02*
X118474666Y-86045295D01*
X118474666Y-86045295D02*
X118474666Y-86140533D01*
X118474666Y-86140533D02*
X118427047Y-86283390D01*
X118427047Y-86283390D02*
X117855619Y-86854819D01*
X117855619Y-86854819D02*
X118474666Y-86854819D01*
X148901905Y-90584819D02*
X148901905Y-89584819D01*
X148901905Y-89584819D02*
X149140000Y-89584819D01*
X149140000Y-89584819D02*
X149282857Y-89632438D01*
X149282857Y-89632438D02*
X149378095Y-89727676D01*
X149378095Y-89727676D02*
X149425714Y-89822914D01*
X149425714Y-89822914D02*
X149473333Y-90013390D01*
X149473333Y-90013390D02*
X149473333Y-90156247D01*
X149473333Y-90156247D02*
X149425714Y-90346723D01*
X149425714Y-90346723D02*
X149378095Y-90441961D01*
X149378095Y-90441961D02*
X149282857Y-90537200D01*
X149282857Y-90537200D02*
X149140000Y-90584819D01*
X149140000Y-90584819D02*
X148901905Y-90584819D01*
X150425714Y-90584819D02*
X149854286Y-90584819D01*
X150140000Y-90584819D02*
X150140000Y-89584819D01*
X150140000Y-89584819D02*
X150044762Y-89727676D01*
X150044762Y-89727676D02*
X149949524Y-89822914D01*
X149949524Y-89822914D02*
X149854286Y-89870533D01*
X151178095Y-92564819D02*
X151178095Y-91564819D01*
X151749523Y-92564819D02*
X151320952Y-91993390D01*
X151749523Y-91564819D02*
X151178095Y-92136247D01*
D12*
X136516666Y-98982419D02*
X136516666Y-99696704D01*
X136516666Y-99696704D02*
X136469047Y-99839561D01*
X136469047Y-99839561D02*
X136373809Y-99934800D01*
X136373809Y-99934800D02*
X136230952Y-99982419D01*
X136230952Y-99982419D02*
X136135714Y-99982419D01*
X136992857Y-99982419D02*
X136992857Y-98982419D01*
X136992857Y-98982419D02*
X137373809Y-98982419D01*
X137373809Y-98982419D02*
X137469047Y-99030038D01*
X137469047Y-99030038D02*
X137516666Y-99077657D01*
X137516666Y-99077657D02*
X137564285Y-99172895D01*
X137564285Y-99172895D02*
X137564285Y-99315752D01*
X137564285Y-99315752D02*
X137516666Y-99410990D01*
X137516666Y-99410990D02*
X137469047Y-99458609D01*
X137469047Y-99458609D02*
X137373809Y-99506228D01*
X137373809Y-99506228D02*
X136992857Y-99506228D01*
X137897619Y-98982419D02*
X138516666Y-98982419D01*
X138516666Y-98982419D02*
X138183333Y-99363371D01*
X138183333Y-99363371D02*
X138326190Y-99363371D01*
X138326190Y-99363371D02*
X138421428Y-99410990D01*
X138421428Y-99410990D02*
X138469047Y-99458609D01*
X138469047Y-99458609D02*
X138516666Y-99553847D01*
X138516666Y-99553847D02*
X138516666Y-99791942D01*
X138516666Y-99791942D02*
X138469047Y-99887180D01*
X138469047Y-99887180D02*
X138421428Y-99934800D01*
X138421428Y-99934800D02*
X138326190Y-99982419D01*
X138326190Y-99982419D02*
X138040476Y-99982419D01*
X138040476Y-99982419D02*
X137945238Y-99934800D01*
X137945238Y-99934800D02*
X137897619Y-99887180D01*
D11*
X120438095Y-96104819D02*
X121009523Y-96104819D01*
X120723809Y-97104819D02*
X120723809Y-96104819D01*
X121342857Y-97104819D02*
X121342857Y-96104819D01*
X121342857Y-96104819D02*
X121723809Y-96104819D01*
X121723809Y-96104819D02*
X121819047Y-96152438D01*
X121819047Y-96152438D02*
X121866666Y-96200057D01*
X121866666Y-96200057D02*
X121914285Y-96295295D01*
X121914285Y-96295295D02*
X121914285Y-96438152D01*
X121914285Y-96438152D02*
X121866666Y-96533390D01*
X121866666Y-96533390D02*
X121819047Y-96581009D01*
X121819047Y-96581009D02*
X121723809Y-96628628D01*
X121723809Y-96628628D02*
X121342857Y-96628628D01*
X122247619Y-96104819D02*
X122866666Y-96104819D01*
X122866666Y-96104819D02*
X122533333Y-96485771D01*
X122533333Y-96485771D02*
X122676190Y-96485771D01*
X122676190Y-96485771D02*
X122771428Y-96533390D01*
X122771428Y-96533390D02*
X122819047Y-96581009D01*
X122819047Y-96581009D02*
X122866666Y-96676247D01*
X122866666Y-96676247D02*
X122866666Y-96914342D01*
X122866666Y-96914342D02*
X122819047Y-97009580D01*
X122819047Y-97009580D02*
X122771428Y-97057200D01*
X122771428Y-97057200D02*
X122676190Y-97104819D01*
X122676190Y-97104819D02*
X122390476Y-97104819D01*
X122390476Y-97104819D02*
X122295238Y-97057200D01*
X122295238Y-97057200D02*
X122247619Y-97009580D01*
X153833333Y-98359580D02*
X153785714Y-98407200D01*
X153785714Y-98407200D02*
X153642857Y-98454819D01*
X153642857Y-98454819D02*
X153547619Y-98454819D01*
X153547619Y-98454819D02*
X153404762Y-98407200D01*
X153404762Y-98407200D02*
X153309524Y-98311961D01*
X153309524Y-98311961D02*
X153261905Y-98216723D01*
X153261905Y-98216723D02*
X153214286Y-98026247D01*
X153214286Y-98026247D02*
X153214286Y-97883390D01*
X153214286Y-97883390D02*
X153261905Y-97692914D01*
X153261905Y-97692914D02*
X153309524Y-97597676D01*
X153309524Y-97597676D02*
X153404762Y-97502438D01*
X153404762Y-97502438D02*
X153547619Y-97454819D01*
X153547619Y-97454819D02*
X153642857Y-97454819D01*
X153642857Y-97454819D02*
X153785714Y-97502438D01*
X153785714Y-97502438D02*
X153833333Y-97550057D01*
X154785714Y-98454819D02*
X154214286Y-98454819D01*
X154500000Y-98454819D02*
X154500000Y-97454819D01*
X154500000Y-97454819D02*
X154404762Y-97597676D01*
X154404762Y-97597676D02*
X154309524Y-97692914D01*
X154309524Y-97692914D02*
X154214286Y-97740533D01*
X143033333Y-105714819D02*
X142700000Y-105238628D01*
X142461905Y-105714819D02*
X142461905Y-104714819D01*
X142461905Y-104714819D02*
X142842857Y-104714819D01*
X142842857Y-104714819D02*
X142938095Y-104762438D01*
X142938095Y-104762438D02*
X142985714Y-104810057D01*
X142985714Y-104810057D02*
X143033333Y-104905295D01*
X143033333Y-104905295D02*
X143033333Y-105048152D01*
X143033333Y-105048152D02*
X142985714Y-105143390D01*
X142985714Y-105143390D02*
X142938095Y-105191009D01*
X142938095Y-105191009D02*
X142842857Y-105238628D01*
X142842857Y-105238628D02*
X142461905Y-105238628D01*
X143366667Y-104714819D02*
X143985714Y-104714819D01*
X143985714Y-104714819D02*
X143652381Y-105095771D01*
X143652381Y-105095771D02*
X143795238Y-105095771D01*
X143795238Y-105095771D02*
X143890476Y-105143390D01*
X143890476Y-105143390D02*
X143938095Y-105191009D01*
X143938095Y-105191009D02*
X143985714Y-105286247D01*
X143985714Y-105286247D02*
X143985714Y-105524342D01*
X143985714Y-105524342D02*
X143938095Y-105619580D01*
X143938095Y-105619580D02*
X143890476Y-105667200D01*
X143890476Y-105667200D02*
X143795238Y-105714819D01*
X143795238Y-105714819D02*
X143509524Y-105714819D01*
X143509524Y-105714819D02*
X143414286Y-105667200D01*
X143414286Y-105667200D02*
X143366667Y-105619580D01*
X117833333Y-102859580D02*
X117785714Y-102907200D01*
X117785714Y-102907200D02*
X117642857Y-102954819D01*
X117642857Y-102954819D02*
X117547619Y-102954819D01*
X117547619Y-102954819D02*
X117404762Y-102907200D01*
X117404762Y-102907200D02*
X117309524Y-102811961D01*
X117309524Y-102811961D02*
X117261905Y-102716723D01*
X117261905Y-102716723D02*
X117214286Y-102526247D01*
X117214286Y-102526247D02*
X117214286Y-102383390D01*
X117214286Y-102383390D02*
X117261905Y-102192914D01*
X117261905Y-102192914D02*
X117309524Y-102097676D01*
X117309524Y-102097676D02*
X117404762Y-102002438D01*
X117404762Y-102002438D02*
X117547619Y-101954819D01*
X117547619Y-101954819D02*
X117642857Y-101954819D01*
X117642857Y-101954819D02*
X117785714Y-102002438D01*
X117785714Y-102002438D02*
X117833333Y-102050057D01*
X118690476Y-102288152D02*
X118690476Y-102954819D01*
X118452381Y-101907200D02*
X118214286Y-102621485D01*
X118214286Y-102621485D02*
X118833333Y-102621485D01*
X148891905Y-112094819D02*
X148891905Y-111094819D01*
X148891905Y-111094819D02*
X149130000Y-111094819D01*
X149130000Y-111094819D02*
X149272857Y-111142438D01*
X149272857Y-111142438D02*
X149368095Y-111237676D01*
X149368095Y-111237676D02*
X149415714Y-111332914D01*
X149415714Y-111332914D02*
X149463333Y-111523390D01*
X149463333Y-111523390D02*
X149463333Y-111666247D01*
X149463333Y-111666247D02*
X149415714Y-111856723D01*
X149415714Y-111856723D02*
X149368095Y-111951961D01*
X149368095Y-111951961D02*
X149272857Y-112047200D01*
X149272857Y-112047200D02*
X149130000Y-112094819D01*
X149130000Y-112094819D02*
X148891905Y-112094819D01*
X149796667Y-111094819D02*
X150415714Y-111094819D01*
X150415714Y-111094819D02*
X150082381Y-111475771D01*
X150082381Y-111475771D02*
X150225238Y-111475771D01*
X150225238Y-111475771D02*
X150320476Y-111523390D01*
X150320476Y-111523390D02*
X150368095Y-111571009D01*
X150368095Y-111571009D02*
X150415714Y-111666247D01*
X150415714Y-111666247D02*
X150415714Y-111904342D01*
X150415714Y-111904342D02*
X150368095Y-111999580D01*
X150368095Y-111999580D02*
X150320476Y-112047200D01*
X150320476Y-112047200D02*
X150225238Y-112094819D01*
X150225238Y-112094819D02*
X149939524Y-112094819D01*
X149939524Y-112094819D02*
X149844286Y-112047200D01*
X149844286Y-112047200D02*
X149796667Y-111999580D01*
X151168095Y-110094819D02*
X151168095Y-109094819D01*
X151739523Y-110094819D02*
X151310952Y-109523390D01*
X151739523Y-109094819D02*
X151168095Y-109666247D01*
X137566666Y-112204819D02*
X137566666Y-112919104D01*
X137566666Y-112919104D02*
X137519047Y-113061961D01*
X137519047Y-113061961D02*
X137423809Y-113157200D01*
X137423809Y-113157200D02*
X137280952Y-113204819D01*
X137280952Y-113204819D02*
X137185714Y-113204819D01*
X138042857Y-113204819D02*
X138042857Y-112204819D01*
X138042857Y-112204819D02*
X138423809Y-112204819D01*
X138423809Y-112204819D02*
X138519047Y-112252438D01*
X138519047Y-112252438D02*
X138566666Y-112300057D01*
X138566666Y-112300057D02*
X138614285Y-112395295D01*
X138614285Y-112395295D02*
X138614285Y-112538152D01*
X138614285Y-112538152D02*
X138566666Y-112633390D01*
X138566666Y-112633390D02*
X138519047Y-112681009D01*
X138519047Y-112681009D02*
X138423809Y-112728628D01*
X138423809Y-112728628D02*
X138042857Y-112728628D01*
X139566666Y-113204819D02*
X138995238Y-113204819D01*
X139280952Y-113204819D02*
X139280952Y-112204819D01*
X139280952Y-112204819D02*
X139185714Y-112347676D01*
X139185714Y-112347676D02*
X139090476Y-112442914D01*
X139090476Y-112442914D02*
X138995238Y-112490533D01*
D13*
%TO.C,R4*%
X142465000Y-99321252D02*
X142465000Y-98798748D01*
X143935000Y-99321252D02*
X143935000Y-98798748D01*
%TO.C,TP1*%
X125252000Y-93400000D02*
G75*
G02*
X122852000Y-93400000I-1200000J0D01*
G01*
X122852000Y-93400000D02*
G75*
G02*
X125252000Y-93400000I1200000J0D01*
G01*
%TO.C,RV1*%
X125230000Y-108780000D02*
X125230000Y-113500000D01*
X125230000Y-108780000D02*
X126720000Y-108780000D01*
X125230000Y-117310000D02*
X125230000Y-120370000D01*
X125230000Y-120370000D02*
X134970000Y-120370000D01*
X128440000Y-108780000D02*
X129270000Y-108780000D01*
X130890000Y-108780000D02*
X131420000Y-108780000D01*
X133790000Y-108780000D02*
X134970000Y-108780000D01*
X134970000Y-117310000D02*
X134970000Y-120370000D01*
X134980000Y-108780000D02*
X134980000Y-113500000D01*
%TO.C,R5*%
X121965000Y-106261252D02*
X121965000Y-105738748D01*
X123435000Y-106261252D02*
X123435000Y-105738748D01*
%TO.C,J1*%
X158590000Y-95330000D02*
X158590000Y-90090000D01*
X158590000Y-100590000D02*
X158860000Y-100440000D01*
X158590000Y-101450000D02*
X158590000Y-100590000D01*
X158980000Y-102090000D02*
X158590000Y-101450000D01*
X159590000Y-101750000D02*
X158980000Y-102090000D01*
X164930000Y-105360000D02*
X164930000Y-110130000D01*
X166430000Y-110130000D02*
X164930000Y-110130000D01*
X166430000Y-110130000D02*
X166430000Y-106060000D01*
X168550000Y-106370000D02*
X168550000Y-107630000D01*
X169230000Y-107830000D02*
X168750000Y-107830000D01*
X169430000Y-106230000D02*
X169430000Y-107630000D01*
X172550000Y-106060000D02*
X172550000Y-106060000D01*
X172550000Y-110130000D02*
X172550000Y-106060000D01*
X174050000Y-107830000D02*
X179390000Y-107830000D01*
X174050000Y-110130000D02*
X172550000Y-110130000D01*
X174050000Y-110130000D02*
X174050000Y-107830000D01*
X180390000Y-100570000D02*
X180390000Y-89210000D01*
X157533311Y-87012431D02*
G75*
G02*
X158590000Y-90090000I-3953304J-3077567D01*
G01*
X157538021Y-87020968D02*
G75*
G02*
X160920000Y-83200000I2051979J1590968D01*
G01*
X159330786Y-99281372D02*
G75*
G02*
X158860000Y-100440000I-950786J-288628D01*
G01*
X159590000Y-101750000D02*
G75*
G02*
X160887798Y-102023832I490000J-890001D01*
G01*
X164863636Y-105200864D02*
G75*
G02*
X164930000Y-105360000I-133632J-149134D01*
G01*
X165170950Y-83599262D02*
G75*
G02*
X180390001Y-89210000I4319051J-11730736D01*
G01*
X165181919Y-83596159D02*
G75*
G02*
X160920000Y-83200000I-1711919J4706162D01*
G01*
X166430000Y-106060000D02*
G75*
G02*
X166621697Y-105850798I210001J0D01*
G01*
X168391582Y-106174370D02*
G75*
G02*
X168550000Y-106370000I-41584J-195631D01*
G01*
X168750000Y-107830000D02*
G75*
G02*
X168550000Y-107630000I1J200001D01*
G01*
X169430000Y-107630000D02*
G75*
G02*
X169230000Y-107830000I-200001J1D01*
G01*
X172350991Y-105850288D02*
G75*
G02*
X172550000Y-106060000I-10991J-209712D01*
G01*
X181441619Y-103632858D02*
G75*
G02*
X179390000Y-107830001I-2051619J-1597142D01*
G01*
X181442470Y-103635283D02*
G75*
G02*
X180390000Y-100570000I3937530J3065283D01*
G01*
X160790000Y-85430000D02*
G75*
G02*
X158390000Y-85430000I-1200000J0D01*
G01*
X158390000Y-85430000D02*
G75*
G02*
X160790000Y-85430000I1200000J0D01*
G01*
X177390000Y-95330000D02*
G75*
G02*
X161590000Y-95330000I-7900000J0D01*
G01*
X161590000Y-95330000D02*
G75*
G02*
X177390000Y-95330000I7900000J0D01*
G01*
X179090000Y-95330000D02*
G75*
G02*
X159890000Y-95330000I-9600000J0D01*
G01*
X159890000Y-95330000D02*
G75*
G02*
X179090000Y-95330000I9600000J0D01*
G01*
X180390000Y-95330000D02*
G75*
G02*
X158590000Y-95330000I-10900000J0D01*
G01*
X158590000Y-95330000D02*
G75*
G02*
X180390000Y-95330000I10900000J0D01*
G01*
X180590000Y-105230000D02*
G75*
G02*
X178190000Y-105230000I-1200000J0D01*
G01*
X178190000Y-105230000D02*
G75*
G02*
X180590000Y-105230000I1200000J0D01*
G01*
%TO.C,TP2*%
X163950000Y-115500000D02*
G75*
G02*
X161550000Y-115500000I-1200000J0D01*
G01*
X161550000Y-115500000D02*
G75*
G02*
X163950000Y-115500000I1200000J0D01*
G01*
%TO.C,JP5*%
X138650000Y-103700000D02*
X141450000Y-103700000D01*
X138650000Y-105700000D02*
X138650000Y-103700000D01*
X141450000Y-103700000D02*
X141450000Y-105700000D01*
X141450000Y-105700000D02*
X138650000Y-105700000D01*
%TO.C,R2*%
X129366748Y-85975000D02*
X129889252Y-85975000D01*
X129366748Y-87445000D02*
X129889252Y-87445000D01*
%TO.C,C3*%
X136345000Y-94100000D02*
X136345000Y-98020000D01*
X136345000Y-98020000D02*
X138255000Y-98020000D01*
X138255000Y-98020000D02*
X138255000Y-94100000D01*
%TO.C,JP4*%
X138650000Y-101150000D02*
X141450000Y-101150000D01*
X138650000Y-103150000D02*
X138650000Y-101150000D01*
X141450000Y-101150000D02*
X141450000Y-103150000D01*
X141450000Y-103150000D02*
X138650000Y-103150000D01*
%TO.C,D4*%
X145250000Y-103720000D02*
X145250000Y-107960000D01*
X145250000Y-107960000D02*
X147490000Y-107960000D01*
X146370000Y-103070000D02*
X146370000Y-103720000D01*
X146370000Y-108610000D02*
X146370000Y-107960000D01*
X147490000Y-103720000D02*
X145250000Y-103720000D01*
X147490000Y-104320000D02*
X145250000Y-104320000D01*
X147490000Y-104440000D02*
X145250000Y-104440000D01*
X147490000Y-104560000D02*
X145250000Y-104560000D01*
X147490000Y-107960000D02*
X147490000Y-103720000D01*
%TO.C,D2*%
X145260000Y-93800000D02*
X145260000Y-98040000D01*
X145260000Y-97200000D02*
X147500000Y-97200000D01*
X145260000Y-97320000D02*
X147500000Y-97320000D01*
X145260000Y-97440000D02*
X147500000Y-97440000D01*
X145260000Y-98040000D02*
X147500000Y-98040000D01*
X146380000Y-93150000D02*
X146380000Y-93800000D01*
X146380000Y-98690000D02*
X146380000Y-98040000D01*
X147500000Y-93800000D02*
X145260000Y-93800000D01*
X147500000Y-98040000D02*
X147500000Y-93800000D01*
%TO.C,U1*%
X126118000Y-90460000D02*
X126118000Y-89660000D01*
X126118000Y-90460000D02*
X126118000Y-91260000D01*
X129238000Y-90460000D02*
X129238000Y-89660000D01*
X129238000Y-90460000D02*
X129238000Y-91260000D01*
X126168000Y-91760000D02*
X125838000Y-92000000D01*
X125838000Y-91520000D01*
X126168000Y-91760000D01*
G36*
X126168000Y-91760000D02*
G01*
X125838000Y-92000000D01*
X125838000Y-91520000D01*
X126168000Y-91760000D01*
G37*
%TO.C,R1*%
X125166748Y-85975000D02*
X125689252Y-85975000D01*
X125166748Y-87445000D02*
X125689252Y-87445000D01*
D14*
%TO.C,U2*%
X126175700Y-95527900D02*
X126175700Y-95843260D01*
X126175700Y-105956740D02*
X126175700Y-106272100D01*
X126175700Y-106272100D02*
X134024300Y-106272100D01*
X134024300Y-95527900D02*
X126175700Y-95527900D01*
X134024300Y-95843260D02*
X134024300Y-95527900D01*
X134024300Y-106272100D02*
X134024300Y-105956740D01*
D15*
G36*
X124174701Y-97915500D02*
G01*
X123920701Y-97915500D01*
X123920701Y-97534500D01*
X124174701Y-97534500D01*
X124174701Y-97915500D01*
G37*
D13*
%TO.C,C2*%
X154711252Y-101190000D02*
X153288748Y-101190000D01*
X154711252Y-103010000D02*
X153288748Y-103010000D01*
%TO.C,JP2*%
X138650000Y-96100000D02*
X141450000Y-96100000D01*
X138650000Y-98100000D02*
X138650000Y-96100000D01*
X141450000Y-96100000D02*
X141450000Y-98100000D01*
X141450000Y-98100000D02*
X138650000Y-98100000D01*
%TO.C,J2*%
X116428000Y-97630000D02*
X116428000Y-87360000D01*
X119188000Y-87360000D02*
X116428000Y-87360000D01*
X119188000Y-97630000D02*
X116428000Y-97630000D01*
X119188000Y-97630000D02*
X119188000Y-87360000D01*
X119188000Y-98900000D02*
X119188000Y-100280000D01*
X119188000Y-100280000D02*
X117808000Y-100280000D01*
%TO.C,D1*%
X148520000Y-93800000D02*
X148520000Y-98040000D01*
X148520000Y-98040000D02*
X150760000Y-98040000D01*
X149640000Y-93150000D02*
X149640000Y-93800000D01*
X149640000Y-98690000D02*
X149640000Y-98040000D01*
X150760000Y-93800000D02*
X148520000Y-93800000D01*
X150760000Y-94400000D02*
X148520000Y-94400000D01*
X150760000Y-94520000D02*
X148520000Y-94520000D01*
X150760000Y-94640000D02*
X148520000Y-94640000D01*
X150760000Y-98040000D02*
X150760000Y-93800000D01*
%TO.C,JP3*%
X138650000Y-98650000D02*
X141450000Y-98650000D01*
X138650000Y-100650000D02*
X138650000Y-98650000D01*
X141450000Y-98650000D02*
X141450000Y-100650000D01*
X141450000Y-100650000D02*
X138650000Y-100650000D01*
%TO.C,TP3*%
X122900000Y-98900000D02*
G75*
G02*
X120500000Y-98900000I-1200000J0D01*
G01*
X120500000Y-98900000D02*
G75*
G02*
X122900000Y-98900000I1200000J0D01*
G01*
%TO.C,C1*%
X154711252Y-98890000D02*
X153288748Y-98890000D01*
X154711252Y-100710000D02*
X153288748Y-100710000D01*
%TO.C,R3*%
X142465000Y-102448748D02*
X142465000Y-102971252D01*
X143935000Y-102448748D02*
X143935000Y-102971252D01*
%TO.C,C4*%
X119900000Y-103455000D02*
X123820000Y-103455000D01*
X123820000Y-101545000D02*
X119900000Y-101545000D01*
X123820000Y-103455000D02*
X123820000Y-101545000D01*
%TO.C,D3*%
X148510000Y-103730000D02*
X148510000Y-107970000D01*
X148510000Y-107130000D02*
X150750000Y-107130000D01*
X148510000Y-107250000D02*
X150750000Y-107250000D01*
X148510000Y-107370000D02*
X150750000Y-107370000D01*
X148510000Y-107970000D02*
X150750000Y-107970000D01*
X149630000Y-103080000D02*
X149630000Y-103730000D01*
X149630000Y-108620000D02*
X149630000Y-107970000D01*
X150750000Y-103730000D02*
X148510000Y-103730000D01*
X150750000Y-107970000D02*
X150750000Y-103730000D01*
%TO.C,JP1*%
X137000000Y-109500000D02*
X139800000Y-109500000D01*
X137000000Y-111500000D02*
X137000000Y-109500000D01*
X139800000Y-109500000D02*
X139800000Y-111500000D01*
X139800000Y-111500000D02*
X137000000Y-111500000D01*
%TD*%
M02*
